{"glyphs":{"0":{"ha":693,"x_min":58,"x_max":635,"o":"m 58 307 q 176 579 88 485 q 354 674 264 674 q 524 588 444 674 q 635 344 604 501 q 519 73 606 167 q 342 -21 432 -21 q 170 65 251 -21 q 58 307 89 151 m 238 515 q 217 470 238 515 q 196 326 196 425 q 238 138 196 228 q 349 24 279 47 q 460 138 418 47 q 501 326 501 228 q 460 515 501 425 q 349 629 418 606 q 238 515 279 606 z "},"1":{"ha":463,"x_min":58,"x_max":376,"o":"m 369 -8 q 217 0 299 0 q 61 -11 135 0 l 58 15 q 167 46 114 33 q 179 264 179 149 l 179 381 q 169 601 179 521 q 61 642 104 619 l 65 669 q 229 653 144 653 q 371 660 314 653 l 376 632 q 294 603 336 621 q 282 381 282 510 l 282 264 q 292 50 282 122 q 374 18 336 38 l 369 -8 z "},"2":{"ha":617,"x_min":47,"x_max":550,"o":"m 229 118 q 306 119 249 119 q 489 103 363 119 q 521 183 503 133 l 550 174 q 535 75 535 119 q 544 -10 535 31 l 528 -21 q 117 29 307 29 q 74 -21 99 11 l 47 -7 q 247 239 93 85 q 342 360 300 292 q 383 482 383 428 q 350 562 383 536 q 265 588 317 588 q 175 568 214 588 q 165 524 165 551 q 179 483 165 496 l 178 474 q 111 418 142 451 q 85 431 94 419 q 75 458 75 443 q 149 587 75 522 q 300 674 224 651 q 465 619 413 674 q 517 453 517 565 q 189 110 385 278 l 192 104 q 229 118 213 114 z "},"3":{"ha":625,"x_min":39,"x_max":578,"o":"m 129 68 q 132 -17 129 14 q 220 -57 165 -40 q 324 -74 275 -74 q 400 -40 372 -74 q 421 78 421 13 q 369 233 421 176 q 224 289 318 289 l 218 297 l 406 551 l 403 557 q 365 543 382 547 q 161 553 285 543 q 133 468 149 522 l 104 478 q 114 574 114 533 q 100 661 114 615 l 115 674 q 504 636 282 636 q 554 674 539 658 l 578 653 q 332 371 525 604 q 488 281 432 354 q 543 92 543 208 q 441 -58 515 15 q 290 -160 367 -131 q 161 -144 233 -160 q 39 -106 89 -129 l 39 -87 q 99 68 92 -28 l 129 68 z "},"4":{"ha":654,"x_min":4,"x_max":597,"o":"m 479 668 q 461 381 461 561 q 463 151 461 200 q 537 162 515 151 q 575 213 558 172 l 597 208 q 585 81 585 146 l 579 78 q 464 82 531 82 q 475 -93 464 -11 q 546 -118 504 -108 l 540 -146 q 397 -139 461 -139 q 246 -156 332 -139 l 242 -128 q 351 -92 289 -107 q 361 82 361 -12 l 10 82 l 4 101 q 367 639 228 361 q 468 674 425 653 l 479 668 m 356 526 q 150 167 269 338 q 361 156 236 158 l 365 526 l 356 526 z "},"5":{"ha":640,"x_min":56,"x_max":560,"o":"m 146 68 q 149 -17 146 14 q 237 -57 182 -40 q 340 -74 292 -74 q 417 -40 389 -74 q 438 78 438 13 q 387 232 438 175 q 242 289 336 289 q 144 265 188 289 l 128 278 l 142 521 q 144 597 144 558 q 139 669 144 636 l 168 675 q 181 638 175 650 q 499 674 358 643 l 514 661 q 497 565 497 613 q 504 476 497 518 l 474 469 q 449 553 461 521 q 236 543 351 543 l 204 557 l 199 550 l 183 335 q 274 376 246 369 q 485 299 410 372 q 560 92 560 225 q 458 -58 532 15 q 307 -160 383 -131 q 178 -144 250 -160 q 56 -106 106 -129 l 56 -87 q 115 68 108 -28 l 146 68 z "},"6":{"ha":626,"x_min":75,"x_max":585,"o":"m 199 299 q 346 65 199 65 q 442 99 414 65 q 463 203 463 151 q 281 414 463 414 q 239 410 260 414 l 239 419 q 318 486 278 447 q 585 217 585 486 q 472 73 554 146 q 317 -21 390 0 q 75 253 75 -21 q 184 585 75 425 q 454 813 293 744 l 472 788 q 273 576 347 706 q 199 299 199 447 z "},"7":{"ha":542,"x_min":67,"x_max":532,"o":"m 372 -147 q 222 -139 292 -139 q 78 -154 151 -139 l 71 -126 q 140 -97 115 -112 q 335 400 158 103 l 425 553 l 421 558 q 385 543 401 549 q 294 542 356 542 q 132 551 233 542 q 107 468 119 519 l 76 475 q 83 563 83 517 q 67 658 83 610 l 82 671 q 481 635 256 635 q 504 668 492 647 l 532 654 q 264 -89 265 197 q 375 -119 331 -101 l 372 -147 z "},"8":{"ha":661,"x_min":81,"x_max":581,"o":"m 551 674 q 503 567 551 626 q 400 468 454 507 q 489 407 456 433 q 551 333 522 381 q 581 231 581 286 q 474 78 550 151 q 318 -21 399 6 q 153 37 226 -21 q 81 181 81 94 q 131 308 81 240 q 243 419 181 376 q 111 631 111 515 q 222 740 143 682 q 358 813 300 797 q 495 777 439 813 q 551 674 551 742 m 438 99 q 458 185 458 147 q 449 243 458 224 q 431 276 440 263 q 397 310 421 290 q 360 340 374 331 q 315 370 347 349 q 269 400 282 392 q 183 217 183 333 q 233 110 183 154 q 346 65 282 65 q 438 99 410 65 m 242 694 q 232 639 232 678 q 267 565 232 600 q 371 486 301 529 q 449 638 449 557 q 329 726 449 726 q 242 694 271 726 z "},"9":{"ha":626,"x_min":42,"x_max":551,"o":"m 428 354 q 281 588 428 588 q 185 554 213 588 q 164 450 164 501 q 346 239 164 239 q 388 243 367 239 l 388 233 q 308 167 349 206 q 42 436 42 167 q 154 580 72 507 q 310 674 236 653 q 551 400 551 674 q 442 68 551 228 q 172 -160 333 -92 l 154 -135 q 353 76 279 -53 q 428 354 428 206 z "}," ":{"ha":250,"x_min":0,"x_max":0,"o":""},"!":{"ha":314,"x_min":72,"x_max":251,"o":"m 222 64 q 188 18 213 46 q 147 -21 164 -10 q 106 18 131 -10 q 72 64 82 46 q 104 102 81 81 q 147 133 128 124 q 189 101 165 122 q 222 64 213 79 m 100 943 q 150 959 117 951 q 194 967 183 967 q 207 967 204 967 q 251 911 222 953 q 165 253 186 679 l 129 250 l 100 943 z "},"\"":{"ha":438,"x_min":88,"x_max":399,"o":"m 88 901 q 138 917 104 910 q 181 925 171 925 q 194 925 192 925 l 211 907 q 147 603 168 796 l 106 600 l 88 901 m 275 901 q 325 917 292 910 q 369 925 358 925 q 382 925 379 925 l 399 907 q 335 603 356 796 l 293 600 l 275 901 z "},"#":{"ha":764,"x_min":56,"x_max":708,"o":"m 528 515 q 654 514 621 514 q 699 514 688 514 l 708 506 l 694 439 l 518 443 l 497 261 q 619 260 586 260 q 661 260 651 260 l 671 253 l 657 185 l 489 189 l 451 -128 l 444 -128 q 388 -99 411 -121 q 431 190 413 39 l 281 194 l 243 -128 l 236 -128 q 179 -99 203 -121 q 222 190 204 39 l 222 196 l 67 200 l 56 210 l 69 282 l 133 276 q 232 271 158 274 l 254 450 l 104 454 l 93 463 l 107 536 l 169 531 q 263 525 192 528 l 299 815 q 360 822 325 815 l 365 818 q 319 522 336 663 q 471 517 365 519 l 507 815 q 568 822 533 815 l 574 818 q 528 517 544 661 l 528 515 m 289 268 q 439 263 333 265 l 461 444 l 311 449 l 289 268 z "},"$":{"ha":625,"x_min":76,"x_max":558,"o":"m 129 475 q 187 601 129 535 q 328 710 244 668 l 332 817 q 369 825 354 819 l 375 821 q 365 726 367 772 q 558 704 471 726 l 558 685 q 499 528 507 621 l 468 528 q 464 615 468 583 q 361 636 411 635 l 353 432 q 525 306 494 350 q 539 263 539 285 q 478 117 539 190 q 325 -3 418 43 l 324 -128 l 317 -128 q 279 -107 293 -121 l 286 -21 q 76 15 176 -21 l 76 33 q 136 189 128 97 l 167 189 q 169 104 167 135 q 290 69 226 74 l 303 311 q 217 364 249 343 q 158 416 186 385 q 129 475 129 447 m 456 183 q 338 290 456 221 l 328 69 q 419 102 382 75 q 456 183 456 129 m 213 554 q 318 453 213 518 l 325 635 q 213 554 213 622 z "},"%":{"ha":1033,"x_min":47,"x_max":986,"o":"m 247 792 q 406 771 278 792 q 625 750 533 750 q 749 803 717 750 l 757 817 q 847 831 810 819 l 851 826 q 650 525 757 692 l 226 -139 l 219 -139 q 165 -94 183 -122 q 335 142 306 96 l 578 522 q 708 732 644 622 l 703 733 q 597 699 669 699 q 361 749 525 699 l 357 744 q 443 567 422 683 q 364 380 424 444 q 242 315 304 315 q 124 374 181 315 q 47 540 67 433 q 128 727 67 663 q 247 792 189 792 m 590 204 q 671 391 610 326 q 794 456 732 456 q 911 397 856 456 q 986 231 967 338 q 907 44 967 108 q 785 -21 847 -21 q 667 38 724 -21 q 590 204 610 97 m 319 433 q 333 461 319 433 q 346 554 346 490 q 319 676 346 618 q 247 750 293 733 q 175 675 203 733 q 147 554 147 617 q 175 433 147 492 q 247 358 203 375 q 319 433 293 375 m 863 97 q 876 125 863 97 q 889 218 889 154 q 863 340 889 282 q 790 414 836 397 q 718 339 746 397 q 690 218 690 281 q 718 97 690 156 q 790 22 746 39 q 863 97 836 39 z "},"&":{"ha":839,"x_min":47,"x_max":872,"o":"m 590 565 q 688 423 688 531 q 600 196 688 315 q 736 51 683 99 q 872 33 803 49 l 869 -1 q 747 0 849 0 q 554 -21 646 0 l 549 -1 q 557 40 557 13 q 524 107 557 68 q 343 -21 433 21 q 133 61 219 -21 q 47 265 47 143 q 231 526 47 438 q 213 556 222 533 q 194 596 204 578 q 182 622 185 614 q 172 646 179 629 q 162 672 164 663 q 156 697 160 682 q 149 747 149 721 q 252 853 176 797 q 386 925 328 908 q 575 789 575 925 q 545 686 575 735 q 467 615 515 638 l 468 608 l 789 633 l 794 628 q 776 563 785 603 q 590 572 671 569 l 590 565 m 575 226 q 615 384 615 290 q 565 527 615 478 q 426 579 514 576 l 417 606 q 483 731 483 661 q 447 804 483 779 q 349 829 410 829 q 258 803 289 829 q 253 765 253 788 q 367 508 253 683 q 575 226 482 333 m 158 326 q 158 274 158 326 q 217 154 158 221 q 365 88 275 88 q 503 133 456 88 q 244 501 369 286 q 158 326 158 432 z "},"'":{"ha":250,"x_min":88,"x_max":211,"o":"m 88 901 q 138 917 104 910 q 181 925 171 925 q 194 925 192 925 l 211 907 q 147 603 168 796 l 106 600 l 88 901 z "},"(":{"ha":413,"x_min":67,"x_max":361,"o":"m 347 -299 q 142 -9 217 -187 q 67 360 67 169 q 140 713 67 551 q 347 988 214 875 l 361 974 q 167 364 167 708 q 217 16 167 188 q 361 -285 267 -156 l 347 -299 z "},")":{"ha":413,"x_min":51,"x_max":346,"o":"m 65 988 q 272 713 199 875 q 346 360 346 551 q 271 -9 346 169 q 65 -299 196 -187 l 51 -285 q 196 16 146 -156 q 246 364 246 188 q 51 974 246 708 l 65 988 z "},"*":{"ha":515,"x_min":60,"x_max":454,"o":"m 282 933 l 318 942 l 321 939 q 271 783 281 874 q 379 904 343 838 l 383 904 q 390 884 386 899 q 394 868 394 869 q 442 875 432 875 q 454 874 453 875 q 419 825 454 869 l 431 814 q 444 797 442 803 l 443 794 q 433 794 438 794 q 282 760 365 794 q 432 725 360 725 q 443 725 438 725 l 444 722 q 431 706 442 717 l 419 694 q 431 681 421 692 q 454 646 454 654 q 442 644 453 644 q 394 651 432 644 q 390 635 394 650 q 383 615 386 621 l 379 615 q 271 736 342 683 q 321 581 281 646 l 318 578 l 282 586 q 257 532 264 536 q 232 586 250 535 l 196 578 l 193 581 q 243 736 232 646 q 135 615 172 683 l 131 615 q 124 635 128 621 q 119 651 119 650 q 72 644 82 644 q 60 646 61 644 q 94 694 60 650 l 83 706 q 69 722 72 717 l 71 725 q 82 725 76 725 q 231 760 153 725 q 81 794 147 794 q 71 794 76 794 l 69 797 q 83 814 72 803 l 94 825 q 83 839 93 828 q 60 874 60 865 q 72 875 61 875 q 119 868 82 875 q 124 884 119 869 q 131 904 128 899 l 135 904 q 243 783 171 838 q 193 939 231 874 l 196 942 l 232 933 q 257 988 250 983 q 282 933 264 985 z "},"+":{"ha":764,"x_min":81,"x_max":696,"o":"m 415 308 q 428 0 415 132 l 364 -12 l 350 -3 l 350 308 l 92 308 l 81 318 l 93 389 q 350 379 263 381 l 350 661 l 415 674 l 422 665 q 415 379 415 482 l 415 378 q 550 376 467 376 q 688 381 633 376 l 696 372 l 683 308 l 415 308 z "},",":{"ha":296,"x_min":50,"x_max":222,"o":"m 222 64 q 175 -78 222 -6 q 64 -193 128 -150 l 50 -179 q 103 -94 79 -144 q 128 -6 126 -43 q 72 64 92 28 q 104 102 81 81 q 147 133 128 124 q 189 101 165 122 q 222 64 213 79 z "},"-":{"ha":397,"x_min":39,"x_max":361,"o":"m 111 400 q 350 414 233 400 l 361 407 l 353 349 l 51 328 l 39 336 l 47 400 l 111 400 z "},".":{"ha":294,"x_min":72,"x_max":222,"o":"m 222 64 q 188 18 213 46 q 147 -21 164 -10 q 106 18 131 -10 q 72 64 82 46 q 104 102 81 81 q 147 133 128 124 q 189 101 165 122 q 222 64 213 79 z "},"/":{"ha":492,"x_min":22,"x_max":481,"o":"m 85 -57 l 78 -57 q 22 -15 46 -43 q 132 247 85 124 l 290 663 q 399 969 346 807 q 475 981 438 972 l 481 976 q 365 682 444 894 l 85 -57 z "},":":{"ha":294,"x_min":72,"x_max":222,"o":"m 222 64 q 188 18 213 46 q 147 -21 164 -10 q 106 18 131 -10 q 72 64 82 46 q 104 102 81 81 q 147 133 128 124 q 189 101 165 122 q 222 64 213 79 m 222 604 q 188 558 213 586 q 147 519 164 531 q 106 558 131 531 q 72 604 82 586 q 104 642 81 621 q 147 674 128 664 q 189 641 165 663 q 222 604 213 619 z "},";":{"ha":294,"x_min":50,"x_max":222,"o":"m 222 64 q 175 -78 222 -6 q 64 -193 128 -150 l 50 -179 q 103 -94 79 -144 q 128 -6 126 -43 q 72 64 92 28 q 104 102 81 81 q 147 133 128 124 q 189 101 165 122 q 222 64 213 79 m 222 604 q 188 558 213 586 q 147 519 164 531 q 106 558 131 531 q 72 604 82 586 q 104 642 81 621 q 147 674 128 664 q 189 641 165 663 q 222 604 213 619 z "},"<":{"ha":764,"x_min":72,"x_max":692,"o":"m 656 76 q 72 308 361 222 l 92 397 q 346 488 169 421 q 658 624 522 554 l 692 560 l 685 546 l 186 353 l 186 347 l 685 156 l 692 142 l 656 76 z "},"=":{"ha":764,"x_min":74,"x_max":689,"o":"m 86 282 q 474 269 322 269 q 681 274 626 269 l 689 265 l 676 201 l 85 201 l 74 211 l 86 282 m 86 496 q 474 483 322 483 q 681 488 626 483 l 689 479 l 676 415 l 85 415 l 74 425 l 86 496 z "},">":{"ha":764,"x_min":72,"x_max":692,"o":"m 692 308 q 108 76 403 222 l 72 142 l 79 156 l 578 347 l 578 353 l 79 546 l 72 560 l 106 624 q 418 488 242 554 q 672 397 594 421 l 692 308 z "},"?":{"ha":465,"x_min":24,"x_max":465,"o":"m 332 778 q 299 855 332 829 q 214 881 265 881 q 124 861 163 881 q 114 817 114 844 q 128 776 114 789 l 126 767 q 60 711 90 744 q 33 724 43 713 q 24 751 24 736 q 98 880 24 815 q 249 967 172 944 q 413 913 361 967 q 465 746 465 858 q 246 489 378 621 q 231 253 236 365 l 194 250 l 165 443 l 165 469 q 332 778 332 636 m 285 68 q 251 22 275 50 q 210 -17 226 -6 q 169 22 193 -6 q 135 68 144 50 q 167 106 143 85 q 210 138 190 128 q 251 105 228 126 q 285 68 275 83 z "},"@":{"ha":1194,"x_min":76,"x_max":1143,"o":"m 335 244 q 413 509 335 389 q 621 674 490 629 q 815 644 714 674 q 847 718 835 674 l 876 710 q 846 360 846 582 q 869 43 846 139 q 1008 213 961 96 q 1054 457 1054 329 q 636 856 1054 856 q 390 792 494 856 q 228 540 289 694 q 168 239 168 386 q 268 -82 168 31 q 568 -194 368 -194 q 733 -164 654 -194 l 743 -182 q 557 -264 660 -240 q 194 -147 313 -264 q 76 215 76 -29 q 233 691 76 494 q 658 925 390 888 q 1143 504 1143 925 q 1054 166 1143 311 q 796 -21 965 21 q 762 76 775 4 q 749 201 749 149 l 743 203 q 628 68 694 133 q 501 -21 561 3 q 380 64 425 -21 q 335 244 335 149 m 446 307 q 470 166 446 239 q 540 93 494 93 q 658 163 589 93 q 749 288 728 232 q 739 554 749 494 q 597 588 665 588 q 492 554 528 588 q 446 307 446 449 z "},"A":{"ha":832,"x_min":-75,"x_max":822,"o":"m 136 919 q 467 904 294 904 q 797 919 639 904 l 803 885 q 669 856 740 865 q 651 452 651 722 q 669 49 651 182 q 822 22 743 42 l 818 -11 q 595 0 715 0 q 401 -11 475 0 l 396 24 q 529 53 458 43 q 544 349 540 144 q 385 357 472 357 q 239 349 299 357 q 206 131 206 213 q 265 14 206 49 l 260 -6 q 115 0 217 0 q -69 -11 13 0 l -75 24 q 58 53 -12 43 l 286 860 q 132 886 208 868 l 136 919 m 254 418 q 402 408 317 408 q 544 418 488 408 q 531 849 544 754 q 445 853 488 853 q 358 849 403 853 l 254 418 z "},"B":{"ha":800,"x_min":22,"x_max":733,"o":"m 22 901 l 422 914 q 643 872 590 914 q 694 754 694 833 q 640 612 694 675 q 508 517 586 549 l 508 511 q 671 465 608 511 q 733 329 733 419 q 630 115 733 218 q 406 -21 526 11 q 201 32 318 -21 q 169 -31 178 -4 l 140 -24 q 174 421 174 128 q 158 844 174 714 q 22 867 92 867 l 22 901 m 365 531 q 514 560 468 531 q 564 707 564 615 q 399 863 564 863 q 293 844 343 863 q 281 477 281 714 q 288 118 281 240 q 442 79 360 79 q 574 113 525 79 q 606 265 606 181 q 342 479 606 479 l 349 531 l 365 531 z "},"C":{"ha":692,"x_min":58,"x_max":721,"o":"m 422 89 q 649 197 535 89 l 668 179 q 393 -21 553 32 q 142 84 226 -21 q 58 374 58 189 q 160 719 58 560 q 435 925 263 878 q 721 899 575 925 l 719 868 q 653 856 683 868 q 607 664 618 774 l 572 664 q 560 793 560 719 q 403 828 494 828 q 253 778 313 828 q 182 471 182 657 q 301 119 182 193 q 422 89 351 89 z "},"D":{"ha":860,"x_min":22,"x_max":801,"o":"m 22 901 l 422 914 q 705 818 608 914 q 801 533 801 722 q 700 186 801 343 q 425 -21 599 29 q 201 32 325 -21 q 169 -31 178 -4 l 140 -24 q 174 421 174 128 q 158 844 174 714 q 22 867 92 867 l 22 901 m 619 733 q 533 828 589 794 q 410 863 476 863 q 293 844 343 863 q 281 477 281 714 q 288 118 281 240 q 458 79 363 79 q 607 126 554 79 q 678 444 678 256 q 619 733 678 617 z "},"E":{"ha":711,"x_min":58,"x_max":721,"o":"m 422 89 q 649 197 535 89 l 668 179 q 393 -21 553 32 q 142 84 226 -21 q 58 374 58 189 q 160 719 58 560 q 435 925 263 878 q 721 899 575 925 l 719 868 q 653 856 683 868 q 607 664 618 774 l 572 664 q 560 793 560 719 q 403 828 494 828 q 253 778 313 828 q 183 518 190 671 q 339 507 243 507 q 522 567 493 507 l 550 561 q 538 456 538 517 q 546 333 538 394 l 514 328 q 486 451 493 381 q 335 456 433 456 q 182 449 238 456 q 306 117 186 188 q 422 89 353 89 z "},"F":{"ha":678,"x_min":29,"x_max":697,"o":"m 568 824 q 428 853 508 853 q 301 846 347 853 q 288 508 288 751 q 404 497 347 497 q 542 557 513 497 l 569 551 q 557 445 557 507 q 565 324 557 383 l 533 318 q 506 442 513 371 q 399 446 454 446 q 288 439 343 446 q 306 49 289 156 q 458 22 375 42 l 454 -11 q 231 0 351 0 q 38 -11 111 0 l 32 24 q 165 53 94 43 q 181 411 181 167 l 181 493 q 163 851 181 646 q 29 883 107 858 l 35 918 q 367 904 179 904 q 692 919 554 904 l 697 892 q 615 672 625 818 l 581 672 q 568 824 568 732 z "},"G":{"ha":774,"x_min":58,"x_max":729,"o":"m 300 119 q 424 89 349 89 q 560 129 499 89 l 560 244 q 554 338 560 276 q 428 365 506 351 l 432 394 q 493 390 464 390 q 717 458 615 390 l 729 433 q 679 383 697 408 q 651 -6 663 217 l 622 -6 q 589 93 608 54 q 393 -21 499 14 q 142 84 226 -21 q 58 374 58 189 q 160 719 58 560 q 435 925 263 878 q 725 899 579 925 l 724 868 q 657 856 689 868 q 611 663 619 767 l 576 663 q 564 792 564 719 q 406 828 499 828 q 253 778 313 828 q 182 471 182 657 q 300 119 182 192 z "},"H":{"ha":983,"x_min":29,"x_max":974,"o":"m 553 915 q 759 904 638 904 q 969 915 881 904 l 974 882 q 821 856 894 863 q 803 493 803 753 l 803 411 q 821 49 803 151 q 974 22 894 42 l 969 -11 q 759 0 881 0 q 553 -11 638 0 l 547 24 q 681 53 610 43 q 696 456 694 193 q 492 465 593 465 q 288 456 390 465 q 306 49 289 158 q 458 22 379 42 l 454 -11 q 231 0 351 0 q 38 -11 111 0 l 32 24 q 165 53 94 43 q 181 411 181 167 l 181 493 q 163 851 181 718 q 29 881 92 861 l 35 915 q 228 904 108 904 q 451 915 349 904 l 456 882 q 303 856 376 863 q 288 531 290 774 q 497 517 393 517 q 696 529 601 517 q 681 851 694 713 q 547 881 610 861 l 553 915 z "},"I":{"ha":468,"x_min":29,"x_max":458,"o":"m 303 856 q 288 467 288 751 q 306 49 288 182 q 458 22 379 42 l 454 -11 q 231 0 351 0 q 38 -11 111 0 l 32 24 q 165 53 94 43 q 181 411 181 167 l 181 493 q 163 851 181 718 q 29 881 92 861 l 35 915 q 228 904 108 904 q 451 915 349 904 l 456 882 q 303 856 376 863 z "},"J":{"ha":468,"x_min":-11,"x_max":439,"o":"m 17 915 q 240 904 119 904 q 433 915 360 904 l 439 881 q 306 851 376 861 q 288 493 288 718 l 288 411 q 299 46 288 154 q 13 -250 221 -129 l -11 -224 q 138 -33 94 -135 q 181 214 181 69 l 181 493 q 165 856 181 751 q 13 882 92 863 l 17 915 z "},"K":{"ha":842,"x_min":28,"x_max":871,"o":"m 865 -11 q 688 0 783 0 q 550 -6 593 0 l 544 14 q 568 93 568 38 q 426 478 568 206 q 288 357 349 407 q 304 49 292 142 q 461 22 386 40 l 457 -11 q 232 0 354 0 q 36 -11 110 0 l 31 24 q 164 53 93 43 q 179 411 179 167 l 179 493 q 161 851 179 718 q 28 881 90 861 l 33 915 q 220 904 107 904 q 436 915 333 904 l 440 882 q 301 856 351 861 q 286 486 286 751 l 286 408 q 515 682 461 593 q 569 819 569 771 q 546 890 569 867 l 551 910 q 674 904 594 904 q 836 915 754 904 l 842 881 q 708 851 779 861 q 506 551 696 733 l 738 53 q 871 24 808 43 l 865 -11 z "},"L":{"ha":633,"x_min":29,"x_max":663,"o":"m 654 -15 q 337 0 515 0 q 35 -14 158 0 l 29 21 q 163 53 83 39 q 178 411 178 167 l 178 493 q 163 851 178 736 q 29 881 92 861 l 35 915 q 228 904 108 904 q 451 915 349 904 l 456 882 q 303 856 372 863 q 285 447 285 733 q 299 58 285 161 q 422 51 344 51 q 556 76 500 51 q 582 232 572 128 l 617 232 q 663 13 622 85 l 654 -15 z "},"M":{"ha":1200,"x_min":-39,"x_max":1210,"o":"m 503 97 q 322 835 503 283 l 317 833 l 272 510 q 244 151 244 311 q 256 67 244 100 q 304 14 268 33 l 299 -6 q 152 0 256 0 q -33 -11 49 0 l -39 24 q 94 53 24 43 l 256 857 q 103 882 172 865 l 107 915 q 325 904 210 904 q 496 910 440 904 l 499 890 q 451 847 451 874 q 561 407 451 756 l 604 271 l 614 274 q 786 846 615 304 q 771 873 786 860 q 739 890 756 886 l 743 910 q 933 904 813 904 q 1126 915 1054 904 l 1133 881 q 999 851 1067 860 q 992 733 992 818 q 1015 390 992 647 q 1057 49 1038 133 q 1210 22 1131 42 l 1206 -11 q 983 0 1103 0 q 790 -11 864 0 l 785 24 q 918 53 847 43 q 902 424 918 185 q 863 829 886 664 l 858 831 q 651 146 663 289 q 517 40 561 92 l 500 51 q 503 97 503 82 z "},"N":{"ha":981,"x_min":29,"x_max":956,"o":"m 35 915 q 215 904 104 904 q 386 913 325 904 l 393 890 q 361 873 376 885 q 346 847 346 861 q 417 692 346 814 q 728 194 488 569 l 733 197 l 733 397 q 710 750 733 631 q 626 890 686 869 l 632 910 q 772 904 675 904 q 951 915 869 904 l 956 883 q 818 856 857 860 q 800 493 800 719 l 800 411 q 818 49 800 151 q 951 24 889 40 l 946 -11 q 798 0 872 0 q 678 -4 724 0 q 260 743 678 92 l 254 740 l 254 507 q 306 49 254 153 q 457 22 382 42 l 454 -11 q 231 0 351 0 q 38 -11 111 0 l 32 24 q 165 53 94 43 q 181 411 181 167 l 181 493 q 163 851 181 718 q 29 881 92 861 l 35 915 z "},"O":{"ha":836,"x_min":58,"x_max":778,"o":"m 418 -21 q 157 87 256 -21 q 58 378 58 194 q 162 720 58 561 q 435 925 265 879 q 691 824 604 925 q 778 534 778 722 q 683 195 778 346 q 418 -21 588 44 m 383 825 q 253 778 306 825 q 182 471 182 653 q 299 140 182 254 q 445 79 361 79 q 585 128 529 79 q 654 431 654 256 q 599 703 654 593 q 383 825 538 825 z "},"P":{"ha":711,"x_min":29,"x_max":718,"o":"m 29 901 l 432 914 q 718 686 718 914 q 617 486 718 563 q 381 410 515 410 q 350 411 360 410 l 356 456 l 372 456 q 532 508 476 456 q 588 663 588 561 q 544 813 588 764 q 408 863 501 863 q 300 844 353 863 q 288 443 288 714 q 304 49 288 172 q 457 22 378 42 l 453 -11 q 230 0 350 0 q 36 -11 110 0 l 31 24 q 164 53 93 43 q 181 440 181 167 q 165 844 181 714 q 29 867 99 867 l 29 901 z "},"Q":{"ha":836,"x_min":58,"x_max":969,"o":"m 397 -101 q 249 -149 310 -101 l 225 -126 q 390 -19 283 -65 q 149 97 239 -10 q 58 382 58 203 q 162 720 58 561 q 435 925 265 879 q 691 824 604 925 q 778 540 778 722 q 692 212 778 357 q 453 -6 607 67 q 660 -67 522 -6 q 835 -137 797 -129 q 954 -81 896 -114 l 969 -104 q 810 -281 871 -167 l 771 -253 q 397 -101 560 -101 m 383 825 q 253 778 306 825 q 182 471 182 653 q 299 140 182 254 q 445 79 361 79 q 585 128 529 79 q 654 431 654 256 q 599 703 654 593 q 383 825 538 825 z "},"R":{"ha":860,"x_min":29,"x_max":885,"o":"m 49 901 l 449 914 q 660 868 589 914 q 731 700 731 822 q 557 464 731 531 l 751 53 q 885 24 822 43 l 879 -11 q 702 0 797 0 q 564 -6 607 0 l 558 14 q 582 93 582 38 q 451 447 582 204 q 371 454 417 454 l 375 485 l 392 485 q 546 534 492 485 q 600 678 600 583 q 558 817 600 772 q 425 863 515 863 q 319 844 369 863 q 307 435 307 714 q 322 53 307 157 q 456 24 393 43 l 450 -11 q 256 0 376 0 q 33 -11 136 0 l 29 22 q 182 49 108 42 q 200 448 200 182 q 185 844 200 714 q 49 867 118 867 l 49 901 z "},"S":{"ha":646,"x_min":15,"x_max":621,"o":"m 158 181 l 161 125 l 161 121 q 319 89 240 89 q 445 126 399 89 q 492 233 492 163 q 432 327 492 275 q 300 421 372 379 q 168 516 228 463 q 108 614 108 569 q 198 802 108 711 q 394 925 288 893 q 621 901 514 925 l 621 874 q 540 668 549 807 l 506 668 q 499 797 506 742 q 366 825 439 825 q 247 794 293 825 q 201 707 201 764 q 261 614 201 665 q 392 522 321 563 q 524 428 464 481 q 583 331 583 375 q 494 125 583 229 q 299 -21 404 21 q 94 4 189 -21 q 36 -37 65 -10 l 15 -18 q 122 250 111 83 l 157 250 l 157 231 l 158 181 z "},"T":{"ha":721,"x_min":-18,"x_max":761,"o":"m 489 853 q 428 846 451 853 q 414 467 414 751 q 432 49 414 182 q 585 22 501 42 l 581 -11 q 358 0 478 0 q 164 -11 238 0 l 158 24 q 292 53 221 43 q 307 411 307 167 l 307 493 q 289 846 307 636 q 207 853 265 853 q 90 828 149 853 q 63 672 72 769 l 28 672 q -18 892 22 821 l -10 919 q 373 904 124 904 q 756 919 622 904 l 761 892 q 699 796 715 843 q 679 672 683 749 l 644 672 q 632 824 632 732 q 489 853 572 853 z "},"U":{"ha":924,"x_min":19,"x_max":914,"o":"m 274 763 q 254 458 254 588 q 258 287 254 328 q 275 207 263 246 q 308 143 288 168 q 456 89 356 89 q 629 156 556 89 q 636 517 636 336 q 621 856 636 697 q 488 885 550 865 l 493 915 q 699 904 578 904 q 910 915 821 904 l 914 886 q 761 860 835 867 q 743 493 743 757 l 743 411 q 761 49 743 151 q 914 22 835 42 l 910 -11 q 729 0 821 0 q 613 -1 638 0 l 608 18 q 626 117 621 33 q 424 -21 546 26 q 206 70 269 -21 q 143 335 143 161 q 153 586 143 414 q 163 790 163 758 q 153 851 163 822 q 19 881 82 861 l 25 915 q 202 904 107 904 q 340 910 297 904 l 346 890 q 274 763 283 856 z "},"V":{"ha":832,"x_min":-58,"x_max":879,"o":"m 588 -11 q 405 0 506 0 q 261 -6 304 0 l 256 14 q 288 31 272 19 q 303 57 303 43 q 118 735 303 158 q 75 851 93 811 q -58 881 -3 861 l -53 915 q 147 904 21 904 q 375 915 272 904 l 379 882 q 226 856 300 863 q 297 516 236 743 q 426 96 357 289 q 583 488 543 354 q 622 719 622 622 q 553 890 622 850 l 558 910 q 697 904 601 904 q 874 915 792 904 l 879 881 q 746 851 817 861 q 753 771 753 803 q 692 508 753 649 q 460 49 632 368 q 593 19 531 39 l 588 -11 z "},"W":{"ha":1258,"x_min":-58,"x_max":1306,"o":"m 518 -6 q 378 0 451 0 q 261 -6 304 0 l 256 14 q 288 31 272 19 q 303 57 303 43 q 118 735 303 158 q 75 851 93 811 q -58 883 -4 865 l -53 918 q 397 904 82 904 q 846 918 711 904 l 851 883 q 718 851 790 864 q 725 763 725 803 q 714 664 725 724 q 881 96 767 428 q 1016 490 983 356 q 1049 719 1049 624 q 979 890 1049 850 l 985 910 q 1123 904 1028 904 q 1300 915 1218 904 l 1306 881 q 1172 851 1243 861 q 1179 771 1179 803 q 1122 503 1179 654 q 913 47 1064 351 q 976 24 936 35 l 972 -6 q 832 0 906 0 q 715 -6 758 0 l 710 14 q 742 31 726 19 q 757 57 757 43 q 658 472 757 139 l 653 472 q 458 47 588 304 q 522 24 482 35 l 518 -6 m 426 96 q 562 490 529 356 q 594 719 594 624 q 560 842 594 814 q 417 871 525 871 q 228 846 310 871 q 299 508 240 732 q 426 96 358 285 z "},"X":{"ha":896,"x_min":-19,"x_max":915,"o":"m 628 846 q 600 890 628 876 l 606 910 q 752 904 675 904 q 901 915 829 904 l 908 881 q 774 851 842 860 q 510 483 700 735 l 782 53 q 915 24 853 43 l 910 -11 q 733 0 828 0 q 594 -6 638 0 l 589 14 q 594 44 594 25 q 435 397 594 135 q 256 49 256 99 q 408 22 329 42 l 404 -11 q 180 0 293 0 q -12 -11 67 0 l -19 24 q 115 53 47 44 q 399 454 199 185 l 149 851 q 15 881 78 861 l 21 915 q 241 904 108 904 q 485 915 374 904 l 489 882 q 336 856 410 863 q 475 538 336 769 q 628 846 628 788 z "},"Y":{"ha":757,"x_min":-47,"x_max":839,"o":"m 558 846 q 531 890 558 876 l 536 910 q 683 904 606 904 q 832 915 760 904 l 839 881 q 704 851 772 860 l 432 414 q 450 49 432 182 q 603 22 524 42 l 599 -11 q 376 0 496 0 q 182 -11 256 0 l 176 24 q 310 53 239 43 q 325 340 325 167 l 325 376 q 149 747 186 671 q 86 851 111 822 q -47 881 8 861 l -42 915 q 158 904 32 904 q 386 915 283 904 l 390 882 q 238 856 311 863 q 404 468 303 661 q 558 846 558 769 z "},"Z":{"ha":682,"x_min":-21,"x_max":697,"o":"m 19 925 q 235 907 49 925 q 503 889 422 889 q 610 899 583 889 q 668 939 636 910 l 697 917 q 588 763 650 871 l 215 101 l 221 97 l 421 97 q 536 124 501 97 q 544 253 544 176 l 581 253 q 690 -7 590 96 l 664 -28 q 636 -3 653 -14 q 165 29 439 29 q 8 -24 53 29 l -21 0 q 104 164 49 69 l 499 815 l 494 819 l 307 819 q 158 793 219 819 q 124 667 143 714 l 90 672 q 93 773 93 725 q 81 871 93 821 q 15 894 58 883 l 19 925 z "},"[":{"ha":453,"x_min":131,"x_max":411,"o":"m 375 -268 q 140 -289 225 -268 l 131 -282 q 144 344 144 -186 q 131 971 144 875 l 140 978 q 375 957 225 957 q 411 957 393 957 l 411 928 q 228 904 303 925 l 228 -215 q 411 -239 303 -236 l 411 -268 q 375 -268 393 -268 z "},"\\":{"ha":488,"x_min":29,"x_max":449,"o":"m 392 -62 l 385 -62 l 138 664 q 29 967 74 854 q 96 996 74 982 l 101 996 q 197 685 138 864 l 349 243 q 449 -24 393 114 q 392 -62 429 -46 z "},"]":{"ha":453,"x_min":42,"x_max":322,"o":"m 78 957 q 313 978 228 957 l 322 971 q 308 344 308 875 q 322 -282 308 -186 l 313 -289 q 78 -268 228 -268 q 42 -268 60 -268 l 42 -239 q 225 -215 150 -236 l 225 904 q 42 928 150 925 l 42 957 q 78 957 60 957 z "},"^":{"ha":719,"x_min":69,"x_max":650,"o":"m 360 806 l 110 404 l 69 425 q 321 953 197 644 l 394 967 q 650 425 526 636 l 610 404 l 360 806 z "},"_":{"ha":854,"x_min":-4,"x_max":860,"o":"m 7 -186 q 520 -199 243 -199 q 851 -194 797 -199 l 860 -203 l 849 -257 l 7 -257 l -4 -247 l 7 -186 z "},"`":{"ha":278,"x_min":0,"x_max":278,"o":"m 35 963 q 65 965 49 965 q 94 964 81 965 q 177 847 128 906 q 278 754 226 789 l 263 729 l 0 881 q 13 923 1 894 q 35 963 25 951 z "},"a":{"ha":714,"x_min":69,"x_max":665,"o":"m 69 244 q 147 509 69 389 q 356 674 225 629 q 550 644 449 674 q 582 718 569 674 l 611 710 q 581 268 581 585 q 590 46 581 126 q 665 35 624 35 l 665 6 q 478 -21 576 1 l 468 -15 q 483 201 483 81 l 478 203 q 363 68 429 133 q 236 -21 296 3 q 115 64 160 -21 q 69 244 69 149 m 181 307 q 205 166 181 239 q 275 93 229 93 q 393 163 324 93 q 483 288 463 232 q 474 554 483 494 q 331 588 400 588 q 226 554 263 588 q 181 307 181 449 z "},"b":{"ha":710,"x_min":93,"x_max":638,"o":"m 638 408 q 560 144 638 264 q 351 -21 482 24 q 108 29 218 -21 q 126 539 126 190 q 93 1019 126 888 l 122 1028 q 154 954 135 983 q 303 988 231 967 l 310 963 q 244 922 283 942 q 224 451 224 808 l 229 450 q 344 585 278 519 q 471 674 411 650 q 592 589 547 674 q 638 408 638 504 m 526 346 q 502 487 526 414 q 432 560 478 560 q 314 490 383 560 q 224 365 244 421 q 233 99 224 158 q 376 65 307 65 q 481 99 444 65 q 526 346 526 204 z "},"c":{"ha":538,"x_min":69,"x_max":518,"o":"m 331 79 q 489 153 407 79 l 503 139 q 307 -21 422 26 q 128 56 186 -21 q 69 269 69 132 q 147 524 69 407 q 350 674 225 640 q 518 651 435 674 l 518 632 q 458 486 464 565 l 428 486 q 425 571 428 540 q 313 588 368 588 q 221 554 257 588 q 181 340 181 469 q 251 100 181 146 q 331 79 283 79 z "},"d":{"ha":714,"x_min":69,"x_max":665,"o":"m 69 244 q 147 509 69 389 q 356 674 225 629 q 492 660 431 674 q 482 921 492 840 q 407 932 449 932 l 407 961 q 594 988 496 965 l 604 981 q 581 522 581 844 l 581 268 q 590 46 581 126 q 665 35 624 35 l 665 6 q 478 -21 576 1 l 468 -15 q 483 201 483 81 l 478 203 q 363 68 429 133 q 236 -21 296 3 q 115 64 160 -21 q 69 244 69 149 m 181 307 q 205 165 181 238 q 275 93 229 93 q 393 163 324 93 q 483 288 463 232 q 474 554 483 494 q 331 588 400 588 q 226 554 263 588 q 181 307 181 449 z "},"e":{"ha":592,"x_min":69,"x_max":572,"o":"m 331 79 q 501 153 418 79 l 517 139 q 314 -21 438 31 q 131 56 192 -21 q 69 268 69 132 q 146 522 69 404 q 350 674 222 639 q 481 637 443 674 q 518 507 518 600 q 504 417 518 454 q 572 406 533 406 l 571 376 q 553 376 563 376 q 181 331 397 376 q 253 100 181 146 q 331 79 283 79 m 407 424 q 390 551 407 515 q 317 588 372 588 q 221 554 261 588 q 181 367 183 476 q 407 424 294 404 z "},"f":{"ha":451,"x_min":65,"x_max":535,"o":"m 246 594 l 246 319 q 263 -83 246 133 q 231 -81 243 -81 q 214 -81 219 -81 q 151 -278 172 -157 l 126 -276 q 143 319 143 24 l 143 596 l 68 596 l 65 599 q 69 629 65 621 q 143 653 88 636 q 232 854 157 761 q 410 988 307 947 q 535 965 471 988 l 535 946 q 475 786 482 881 l 444 786 q 442 871 444 840 q 363 888 415 888 q 276 854 311 888 q 247 654 247 776 l 444 661 l 450 656 q 432 590 440 631 q 246 594 361 594 z "},"g":{"ha":699,"x_min":57,"x_max":661,"o":"m 74 257 q 149 515 74 399 q 353 674 224 631 q 547 644 446 674 q 654 671 608 657 l 661 646 q 596 606 635 625 q 578 248 578 438 q 588 -47 578 58 q 472 -198 557 -124 q 304 -299 388 -272 q 57 -256 175 -299 l 57 -229 q 213 3 83 -136 l 213 8 q 111 102 149 26 q 74 257 74 178 m 185 318 q 209 183 185 253 q 278 114 233 114 q 391 187 324 114 q 481 314 458 260 q 471 554 481 496 q 331 588 397 588 q 226 554 264 588 q 185 318 185 453 m 338 -212 q 433 -179 399 -212 q 473 -18 465 -96 q 481 236 481 60 l 475 238 q 339 72 438 158 q 264 3 300 39 q 167 -174 176 -85 q 338 -212 243 -212 z "},"h":{"ha":753,"x_min":53,"x_max":704,"o":"m 535 404 q 471 560 535 560 q 343 492 417 560 q 244 365 269 424 q 260 42 244 164 q 347 15 297 33 l 344 -11 q 197 0 267 0 q 57 -8 128 0 l 53 18 q 135 46 94 36 q 147 264 147 140 l 147 522 q 114 1019 147 888 l 143 1028 q 175 954 156 983 q 324 988 251 967 l 331 963 q 265 922 304 942 q 244 451 244 808 l 250 450 q 373 584 297 515 q 510 674 449 653 q 619 597 594 674 q 636 464 636 543 q 636 436 636 451 l 629 46 q 704 35 663 35 l 704 6 q 517 -21 615 1 l 507 -15 q 533 374 529 119 q 535 404 535 388 z "},"i":{"ha":399,"x_min":67,"x_max":361,"o":"m 264 381 l 264 264 q 274 42 264 114 q 361 15 313 33 l 358 -11 q 211 0 281 0 q 71 -8 142 0 l 67 18 q 149 46 108 36 q 161 264 161 140 l 161 381 q 150 606 161 493 q 75 617 114 617 l 75 646 q 272 674 182 653 l 282 668 q 264 381 264 561 m 289 861 q 255 815 279 843 q 214 776 231 788 q 173 815 197 788 q 139 861 149 843 q 171 899 147 878 q 214 931 194 921 q 256 898 232 919 q 289 861 279 876 z "},"j":{"ha":404,"x_min":24,"x_max":286,"o":"m 157 74 l 157 264 q 146 606 157 493 q 71 617 110 617 l 71 646 q 268 674 178 653 l 278 668 q 257 326 257 546 q 267 0 257 106 q 44 -299 222 -151 l 24 -278 q 157 74 157 -115 m 286 861 q 252 815 276 843 q 211 776 228 788 q 170 815 194 788 q 136 861 146 843 q 168 899 144 878 q 211 931 192 921 q 253 898 229 919 q 286 861 276 876 z "},"k":{"ha":715,"x_min":60,"x_max":682,"o":"m 351 -11 q 204 0 274 0 q 64 -8 135 0 l 60 18 q 142 46 101 36 q 154 319 154 140 l 154 579 q 143 901 154 789 q 68 913 107 913 l 68 942 q 332 988 206 951 l 339 963 q 274 922 313 942 q 251 453 251 800 l 257 450 q 375 585 306 519 q 506 674 444 651 q 586 615 556 661 q 617 515 617 569 q 478 317 617 376 l 519 228 q 548 165 533 199 q 569 115 563 132 q 607 51 589 75 q 637 44 607 49 q 682 40 667 40 l 682 11 q 485 -17 586 7 l 472 -10 q 393 293 472 88 q 343 290 360 290 l 343 319 q 462 363 418 324 q 506 474 506 403 q 495 530 506 497 q 468 574 485 563 q 345 494 414 564 q 251 365 276 424 q 267 42 251 164 q 354 15 306 33 l 351 -11 z "},"l":{"ha":414,"x_min":60,"x_max":354,"o":"m 258 319 q 258 192 258 279 q 267 42 258 106 q 354 15 306 33 l 351 -11 q 204 0 274 0 q 64 -8 135 0 l 60 18 q 142 46 101 36 q 156 319 154 135 l 158 579 q 158 709 158 615 q 149 901 158 803 q 74 913 113 913 l 74 942 q 339 988 213 951 l 346 963 q 281 922 319 942 q 261 579 264 831 l 258 319 z "},"m":{"ha":1124,"x_min":53,"x_max":1075,"o":"m 1071 -8 q 958 0 1004 0 q 872 -3 911 0 l 872 17 q 899 374 893 125 q 899 396 899 385 q 840 560 899 560 q 718 492 790 560 q 621 365 646 424 l 615 43 q 711 15 663 33 l 708 -11 q 582 0 631 0 q 494 -3 533 0 l 494 17 q 521 374 515 125 q 521 396 521 385 q 463 560 521 560 q 341 492 413 560 q 244 365 269 424 q 260 42 244 164 q 347 15 297 33 l 344 -11 q 197 0 267 0 q 57 -8 128 0 l 53 18 q 135 46 94 36 q 147 264 147 140 l 147 381 q 138 607 147 508 q 63 618 104 618 l 63 647 q 250 674 151 651 l 260 668 q 244 451 244 572 l 250 450 q 367 584 294 515 q 497 674 439 653 q 622 451 622 674 l 628 450 q 744 584 672 515 q 875 674 817 653 q 1000 456 1000 674 q 1000 436 1000 446 l 993 46 q 1075 18 1033 36 l 1071 -8 z "},"n":{"ha":760,"x_min":53,"x_max":711,"o":"m 535 404 q 471 560 535 560 q 343 492 417 560 q 244 365 269 424 q 260 42 244 164 q 347 15 297 33 l 344 -11 q 197 0 267 0 q 57 -8 128 0 l 53 18 q 135 46 94 36 q 147 264 147 140 l 147 381 q 138 607 147 508 q 63 618 104 618 l 63 647 q 250 674 151 651 l 260 668 q 244 451 244 572 l 250 450 q 373 584 297 515 q 510 674 449 653 q 619 597 594 674 q 636 464 636 543 q 636 436 636 451 l 629 46 q 711 18 669 36 l 707 -8 q 594 0 640 0 q 506 -3 547 0 l 506 17 q 533 374 528 125 q 535 404 535 388 z "},"o":{"ha":678,"x_min":63,"x_max":615,"o":"m 339 -21 q 140 60 218 -21 q 63 274 63 142 q 142 523 63 406 q 353 674 222 640 q 549 599 482 674 q 615 392 615 524 q 538 143 615 260 q 339 -21 460 26 m 315 588 q 219 554 257 588 q 174 353 174 467 q 225 152 174 239 q 363 65 276 65 q 460 100 421 65 q 504 306 504 185 q 458 508 504 428 q 315 588 411 588 z "},"p":{"ha":713,"x_min":47,"x_max":643,"o":"m 643 408 q 565 144 643 264 q 357 -21 488 24 q 221 -7 282 -21 q 231 -231 221 -158 q 340 -267 293 -246 l 336 -294 q 191 -278 250 -278 q 53 -285 132 -278 l 47 -257 q 118 -232 89 -247 q 132 158 132 -112 l 132 385 q 122 607 132 526 q 47 618 89 618 l 47 647 q 235 674 136 651 l 244 668 q 229 451 229 572 l 235 450 q 350 585 283 519 q 476 674 417 650 q 598 589 553 674 q 643 408 643 504 m 532 346 q 508 487 532 414 q 438 560 483 560 q 319 490 389 560 q 229 365 250 421 q 239 99 229 158 q 381 65 313 65 q 486 99 450 65 q 532 346 532 204 z "},"q":{"ha":717,"x_min":69,"x_max":669,"o":"m 69 244 q 147 509 69 389 q 356 674 225 629 q 550 644 449 674 q 657 671 611 657 l 664 646 q 599 606 638 625 q 581 162 581 461 q 592 -226 581 -137 q 667 -243 638 -235 l 669 -269 q 394 -315 536 -278 l 385 -287 q 468 -247 450 -267 q 483 201 482 -117 l 478 203 q 363 68 429 133 q 236 -21 296 3 q 115 64 160 -21 q 69 244 69 149 m 181 307 q 205 166 181 239 q 275 93 229 93 q 393 163 324 93 q 483 288 463 232 q 474 554 483 494 q 331 588 400 588 q 226 554 263 588 q 181 307 181 449 z "},"r":{"ha":529,"x_min":53,"x_max":540,"o":"m 374 -11 q 219 0 303 0 q 57 -8 136 0 l 53 18 q 135 46 94 36 q 147 264 147 140 l 147 381 q 138 607 147 508 q 63 618 104 618 l 63 647 q 250 674 151 651 l 260 668 q 244 451 244 572 l 250 450 q 322 578 269 506 q 418 674 374 651 q 540 651 481 674 l 540 632 q 481 458 488 565 l 450 458 q 447 543 450 513 q 400 557 429 557 q 312 491 358 557 q 244 365 265 425 q 260 42 244 164 q 376 15 329 32 l 374 -11 z "},"s":{"ha":543,"x_min":39,"x_max":493,"o":"m 129 153 l 132 94 l 132 89 q 253 65 196 65 q 348 90 310 65 q 386 174 386 115 q 240 292 386 217 q 140 359 186 319 q 94 436 94 399 q 173 584 94 510 q 321 674 251 658 q 493 651 410 674 l 493 632 q 433 486 439 565 l 403 486 q 400 571 403 540 q 297 588 346 588 q 210 569 249 588 q 172 508 172 550 q 218 450 172 483 q 318 390 264 417 q 418 322 372 363 q 464 244 464 282 q 387 81 464 160 q 231 -21 310 3 q 39 8 131 -21 l 39 28 q 99 174 93 94 l 129 174 q 129 153 129 174 z "},"t":{"ha":478,"x_min":61,"x_max":450,"o":"m 236 271 q 278 79 236 79 q 436 153 354 79 l 450 139 q 254 -21 369 26 q 153 51 175 -21 q 133 263 133 113 q 133 319 133 289 l 139 596 l 64 596 l 61 599 q 65 629 61 621 q 218 788 182 706 q 257 792 235 792 l 263 789 q 246 654 249 706 l 440 661 l 446 656 q 428 590 436 631 q 242 594 357 594 l 236 319 q 236 271 236 294 z "},"u":{"ha":753,"x_min":49,"x_max":700,"o":"m 218 249 q 282 93 218 93 q 410 161 336 93 q 508 288 483 229 q 493 611 508 489 q 406 638 456 619 l 408 664 q 556 653 486 653 q 696 661 625 653 l 700 635 q 618 607 658 617 q 606 389 606 513 l 606 272 q 615 46 606 144 q 690 35 649 35 l 690 6 q 503 -21 601 1 l 493 -18 q 508 201 508 78 l 503 203 q 380 69 456 138 q 243 -21 304 0 q 133 56 158 -21 q 117 189 117 110 q 117 217 117 201 l 124 607 q 49 618 90 618 l 49 647 q 236 674 138 651 l 246 668 q 219 279 224 533 q 218 249 218 265 z "},"v":{"ha":665,"x_min":25,"x_max":671,"o":"m 615 549 q 542 267 615 418 q 365 11 468 117 q 283 -21 328 -7 q 172 219 222 -7 q 132 438 151 318 q 100 606 113 558 q 25 617 67 617 l 25 646 q 222 674 118 650 l 232 668 q 221 581 221 629 q 241 412 221 533 q 285 198 261 290 q 323 85 310 106 q 351 64 336 64 q 467 258 431 161 q 504 475 504 354 q 475 603 504 544 q 397 615 435 615 l 399 644 q 665 682 540 650 l 671 657 q 604 618 653 643 q 615 549 615 582 z "},"w":{"ha":1011,"x_min":25,"x_max":1011,"o":"m 956 549 q 885 267 956 418 q 715 11 814 117 q 638 -21 681 -7 q 522 261 574 -6 q 356 11 457 121 q 278 -21 321 -7 q 234 18 254 -15 q 185 162 214 51 q 135 415 157 272 q 100 606 113 558 q 25 617 67 617 l 25 646 q 222 674 118 650 l 232 668 q 221 581 221 629 q 240 412 221 533 q 282 198 260 290 q 317 85 304 106 q 343 64 329 64 q 451 258 417 161 q 485 454 485 354 q 460 606 485 554 q 385 617 426 617 l 385 646 q 588 640 467 640 q 1006 682 839 640 l 1011 657 q 944 618 993 643 q 956 549 956 582 m 738 615 q 581 588 625 615 q 600 412 581 533 q 642 198 619 290 q 676 85 664 106 q 703 64 689 64 q 810 258 776 161 q 844 475 844 354 q 815 603 844 544 q 738 615 775 615 z "},"x":{"ha":681,"x_min":14,"x_max":653,"o":"m 563 458 q 560 543 563 513 q 512 557 542 557 q 411 422 482 557 l 383 369 l 464 228 q 578 46 539 96 q 608 39 578 43 q 653 35 638 35 l 653 6 q 468 -21 565 1 l 457 -18 q 374 174 457 21 l 324 263 q 233 92 290 185 q 136 -21 175 -1 q 14 1 74 -21 l 14 21 q 74 194 67 88 l 104 194 q 107 110 104 140 q 155 96 125 96 q 272 263 185 96 l 297 311 l 239 417 q 118 606 186 507 q 43 617 85 617 l 43 646 q 240 674 136 650 l 250 668 q 263 597 250 629 q 329 468 275 565 l 358 417 q 446 577 397 499 q 531 674 494 656 q 653 651 593 674 l 653 632 q 593 458 600 565 l 563 458 z "},"y":{"ha":736,"x_min":53,"x_max":688,"o":"m 247 668 q 221 257 221 507 q 279 93 221 93 q 402 163 329 93 q 496 288 475 233 q 481 611 496 489 q 393 638 443 619 l 396 664 q 543 653 474 653 q 683 661 613 653 l 688 635 q 606 607 646 617 q 593 389 593 513 l 593 272 q 603 -47 593 51 q 492 -197 576 -124 q 324 -299 407 -269 q 90 -258 196 -299 l 90 -240 q 149 -85 142 -179 l 178 -85 q 181 -169 178 -139 q 358 -212 258 -212 q 449 -179 414 -212 q 488 -26 481 -94 q 496 201 496 43 l 490 203 q 375 70 449 140 q 243 -21 301 0 q 139 56 163 -21 q 121 189 121 110 q 121 217 121 201 l 128 607 q 53 618 94 618 l 53 647 q 238 674 140 651 l 247 668 z "},"z":{"ha":572,"x_min":10,"x_max":565,"o":"m 536 175 q 521 76 521 121 q 531 -10 521 31 l 514 -21 q 117 43 300 43 q 33 -21 74 19 l 10 0 q 111 125 54 44 l 401 535 l 313 539 q 172 543 210 543 q 122 542 135 543 q 71 474 94 514 l 44 489 q 94 664 85 563 l 113 674 q 179 651 147 657 q 322 636 211 644 l 472 624 q 542 674 515 647 l 565 653 q 464 528 507 594 l 197 124 l 200 118 q 238 132 221 128 q 475 104 357 132 q 507 185 489 135 l 536 175 z "},"{":{"ha":417,"x_min":61,"x_max":317,"o":"m 311 -299 q 184 -221 244 -279 q 124 -99 124 -162 q 142 80 124 -35 q 161 260 161 194 q 67 328 161 310 l 61 354 q 161 429 161 376 q 142 610 161 494 q 124 788 124 725 q 184 910 124 851 q 311 988 244 968 l 317 968 q 246 913 279 949 q 200 839 213 876 q 231 643 200 774 q 263 457 263 513 q 136 347 243 410 l 136 342 q 263 232 243 279 q 231 46 263 176 q 200 -150 200 -85 q 246 -224 213 -187 q 317 -279 279 -260 l 311 -299 z "},"|":{"ha":331,"x_min":124,"x_max":203,"o":"m 200 -276 q 143 -300 175 -290 l 133 -296 q 124 1004 133 661 q 196 1042 171 1024 l 203 1040 q 200 -276 200 843 z "},"}":{"ha":400,"x_min":100,"x_max":356,"o":"m 106 988 q 233 910 172 968 q 293 788 293 851 q 274 610 293 725 q 256 429 256 494 q 356 354 256 376 l 350 328 q 256 260 256 310 q 274 80 256 194 q 293 -99 293 -35 q 233 -221 293 -162 q 106 -299 172 -279 l 100 -279 q 171 -224 138 -260 q 217 -150 204 -187 q 185 46 217 -85 q 154 232 154 176 q 281 342 174 279 l 281 347 q 154 457 174 410 q 185 643 154 513 q 217 839 217 774 q 171 913 204 876 q 100 968 138 949 l 106 988 z "},"~":{"ha":819,"x_min":69,"x_max":750,"o":"m 561 358 q 725 439 657 358 l 750 424 q 661 324 722 371 q 540 261 600 278 q 388 307 494 261 q 235 353 281 353 q 94 278 143 353 l 69 293 q 166 399 100 350 q 293 456 232 449 q 426 387 353 415 q 561 358 500 358 z "}," ":{"ha":250,"x_min":0,"x_max":0,"o":""},"¡":{"ha":314,"x_min":63,"x_max":242,"o":"m 92 606 q 125 642 101 621 q 167 675 149 664 q 210 644 186 665 q 242 606 233 622 q 208 560 232 588 q 167 521 183 532 q 126 560 150 532 q 92 606 101 588 m 214 -254 q 164 -270 197 -262 q 120 -278 131 -278 q 107 -278 110 -278 q 63 -222 92 -264 q 149 415 128 -4 l 185 418 l 214 -254 z "},"¢":{"ha":625,"x_min":106,"x_max":554,"o":"m 367 100 q 525 174 443 100 l 539 160 q 363 8 467 57 l 361 -128 l 354 -128 q 317 -107 332 -121 l 325 0 q 159 81 213 6 q 106 286 106 157 q 172 526 106 415 q 347 681 238 636 l 353 817 q 392 825 374 819 l 397 821 q 386 694 390 774 q 554 672 471 694 l 554 653 q 494 507 500 586 l 464 507 q 461 592 464 561 q 383 607 408 606 l 365 100 l 367 100 m 269 136 q 328 104 293 113 l 344 608 q 257 575 292 606 q 217 340 217 490 q 269 136 217 189 z "},"£":{"ha":625,"x_min":36,"x_max":611,"o":"m 144 189 l 138 335 l 138 336 l 83 332 l 71 340 l 79 404 l 143 404 q 240 620 163 524 q 433 747 318 717 q 611 725 529 747 l 611 706 q 551 549 560 642 l 521 549 q 517 638 521 606 q 397 657 458 657 q 294 621 336 657 q 251 407 251 531 q 451 424 331 410 l 463 417 l 454 358 l 249 343 q 181 122 239 208 l 185 118 q 222 132 206 128 q 244 132 233 132 q 506 103 374 132 q 538 183 519 133 l 567 174 q 551 74 551 119 q 561 -11 551 29 l 544 -22 q 143 42 331 42 q 60 -22 100 18 l 36 -1 q 136 122 88 50 q 144 189 144 151 z "},"¤":{"ha":788,"x_min":44,"x_max":781,"o":"m 597 676 l 704 789 q 778 767 763 769 l 781 761 l 643 632 q 689 486 689 574 q 610 275 689 363 q 781 115 728 163 l 778 110 q 704 88 763 107 l 564 233 q 401 161 493 179 q 211 211 288 161 l 85 88 l 78 88 q 44 153 51 117 q 160 257 79 182 q 113 397 113 315 q 185 599 113 514 q 44 724 108 668 q 78 789 51 760 l 85 789 l 231 644 q 418 726 308 707 q 597 676 524 726 m 588 434 q 588 484 588 434 q 535 592 588 533 q 390 651 482 651 q 258 615 299 651 q 214 454 214 553 q 267 296 214 356 q 411 236 319 236 q 543 272 503 236 q 588 434 588 335 z "},"¥":{"ha":625,"x_min":-29,"x_max":649,"o":"m -26 735 q 126 726 57 726 q 279 742 196 726 l 286 714 q 217 685 242 700 q 346 376 235 603 q 465 682 465 610 q 447 726 465 708 l 451 736 q 549 726 492 726 q 646 732 607 726 l 649 701 q 574 683 600 696 l 374 342 l 374 340 l 435 343 q 551 350 522 347 q 564 307 557 322 l 564 300 l 374 297 q 375 229 374 250 l 435 232 q 551 239 522 236 q 564 196 557 211 l 564 189 l 376 186 q 389 42 378 118 q 476 15 428 33 l 474 -11 q 326 0 396 0 q 186 -8 257 0 l 182 18 q 264 46 224 36 q 274 183 269 93 l 258 183 q 94 171 158 181 l 90 176 q 100 221 99 204 l 275 226 l 276 294 l 258 294 q 94 282 158 292 l 90 288 q 100 332 99 315 l 264 338 q 82 676 144 585 q -29 707 15 689 l -26 735 z "},"¦":{"ha":340,"x_min":131,"x_max":210,"o":"m 207 472 q 150 449 182 458 l 140 453 q 131 1007 139 706 q 203 1044 178 1026 l 210 1043 q 207 472 207 846 m 207 -275 q 150 -299 182 -289 l 140 -294 q 131 260 139 -42 q 203 297 178 279 l 210 296 q 207 -275 207 99 z "},"§":{"ha":649,"x_min":25,"x_max":615,"o":"m 482 200 q 507 280 507 233 q 467 372 507 326 q 369 459 426 417 q 256 546 313 501 q 118 743 118 653 q 228 852 150 794 q 365 925 307 910 q 538 903 454 925 l 538 883 q 478 738 483 817 l 447 738 q 444 822 447 792 q 335 839 390 839 q 249 807 281 839 q 239 760 239 790 q 294 656 239 711 q 416 558 349 600 q 544 459 483 515 q 615 356 606 403 q 567 267 604 321 q 501 182 531 213 l 482 200 m 174 14 l 176 -44 l 176 -50 q 300 -74 240 -74 q 392 -42 360 -74 q 401 6 401 -25 q 347 110 401 54 q 224 208 292 165 q 96 306 157 250 q 25 410 35 363 q 73 499 36 444 q 139 583 110 553 l 158 565 q 133 485 133 532 q 174 394 133 439 q 271 306 214 349 q 385 219 328 264 q 522 22 522 113 q 412 -87 490 -29 q 275 -160 333 -144 q 83 -131 175 -160 l 83 -111 q 143 35 138 -44 l 174 35 q 174 14 174 35 z "},"¨":{"ha":407,"x_min":0,"x_max":407,"o":"m 150 861 q 116 815 140 843 q 75 776 92 788 q 34 815 58 788 q 0 861 10 843 q 32 899 8 878 q 75 931 56 921 q 117 898 93 919 q 150 861 140 876 m 407 861 q 373 815 397 843 q 332 776 349 788 q 291 815 315 788 q 257 861 267 843 q 289 899 265 878 q 332 931 313 921 q 374 898 350 919 q 407 861 397 876 z "},"©":{"ha":1063,"x_min":58,"x_max":1004,"o":"m 408 465 q 408 414 408 465 q 435 304 408 363 q 534 246 463 246 q 672 307 606 246 l 689 289 q 519 165 628 213 q 363 228 415 165 q 310 399 310 290 q 377 606 310 508 q 544 738 444 703 q 711 719 632 738 l 710 696 q 676 686 686 693 q 647 571 654 638 l 622 571 q 613 644 613 613 q 526 665 574 665 q 447 643 479 665 q 408 465 408 568 m 197 117 q 127 186 197 117 q 58 451 58 256 q 197 786 58 647 q 531 925 335 925 q 865 786 726 925 q 1004 451 1004 647 q 865 117 1004 256 q 531 -21 726 -21 q 197 117 335 -21 m 240 744 q 180 683 240 744 q 119 451 119 622 q 240 159 119 281 q 531 38 360 38 q 822 159 701 38 q 943 451 943 281 q 822 744 943 622 q 531 867 701 867 q 240 744 360 867 z "},"ª":{"ha":569,"x_min":53,"x_max":544,"o":"m 53 575 q 118 790 53 692 q 292 925 183 888 q 454 901 369 925 q 482 961 472 929 l 506 954 q 481 659 481 835 q 489 417 481 483 q 544 407 510 407 l 544 382 q 389 360 479 379 l 381 364 q 393 540 393 438 l 389 540 q 295 432 349 485 q 194 360 242 379 q 91 428 129 360 q 53 575 53 496 m 151 626 q 170 514 151 572 q 225 456 189 456 q 319 510 264 456 q 393 610 375 565 q 385 825 393 775 q 275 853 333 853 q 188 825 217 853 q 151 626 151 740 z "},"«":{"ha":574,"x_min":29,"x_max":535,"o":"m 154 393 l 304 174 l 276 154 q 29 374 147 303 l 29 401 q 276 610 161 474 l 303 592 l 154 393 m 399 396 l 535 197 l 507 178 q 274 376 381 311 l 274 404 q 507 592 413 481 l 533 574 l 399 396 z "},"¬":{"ha":764,"x_min":71,"x_max":693,"o":"m 621 331 l 82 331 l 71 340 l 83 411 q 471 399 318 399 q 678 403 624 399 l 686 394 q 693 122 686 306 l 686 114 l 621 126 l 621 331 z "},"®":{"ha":603,"x_min":29,"x_max":574,"o":"m 108 501 q 69 541 108 501 q 29 694 29 581 q 108 888 29 808 q 301 967 188 967 q 494 888 415 967 q 574 694 574 808 q 494 501 574 581 q 301 422 415 422 q 108 501 188 422 m 144 853 q 111 821 144 853 q 79 694 79 789 q 144 535 79 600 q 301 469 208 469 q 458 535 394 469 q 521 694 521 600 q 458 853 521 789 q 301 917 394 917 q 144 853 208 917 m 179 840 l 304 844 q 381 831 354 844 q 407 772 407 818 q 356 706 407 726 l 415 583 l 443 576 l 443 561 q 385 565 414 565 q 333 563 356 565 l 331 572 q 339 603 339 579 q 303 699 339 626 q 282 703 292 703 l 283 718 l 289 718 q 343 772 343 718 q 297 819 343 819 q 274 815 285 819 q 272 696 272 789 q 276 583 272 603 l 307 576 l 306 561 q 240 565 274 565 q 174 561 207 565 l 174 576 q 208 583 190 581 q 214 714 214 639 q 210 818 214 789 q 179 824 193 824 l 179 840 z "},"¯":{"ha":381,"x_min":0,"x_max":381,"o":"m 75 886 q 225 882 143 882 q 369 888 307 882 l 381 881 l 368 817 l 13 813 l 0 821 l 13 890 l 75 886 z "},"°":{"ha":510,"x_min":63,"x_max":447,"o":"m 256 550 q 118 591 174 550 q 63 712 63 632 q 120 851 63 792 q 267 926 178 911 q 397 885 347 926 q 447 763 447 843 q 394 626 447 683 q 256 550 342 568 m 368 732 q 368 764 368 732 q 336 834 368 796 q 249 872 304 872 q 168 849 193 872 q 142 745 142 808 q 174 643 142 682 q 262 604 207 604 q 342 628 317 604 q 368 732 368 668 z "},"±":{"ha":764,"x_min":69,"x_max":696,"o":"m 415 371 q 428 125 415 257 l 364 113 l 350 122 l 350 371 l 92 371 l 81 381 l 93 451 q 350 442 263 443 l 350 661 l 415 674 l 422 665 q 415 442 415 543 l 415 440 q 550 439 467 439 q 688 443 633 439 l 696 435 l 683 371 l 415 371 m 82 81 q 470 68 318 68 q 676 72 622 68 l 685 64 l 672 0 l 81 0 l 69 10 l 82 81 z "},"²":{"ha":517,"x_min":44,"x_max":458,"o":"m 199 586 q 267 588 218 588 q 407 575 317 588 q 435 640 421 601 l 458 632 q 446 554 446 590 q 454 481 446 518 l 440 471 q 104 513 240 513 q 68 471 85 493 l 44 482 q 142 609 69 533 q 267 754 214 685 q 321 872 321 824 q 224 964 321 964 q 153 949 185 964 q 146 910 146 932 q 157 882 146 889 l 157 874 q 101 828 140 864 q 69 861 69 831 q 131 965 69 913 q 256 1036 193 1017 q 390 992 347 1036 q 433 856 433 947 q 169 581 328 718 l 172 576 q 199 586 188 583 z "},"³":{"ha":464,"x_min":42,"x_max":422,"o":"m 108 639 q 110 581 108 601 q 226 543 176 543 q 290 560 276 543 q 303 644 303 592 q 270 734 303 697 q 174 771 238 771 l 169 776 l 288 942 l 285 946 q 258 936 269 939 q 126 943 196 936 q 104 885 113 918 l 81 893 q 88 964 88 932 q 78 1026 88 996 l 90 1035 q 372 1010 210 1010 q 404 1035 392 1021 l 422 1019 q 257 833 393 993 q 401 642 401 807 q 331 540 383 590 q 222 471 278 490 q 42 507 124 471 l 42 524 q 83 639 74 568 l 108 639 z "},"´":{"ha":278,"x_min":0,"x_max":278,"o":"m 183 964 q 213 965 197 965 q 243 963 229 965 q 265 923 253 951 q 278 881 276 894 l 15 729 l 0 754 q 101 847 51 789 q 183 964 150 906 z "},"µ":{"ha":735,"x_min":96,"x_max":683,"o":"m 626 667 q 599 358 599 571 q 608 46 599 144 q 683 35 642 35 l 683 6 q 496 -21 594 1 l 486 -18 q 501 201 501 78 l 496 203 q 375 67 449 136 q 240 -21 301 -1 q 189 -1 206 -21 q 218 -272 189 -147 l 214 -276 q 108 -304 153 -287 l 96 -294 q 122 199 108 -207 l 128 460 q 128 533 128 475 q 119 649 128 590 l 125 653 q 253 674 204 661 l 261 667 q 213 239 213 468 q 242 106 213 128 q 279 93 256 93 q 404 160 332 93 q 501 288 476 228 q 482 653 501 550 q 618 674 565 661 l 626 667 z "},"¶":{"ha":797,"x_min":-7,"x_max":768,"o":"m 440 451 l 440 251 q 378 -71 440 19 q 304 -134 353 -108 q 189 -160 256 -160 q 160 -149 172 -160 q 146 -122 147 -139 q 204 -53 183 -87 l 214 -51 q 271 -65 229 -65 q 332 -56 313 -65 q 371 182 371 50 l 371 411 q 324 410 354 410 q 85 499 178 410 q -7 689 -7 588 q 64 852 -7 790 q 272 914 135 914 q 463 904 294 914 l 463 894 q 440 451 440 738 m 489 4 q 508 126 503 49 q 513 487 513 203 q 529 901 513 771 q 718 896 589 896 l 768 896 l 768 861 q 632 839 699 861 q 617 438 617 710 q 633 53 617 167 q 767 24 704 43 l 761 -11 q 598 0 676 0 q 492 -1 519 0 l 489 4 z "},"·":{"ha":294,"x_min":72,"x_max":222,"o":"m 222 394 q 188 349 213 376 q 147 310 164 321 q 106 349 131 321 q 72 394 82 376 q 104 433 81 411 q 147 464 128 454 q 189 431 165 453 q 222 394 213 410 z "},"¸":{"ha":256,"x_min":0,"x_max":256,"o":"m 122 -247 q 158 -240 147 -247 q 171 -197 171 -222 q 56 -135 171 -135 l 47 -129 l 100 19 l 140 22 l 107 -64 l 113 -68 q 216 -97 176 -68 q 256 -185 256 -126 q 199 -253 236 -222 q 122 -299 163 -285 q 0 -269 61 -299 q 22 -215 14 -243 l 28 -212 q 122 -247 72 -247 z "},"¹":{"ha":421,"x_min":94,"x_max":346,"o":"m 185 704 l 185 797 q 181 924 185 858 l 97 924 l 94 926 q 97 950 94 942 q 250 1033 197 978 q 286 1036 267 1036 l 290 1033 q 275 797 275 921 l 275 704 q 283 528 275 592 q 346 504 318 517 l 342 481 q 224 489 286 489 q 107 479 161 489 l 104 503 q 174 525 139 518 q 185 704 185 621 z "},"º":{"ha":549,"x_min":44,"x_max":504,"o":"m 275 360 q 110 426 175 360 q 44 600 44 493 q 111 802 44 707 q 286 925 178 897 q 449 864 393 925 q 504 696 504 803 q 440 494 504 589 q 275 360 375 400 m 256 851 q 181 825 208 851 q 143 661 143 751 q 184 503 143 571 q 294 435 225 435 q 369 463 339 435 q 406 626 406 528 q 368 788 406 724 q 256 851 331 851 z "},"»":{"ha":574,"x_min":39,"x_max":544,"o":"m 269 174 l 419 393 l 274 592 l 297 610 q 544 401 413 474 l 544 374 q 297 154 426 303 l 269 174 m 39 197 l 175 396 l 43 574 l 67 592 q 300 404 161 481 l 300 376 q 67 178 193 311 l 39 197 z "},"¼":{"ha":1153,"x_min":94,"x_max":1124,"o":"m 1013 365 l 1013 217 q 1104 261 1089 217 l 1124 256 q 1117 194 1117 221 q 1117 154 1117 167 l 1111 151 q 1014 154 1078 154 q 1021 57 1014 92 q 1083 35 1039 47 l 1079 10 q 956 18 1024 18 q 842 7 888 18 l 839 31 q 914 54 876 47 q 921 154 921 94 l 658 154 l 653 171 q 918 540 843 393 q 1017 564 968 546 l 1025 561 q 1013 365 1013 494 m 210 -58 l 203 -57 q 163 -1 179 -37 q 336 222 292 163 l 689 710 q 872 978 771 824 q 946 968 903 971 l 951 964 q 763 708 907 908 l 210 -58 m 185 593 l 185 686 q 181 813 185 747 l 97 813 l 94 815 q 97 839 94 831 q 250 922 197 867 q 286 925 267 925 l 290 922 q 275 686 275 810 l 275 593 q 283 417 275 481 q 346 393 318 406 l 342 369 q 224 378 286 378 q 107 368 161 378 l 104 392 q 174 414 139 407 q 185 593 185 510 m 917 460 q 771 226 871 363 q 921 218 832 218 l 924 460 l 917 460 z "},"½":{"ha":1153,"x_min":94,"x_max":1093,"o":"m 210 -58 l 203 -57 q 163 -1 179 -37 q 336 222 292 163 l 689 710 q 872 978 771 824 q 946 968 903 971 l 951 964 q 763 708 907 908 l 210 -58 m 185 593 l 185 686 q 181 813 185 747 l 97 813 l 94 815 q 97 839 94 831 q 250 922 197 867 q 286 925 267 925 l 290 922 q 275 686 275 810 l 275 593 q 283 417 275 481 q 346 393 318 406 l 342 369 q 224 378 286 378 q 107 368 161 378 l 104 392 q 174 414 139 407 q 185 593 185 510 m 833 115 q 903 117 854 117 q 1042 104 953 117 q 1069 169 1056 131 l 1093 161 q 1081 83 1081 119 q 1089 10 1081 47 l 1075 0 q 739 42 875 42 q 703 0 719 22 l 679 11 q 776 138 704 63 q 902 283 849 214 q 956 403 956 353 q 858 493 956 493 q 788 478 819 493 q 781 440 781 461 q 792 411 781 418 l 792 403 q 736 357 775 393 q 704 390 704 360 q 766 494 704 442 q 890 565 828 546 q 1025 521 982 565 q 1068 385 1068 476 q 804 110 963 247 l 807 106 q 833 115 822 113 z "},"¾":{"ha":1153,"x_min":42,"x_max":1124,"o":"m 1013 365 l 1013 217 q 1104 261 1089 217 l 1124 256 q 1117 194 1117 221 q 1117 154 1117 167 l 1111 151 q 1014 154 1078 154 q 1021 57 1014 92 q 1083 35 1039 47 l 1079 10 q 956 18 1024 18 q 842 7 888 18 l 839 31 q 914 54 876 47 q 921 154 921 94 l 658 154 l 653 171 q 918 540 843 393 q 1017 564 968 546 l 1025 561 q 1013 365 1013 494 m 108 528 q 110 469 108 490 q 226 432 176 432 q 290 449 276 432 q 303 533 303 481 q 270 623 303 586 q 174 660 238 660 l 169 665 l 288 831 l 285 835 q 258 825 269 828 q 126 832 196 825 q 104 774 113 807 l 81 782 q 88 853 88 821 q 78 915 88 885 l 90 924 q 372 899 210 899 q 404 924 392 910 l 422 908 q 257 722 393 882 q 401 531 401 696 q 331 429 383 479 q 222 360 278 379 q 42 396 124 360 l 42 413 q 83 528 74 457 l 108 528 m 210 -58 l 203 -57 q 163 -1 179 -37 q 336 222 292 163 l 689 710 q 872 978 771 824 q 946 968 903 971 l 951 964 q 763 708 907 908 l 210 -58 m 917 460 q 771 226 871 363 q 921 218 832 218 l 924 460 l 917 460 z "},"¿":{"ha":465,"x_min":0,"x_max":442,"o":"m 178 606 q 211 642 188 621 q 253 675 235 664 q 296 644 272 665 q 328 606 319 622 q 294 560 318 588 q 253 521 269 532 q 212 560 236 532 q 178 606 188 588 m 133 -110 q 167 -187 133 -161 q 251 -212 200 -212 q 342 -193 303 -212 q 351 -149 351 -176 q 338 -108 351 -121 l 339 -99 q 406 -43 375 -76 q 432 -56 422 -44 q 442 -83 442 -68 q 367 -212 442 -147 q 217 -299 293 -276 q 52 -244 104 -299 q 0 -78 0 -190 q 219 179 88 47 q 235 415 229 303 l 271 418 l 300 225 l 300 199 q 133 -110 133 32 z "},"À":{"ha":832,"x_min":-75,"x_max":822,"o":"m 136 919 q 467 904 294 904 q 797 919 639 904 l 803 885 q 669 856 740 865 q 651 452 651 722 q 669 49 651 182 q 822 22 743 42 l 818 -11 q 595 0 715 0 q 401 -11 475 0 l 396 24 q 529 53 458 43 q 544 349 540 144 q 385 357 472 357 q 239 349 299 357 q 206 131 206 213 q 265 14 206 49 l 260 -6 q 115 0 217 0 q -69 -11 13 0 l -75 24 q 58 53 -12 43 l 286 860 q 132 886 208 868 l 136 919 m 254 418 q 402 408 317 408 q 544 418 488 408 q 531 849 544 754 q 445 853 488 853 q 358 849 403 853 l 254 418 m 514 1015 l 228 1119 q 234 1163 226 1133 q 249 1206 242 1193 q 307 1218 276 1215 q 525 1043 411 1093 l 514 1015 z "},"Á":{"ha":832,"x_min":-75,"x_max":822,"o":"m 136 919 q 467 904 294 904 q 797 919 639 904 l 803 885 q 669 856 740 865 q 651 452 651 722 q 669 49 651 182 q 822 22 743 42 l 818 -11 q 595 0 715 0 q 401 -11 475 0 l 396 24 q 529 53 458 43 q 544 349 540 144 q 385 357 472 357 q 239 349 299 357 q 206 131 206 213 q 265 14 206 49 l 260 -6 q 115 0 217 0 q -69 -11 13 0 l -75 24 q 58 53 -12 43 l 286 860 q 132 886 208 868 l 136 919 m 254 418 q 402 408 317 408 q 544 418 488 408 q 531 849 544 754 q 445 853 488 853 q 358 849 403 853 l 254 418 m 735 1107 l 449 1003 l 438 1031 q 656 1206 551 1081 q 714 1193 686 1203 q 728 1151 721 1181 q 735 1107 736 1121 z "},"Â":{"ha":832,"x_min":-75,"x_max":822,"o":"m 136 919 q 467 904 294 904 q 797 919 639 904 l 803 885 q 669 856 740 865 q 651 452 651 722 q 669 49 651 182 q 822 22 743 42 l 818 -11 q 595 0 715 0 q 401 -11 475 0 l 396 24 q 529 53 458 43 q 544 349 540 144 q 385 357 472 357 q 239 349 299 357 q 206 131 206 213 q 265 14 206 49 l 260 -6 q 115 0 217 0 q -69 -11 13 0 l -75 24 q 58 53 -12 43 l 286 860 q 132 886 208 868 l 136 919 m 254 418 q 402 408 317 408 q 544 418 488 408 q 531 849 544 754 q 445 853 488 853 q 358 849 403 853 l 254 418 m 707 993 l 483 1097 l 260 993 l 246 1019 q 469 1229 374 1100 l 497 1229 q 721 1019 593 1100 l 707 993 z "},"Ã":{"ha":832,"x_min":-75,"x_max":822,"o":"m 136 919 q 467 904 294 904 q 797 919 639 904 l 803 885 q 669 856 740 865 q 651 452 651 722 q 669 49 651 182 q 822 22 743 42 l 818 -11 q 595 0 715 0 q 401 -11 475 0 l 396 24 q 529 53 458 43 q 544 349 540 144 q 385 357 472 357 q 239 349 299 357 q 206 131 206 213 q 265 14 206 49 l 260 -6 q 115 0 217 0 q -69 -11 13 0 l -75 24 q 58 53 -12 43 l 286 860 q 132 886 208 868 l 136 919 m 254 418 q 402 408 317 408 q 544 418 488 408 q 531 849 544 754 q 445 853 488 853 q 358 849 403 853 l 254 418 m 432 1163 q 587 1119 514 1119 q 688 1153 660 1119 l 713 1138 q 568 1024 635 1053 q 467 1045 539 1024 q 367 1067 396 1067 q 279 1033 307 1067 l 254 1049 q 432 1163 332 1133 z "},"Ä":{"ha":832,"x_min":-75,"x_max":822,"o":"m 136 919 q 467 904 294 904 q 797 919 639 904 l 803 885 q 669 856 740 865 q 651 452 651 722 q 669 49 651 182 q 822 22 743 42 l 818 -11 q 595 0 715 0 q 401 -11 475 0 l 396 24 q 529 53 458 43 q 544 349 540 144 q 385 357 472 357 q 239 349 299 357 q 206 131 206 213 q 265 14 206 49 l 260 -6 q 115 0 217 0 q -69 -11 13 0 l -75 24 q 58 53 -12 43 l 286 860 q 132 886 208 868 l 136 919 m 254 418 q 402 408 317 408 q 544 418 488 408 q 531 849 544 754 q 445 853 488 853 q 358 849 403 853 l 254 418 m 431 1115 q 397 1069 421 1097 q 356 1031 372 1042 q 315 1069 339 1042 q 281 1115 290 1097 q 313 1153 289 1132 q 356 1185 336 1175 q 397 1152 374 1174 q 431 1115 421 1131 m 688 1115 q 653 1069 678 1097 q 613 1031 629 1042 q 572 1069 596 1042 q 538 1115 547 1097 q 569 1153 546 1132 q 613 1185 593 1175 q 654 1152 631 1174 q 688 1115 678 1131 z "},"Å":{"ha":832,"x_min":-75,"x_max":822,"o":"m 136 919 q 467 904 294 904 q 797 919 639 904 l 803 885 q 669 856 740 865 q 651 452 651 722 q 669 49 651 182 q 822 22 743 42 l 818 -11 q 595 0 715 0 q 401 -11 475 0 l 396 24 q 529 53 458 43 q 544 349 540 144 q 385 357 472 357 q 239 349 299 357 q 206 131 206 213 q 265 14 206 49 l 260 -6 q 115 0 217 0 q -69 -11 13 0 l -75 24 q 58 53 -12 43 l 286 860 q 132 886 208 868 l 136 919 m 254 418 q 402 408 317 408 q 544 418 488 408 q 531 849 544 754 q 445 853 488 853 q 358 849 403 853 l 254 418 m 472 978 q 376 1004 415 978 q 338 1083 338 1031 q 378 1176 338 1135 q 479 1229 419 1217 q 606 1126 606 1229 q 569 1034 606 1072 q 472 978 532 996 m 540 1099 q 540 1117 540 1099 q 519 1158 540 1136 q 465 1181 497 1181 q 418 1168 433 1181 q 403 1108 403 1144 q 425 1049 403 1072 q 479 1026 447 1026 q 525 1039 511 1026 q 540 1099 540 1061 z "},"Æ":{"ha":1039,"x_min":-89,"x_max":1010,"o":"m 186 919 q 595 904 374 904 q 1004 919 817 904 l 1010 892 q 928 672 938 818 l 893 672 q 881 824 881 732 q 742 853 821 853 q 625 846 664 853 q 590 507 601 774 q 697 497 635 497 q 849 557 821 497 l 876 551 q 864 445 864 507 q 872 324 864 383 l 840 318 q 813 442 819 371 q 699 446 761 446 q 589 439 636 446 l 589 379 q 622 172 589 247 q 778 89 658 89 q 983 197 878 89 l 1003 179 q 749 -21 888 26 q 535 74 594 -21 q 475 335 475 168 q 475 350 475 342 l 476 438 q 369 446 432 446 q 271 438 306 446 l 251 374 q 199 122 199 199 q 251 14 199 44 l 246 -6 q 101 0 203 0 q -83 -11 -1 0 l -89 24 q 44 53 -26 43 l 336 860 q 182 886 257 868 l 186 919 m 296 506 q 386 497 328 497 q 479 507 444 497 q 491 710 488 660 q 494 793 494 760 q 490 849 494 826 q 446 853 472 853 q 396 849 419 853 l 296 506 z "},"Ç":{"ha":692,"x_min":58,"x_max":721,"o":"m 422 89 q 301 119 351 89 q 182 471 182 193 q 253 778 182 657 q 403 828 313 828 q 560 793 494 828 q 572 664 560 719 l 607 664 q 653 856 618 774 q 719 868 683 868 l 721 899 q 435 925 575 925 q 160 719 263 878 q 58 374 58 560 q 142 84 58 189 q 393 -21 226 -21 q 668 179 553 32 l 649 197 q 422 89 535 89 m 365 -247 q 401 -240 390 -247 q 414 -197 414 -222 q 299 -135 414 -135 l 290 -129 l 343 19 l 383 22 l 350 -64 l 356 -68 q 459 -97 419 -68 q 499 -185 499 -126 q 442 -253 479 -222 q 365 -299 406 -285 q 243 -269 304 -299 q 265 -215 257 -243 l 271 -212 q 365 -247 315 -247 z "},"È":{"ha":711,"x_min":58,"x_max":721,"o":"m 422 89 q 649 197 535 89 l 668 179 q 393 -21 553 32 q 142 84 226 -21 q 58 374 58 189 q 160 719 58 560 q 435 925 263 878 q 721 899 575 925 l 719 868 q 653 856 683 868 q 607 664 618 774 l 572 664 q 560 793 560 719 q 403 828 494 828 q 253 778 313 828 q 183 518 190 671 q 339 507 243 507 q 522 567 493 507 l 550 561 q 538 456 538 517 q 546 333 538 394 l 514 328 q 486 451 493 381 q 335 456 433 456 q 182 449 238 456 q 306 117 186 188 q 422 89 353 89 m 503 1015 l 217 1119 q 223 1163 215 1133 q 238 1206 231 1193 q 296 1218 265 1215 q 514 1043 400 1093 l 503 1015 z "},"É":{"ha":711,"x_min":58,"x_max":721,"o":"m 422 89 q 649 197 535 89 l 668 179 q 393 -21 553 32 q 142 84 226 -21 q 58 374 58 189 q 160 719 58 560 q 435 925 263 878 q 721 899 575 925 l 719 868 q 653 856 683 868 q 607 664 618 774 l 572 664 q 560 793 560 719 q 403 828 494 828 q 253 778 313 828 q 183 518 190 671 q 339 507 243 507 q 522 567 493 507 l 550 561 q 538 456 538 517 q 546 333 538 394 l 514 328 q 486 451 493 381 q 335 456 433 456 q 182 449 238 456 q 306 117 186 188 q 422 89 353 89 m 633 1107 l 347 1003 l 336 1031 q 554 1206 450 1081 q 613 1193 585 1203 q 627 1151 619 1181 q 633 1107 635 1121 z "},"Ê":{"ha":711,"x_min":58,"x_max":721,"o":"m 422 89 q 649 197 535 89 l 668 179 q 393 -21 553 32 q 142 84 226 -21 q 58 374 58 189 q 160 719 58 560 q 435 925 263 878 q 721 899 575 925 l 719 868 q 653 856 683 868 q 607 664 618 774 l 572 664 q 560 793 560 719 q 403 828 494 828 q 253 778 313 828 q 183 518 190 671 q 339 507 243 507 q 522 567 493 507 l 550 561 q 538 456 538 517 q 546 333 538 394 l 514 328 q 486 451 493 381 q 335 456 433 456 q 182 449 238 456 q 306 117 186 188 q 422 89 353 89 m 656 993 l 432 1097 l 208 993 l 194 1019 q 418 1229 322 1100 l 446 1229 q 669 1019 542 1100 l 656 993 z "},"Ë":{"ha":711,"x_min":58,"x_max":721,"o":"m 422 89 q 649 197 535 89 l 668 179 q 393 -21 553 32 q 142 84 226 -21 q 58 374 58 189 q 160 719 58 560 q 435 925 263 878 q 721 899 575 925 l 719 868 q 653 856 683 868 q 607 664 618 774 l 572 664 q 560 793 560 719 q 403 828 494 828 q 253 778 313 828 q 183 518 190 671 q 339 507 243 507 q 522 567 493 507 l 550 561 q 538 456 538 517 q 546 333 538 394 l 514 328 q 486 451 493 381 q 335 456 433 456 q 182 449 238 456 q 306 117 186 188 q 422 89 353 89 m 378 1115 q 344 1069 368 1097 q 303 1031 319 1042 q 262 1069 286 1042 q 228 1115 238 1097 q 260 1153 236 1132 q 303 1185 283 1175 q 344 1152 321 1174 q 378 1115 368 1131 m 635 1115 q 601 1069 625 1097 q 560 1031 576 1042 q 519 1069 543 1042 q 485 1115 494 1097 q 517 1153 493 1132 q 560 1185 540 1175 q 601 1152 578 1174 q 635 1115 625 1131 z "},"Ì":{"ha":468,"x_min":29,"x_max":458,"o":"m 303 856 q 288 467 288 751 q 306 49 288 182 q 458 22 379 42 l 454 -11 q 231 0 351 0 q 38 -11 111 0 l 32 24 q 165 53 94 43 q 181 411 181 167 l 181 493 q 163 851 181 718 q 29 881 92 861 l 35 915 q 228 904 108 904 q 451 915 349 904 l 456 882 q 303 856 376 863 m 338 1015 l 51 1119 q 58 1163 50 1133 q 72 1206 65 1193 q 131 1218 100 1215 q 349 1043 235 1093 l 338 1015 z "},"Í":{"ha":468,"x_min":29,"x_max":458,"o":"m 303 856 q 288 467 288 751 q 306 49 288 182 q 458 22 379 42 l 454 -11 q 231 0 351 0 q 38 -11 111 0 l 32 24 q 165 53 94 43 q 181 411 181 167 l 181 493 q 163 851 181 718 q 29 881 92 861 l 35 915 q 228 904 108 904 q 451 915 349 904 l 456 882 q 303 856 376 863 m 438 1107 l 151 1003 l 140 1031 q 358 1206 254 1081 q 417 1193 389 1203 q 431 1151 424 1181 q 438 1107 439 1121 z "},"Î":{"ha":468,"x_min":4,"x_max":479,"o":"m 303 856 q 288 467 288 751 q 306 49 288 182 q 458 22 379 42 l 454 -11 q 231 0 351 0 q 38 -11 111 0 l 32 24 q 165 53 94 43 q 181 411 181 167 l 181 493 q 163 851 181 718 q 29 881 92 861 l 35 915 q 228 904 108 904 q 451 915 349 904 l 456 882 q 303 856 376 863 m 465 993 l 242 1097 l 18 993 l 4 1019 q 228 1229 132 1100 l 256 1229 q 479 1019 351 1100 l 465 993 z "},"Ï":{"ha":468,"x_min":29,"x_max":458,"o":"m 303 856 q 288 467 288 751 q 306 49 288 182 q 458 22 379 42 l 454 -11 q 231 0 351 0 q 38 -11 111 0 l 32 24 q 165 53 94 43 q 181 411 181 167 l 181 493 q 163 851 181 718 q 29 881 92 861 l 35 915 q 228 904 108 904 q 451 915 349 904 l 456 882 q 303 856 376 863 m 188 1115 q 153 1069 178 1097 q 113 1031 129 1042 q 72 1069 96 1042 q 38 1115 47 1097 q 69 1153 46 1132 q 113 1185 93 1175 q 154 1152 131 1174 q 188 1115 178 1131 m 444 1115 q 410 1069 435 1097 q 369 1031 386 1042 q 328 1069 353 1042 q 294 1115 304 1097 q 326 1153 303 1132 q 369 1185 350 1175 q 411 1152 388 1174 q 444 1115 435 1131 z "},"Ð":{"ha":860,"x_min":22,"x_max":801,"o":"m 22 901 l 422 914 q 705 818 608 914 q 801 533 801 722 q 700 186 801 343 q 425 -21 599 29 q 201 32 325 -21 q 169 -31 178 -4 l 140 -24 q 174 450 174 126 q 26 438 88 446 l 22 443 q 32 488 31 471 l 174 492 q 158 844 172 700 q 22 867 92 867 l 22 901 m 288 118 q 458 79 363 79 q 607 126 554 79 q 678 444 678 256 q 619 733 678 617 q 533 828 589 794 q 410 863 476 863 q 293 844 343 863 q 281 496 281 724 l 367 499 q 483 506 456 503 q 496 463 489 478 l 496 456 l 326 453 l 281 451 q 288 118 281 240 z "},"Ñ":{"ha":981,"x_min":29,"x_max":956,"o":"m 35 915 q 215 904 104 904 q 386 913 325 904 l 393 890 q 361 873 376 885 q 346 847 346 861 q 417 692 346 814 q 728 194 488 569 l 733 197 l 733 397 q 710 750 733 631 q 626 890 686 869 l 632 910 q 772 904 675 904 q 951 915 869 904 l 956 883 q 818 856 857 860 q 800 493 800 719 l 800 411 q 818 49 800 151 q 951 24 889 40 l 946 -11 q 798 0 872 0 q 678 -4 724 0 q 260 743 678 92 l 254 740 l 254 507 q 306 49 254 153 q 457 22 382 42 l 454 -11 q 231 0 351 0 q 38 -11 111 0 l 32 24 q 165 53 94 43 q 181 411 181 167 l 181 493 q 163 851 181 718 q 29 881 92 861 l 35 915 m 457 1163 q 612 1119 539 1119 q 713 1153 685 1119 l 738 1138 q 593 1024 660 1053 q 492 1045 564 1024 q 392 1067 421 1067 q 304 1033 332 1067 l 279 1049 q 457 1163 357 1133 z "},"Ò":{"ha":836,"x_min":58,"x_max":778,"o":"m 418 -21 q 157 87 256 -21 q 58 378 58 194 q 162 720 58 561 q 435 925 265 879 q 691 824 604 925 q 778 534 778 722 q 683 195 778 346 q 418 -21 588 44 m 383 825 q 253 778 306 825 q 182 471 182 653 q 299 140 182 254 q 445 79 361 79 q 585 128 529 79 q 654 431 654 256 q 599 703 654 593 q 383 825 538 825 m 535 1015 l 249 1119 q 255 1163 247 1133 q 269 1206 263 1193 q 328 1218 297 1215 q 546 1043 432 1093 l 535 1015 z "},"Ó":{"ha":836,"x_min":58,"x_max":778,"o":"m 418 -21 q 157 87 256 -21 q 58 378 58 194 q 162 720 58 561 q 435 925 265 879 q 691 824 604 925 q 778 534 778 722 q 683 195 778 346 q 418 -21 588 44 m 383 825 q 253 778 306 825 q 182 471 182 653 q 299 140 182 254 q 445 79 361 79 q 585 128 529 79 q 654 431 654 256 q 599 703 654 593 q 383 825 538 825 m 674 1107 l 388 1003 l 376 1031 q 594 1206 490 1081 q 653 1193 625 1203 q 667 1151 660 1181 q 674 1107 675 1121 z "},"Ô":{"ha":836,"x_min":58,"x_max":778,"o":"m 418 -21 q 157 87 256 -21 q 58 378 58 194 q 162 720 58 561 q 435 925 265 879 q 691 824 604 925 q 778 534 778 722 q 683 195 778 346 q 418 -21 588 44 m 383 825 q 253 778 306 825 q 182 471 182 653 q 299 140 182 254 q 445 79 361 79 q 585 128 529 79 q 654 431 654 256 q 599 703 654 593 q 383 825 538 825 m 669 993 l 446 1097 l 222 993 l 208 1019 q 432 1229 336 1100 l 460 1229 q 683 1019 556 1100 l 669 993 z "},"Õ":{"ha":836,"x_min":58,"x_max":778,"o":"m 418 -21 q 157 87 256 -21 q 58 378 58 194 q 162 720 58 561 q 435 925 265 879 q 691 824 604 925 q 778 534 778 722 q 683 195 778 346 q 418 -21 588 44 m 383 825 q 253 778 306 825 q 182 471 182 653 q 299 140 182 254 q 445 79 361 79 q 585 128 529 79 q 654 431 654 256 q 599 703 654 593 q 383 825 538 825 m 396 1163 q 551 1119 478 1119 q 651 1153 624 1119 l 676 1138 q 532 1024 599 1053 q 431 1045 503 1024 q 331 1067 360 1067 q 243 1033 271 1067 l 218 1049 q 396 1163 296 1133 z "},"Ö":{"ha":836,"x_min":58,"x_max":778,"o":"m 418 -21 q 157 87 256 -21 q 58 378 58 194 q 162 720 58 561 q 435 925 265 879 q 691 824 604 925 q 778 534 778 722 q 683 195 778 346 q 418 -21 588 44 m 383 825 q 253 778 306 825 q 182 471 182 653 q 299 140 182 254 q 445 79 361 79 q 585 128 529 79 q 654 431 654 256 q 599 703 654 593 q 383 825 538 825 m 393 1115 q 359 1069 383 1097 q 318 1031 335 1042 q 277 1069 301 1042 q 243 1115 253 1097 q 275 1153 251 1132 q 318 1185 299 1175 q 360 1152 336 1174 q 393 1115 383 1131 m 650 1115 q 616 1069 640 1097 q 575 1031 592 1042 q 534 1069 558 1042 q 500 1115 510 1097 q 532 1153 508 1132 q 575 1185 556 1175 q 617 1152 593 1174 q 650 1115 640 1131 z "},"×":{"ha":764,"x_min":113,"x_max":660,"o":"m 593 590 l 646 542 l 432 332 q 563 208 483 279 q 660 124 643 138 l 621 69 l 606 69 l 386 285 l 167 69 l 151 69 l 113 124 q 339 332 293 285 l 126 542 l 179 590 l 190 589 q 386 379 250 522 l 582 589 l 593 590 z "},"Ø":{"ha":836,"x_min":58,"x_max":778,"o":"m 58 368 q 162 720 58 561 q 435 925 265 879 q 550 910 496 925 l 585 1017 q 638 1026 617 1019 l 643 1022 q 592 896 624 978 q 778 538 778 814 q 683 195 778 346 q 418 -21 588 44 q 256 14 335 -21 l 206 -121 l 199 -121 q 163 -87 176 -108 l 217 36 q 100 172 142 86 q 58 368 58 258 m 301 135 q 447 79 364 79 q 585 128 529 79 q 654 431 654 256 q 544 772 654 676 l 301 135 m 511 796 q 381 825 457 825 q 253 778 306 825 q 182 468 182 653 q 271 168 182 283 l 511 796 z "},"Ù":{"ha":924,"x_min":19,"x_max":914,"o":"m 274 763 q 254 458 254 588 q 258 287 254 328 q 275 207 263 246 q 308 143 288 168 q 456 89 356 89 q 629 156 556 89 q 636 517 636 336 q 621 856 636 697 q 488 885 550 865 l 493 915 q 699 904 578 904 q 910 915 821 904 l 914 886 q 761 860 835 867 q 743 493 743 757 l 743 411 q 761 49 743 151 q 914 22 835 42 l 910 -11 q 729 0 821 0 q 613 -1 638 0 l 608 18 q 626 117 621 33 q 424 -21 546 26 q 206 70 269 -21 q 143 335 143 161 q 153 586 143 414 q 163 790 163 758 q 153 851 163 822 q 19 881 82 861 l 25 915 q 202 904 107 904 q 340 910 297 904 l 346 890 q 274 763 283 856 m 547 1015 l 261 1119 q 267 1163 260 1133 q 282 1206 275 1193 q 340 1218 310 1215 q 558 1043 444 1093 l 547 1015 z "},"Ú":{"ha":924,"x_min":19,"x_max":914,"o":"m 274 763 q 254 458 254 588 q 258 287 254 328 q 275 207 263 246 q 308 143 288 168 q 456 89 356 89 q 629 156 556 89 q 636 517 636 336 q 621 856 636 697 q 488 885 550 865 l 493 915 q 699 904 578 904 q 910 915 821 904 l 914 886 q 761 860 835 867 q 743 493 743 757 l 743 411 q 761 49 743 151 q 914 22 835 42 l 910 -11 q 729 0 821 0 q 613 -1 638 0 l 608 18 q 626 117 621 33 q 424 -21 546 26 q 206 70 269 -21 q 143 335 143 161 q 153 586 143 414 q 163 790 163 758 q 153 851 163 822 q 19 881 82 861 l 25 915 q 202 904 107 904 q 340 910 297 904 l 346 890 q 274 763 283 856 m 721 1107 l 435 1003 l 424 1031 q 642 1206 538 1081 q 700 1193 672 1203 q 715 1151 707 1181 q 721 1107 722 1121 z "},"Û":{"ha":924,"x_min":19,"x_max":914,"o":"m 274 763 q 254 458 254 588 q 258 287 254 328 q 275 207 263 246 q 308 143 288 168 q 456 89 356 89 q 629 156 556 89 q 636 517 636 336 q 621 856 636 697 q 488 885 550 865 l 493 915 q 699 904 578 904 q 910 915 821 904 l 914 886 q 761 860 835 867 q 743 493 743 757 l 743 411 q 761 49 743 151 q 914 22 835 42 l 910 -11 q 729 0 821 0 q 613 -1 638 0 l 608 18 q 626 117 621 33 q 424 -21 546 26 q 206 70 269 -21 q 143 335 143 161 q 153 586 143 414 q 163 790 163 758 q 153 851 163 822 q 19 881 82 861 l 25 915 q 202 904 107 904 q 340 910 297 904 l 346 890 q 274 763 283 856 m 700 993 l 476 1097 l 253 993 l 239 1019 q 463 1229 367 1100 l 490 1229 q 714 1019 586 1100 l 700 993 z "},"Ü":{"ha":924,"x_min":19,"x_max":914,"o":"m 274 763 q 254 458 254 588 q 258 287 254 328 q 275 207 263 246 q 308 143 288 168 q 456 89 356 89 q 629 156 556 89 q 636 517 636 336 q 621 856 636 697 q 488 885 550 865 l 493 915 q 699 904 578 904 q 910 915 821 904 l 914 886 q 761 860 835 867 q 743 493 743 757 l 743 411 q 761 49 743 151 q 914 22 835 42 l 910 -11 q 729 0 821 0 q 613 -1 638 0 l 608 18 q 626 117 621 33 q 424 -21 546 26 q 206 70 269 -21 q 143 335 143 161 q 153 586 143 414 q 163 790 163 758 q 153 851 163 822 q 19 881 82 861 l 25 915 q 202 904 107 904 q 340 910 297 904 l 346 890 q 274 763 283 856 m 424 1115 q 390 1069 414 1097 q 349 1031 365 1042 q 308 1069 332 1042 q 274 1115 283 1097 q 306 1153 282 1132 q 349 1185 329 1175 q 390 1152 367 1174 q 424 1115 414 1131 m 681 1115 q 647 1069 671 1097 q 606 1031 622 1042 q 565 1069 589 1042 q 531 1115 540 1097 q 563 1153 539 1132 q 606 1185 586 1175 q 647 1152 624 1174 q 681 1115 671 1131 z "},"Ý":{"ha":757,"x_min":-47,"x_max":839,"o":"m 558 846 q 531 890 558 876 l 536 910 q 683 904 606 904 q 832 915 760 904 l 839 881 q 704 851 772 860 l 432 414 q 450 49 432 182 q 603 22 524 42 l 599 -11 q 376 0 496 0 q 182 -11 256 0 l 176 24 q 310 53 239 43 q 325 340 325 167 l 325 376 q 149 747 186 671 q 86 851 111 822 q -47 881 8 861 l -42 915 q 158 904 32 904 q 386 915 283 904 l 390 882 q 238 856 311 863 q 404 468 303 661 q 558 846 558 769 m 661 1107 l 375 1003 l 364 1031 q 582 1206 478 1081 q 640 1193 613 1203 q 655 1151 647 1181 q 661 1107 663 1121 z "},"Þ":{"ha":708,"x_min":29,"x_max":710,"o":"m 293 729 l 424 733 q 710 506 710 733 q 608 306 710 382 q 372 229 507 229 q 342 231 351 229 l 347 275 l 364 275 q 524 328 468 275 q 579 482 579 381 q 536 633 579 583 q 400 682 493 682 q 292 664 344 682 l 290 664 q 288 395 288 608 q 306 49 288 182 q 458 22 379 42 l 454 -11 q 231 0 351 0 q 38 -11 111 0 l 32 24 q 165 53 94 43 q 181 411 181 167 l 181 493 q 163 851 181 718 q 29 881 92 861 l 35 915 q 228 904 108 904 q 451 915 349 904 l 456 882 q 303 856 376 863 q 293 729 297 829 z "},"ß":{"ha":729,"x_min":65,"x_max":690,"o":"m 399 153 l 401 94 l 401 89 q 496 65 440 65 q 582 93 551 65 q 613 174 613 121 q 492 350 613 221 q 408 453 446 397 q 369 546 369 508 l 369 558 q 533 786 533 657 q 403 901 533 901 q 283 863 326 901 q 253 756 261 813 q 246 596 246 700 l 246 319 q 263 -83 246 133 q 231 -81 243 -81 q 214 -81 219 -81 q 151 -278 172 -157 l 126 -276 q 143 319 143 24 l 143 596 l 68 596 l 65 599 q 69 629 65 621 q 143 653 88 636 q 239 863 161 774 q 435 988 317 951 q 578 953 521 988 q 636 847 636 919 q 610 747 636 796 q 555 669 585 699 q 499 615 525 640 q 474 583 474 590 q 582 425 474 535 q 656 333 622 383 q 690 244 690 282 q 621 86 690 167 q 471 -21 551 6 q 308 8 385 -21 l 308 28 q 368 174 363 94 l 399 174 l 399 153 z "},"à":{"ha":714,"x_min":69,"x_max":665,"o":"m 213 963 q 242 965 226 965 q 272 964 258 965 q 355 847 306 906 q 456 754 404 789 l 440 729 l 178 881 q 191 923 179 894 q 213 963 203 951 m 69 244 q 147 509 69 389 q 356 674 225 629 q 550 644 449 674 q 582 718 569 674 l 611 710 q 581 268 581 585 q 590 46 581 126 q 665 35 624 35 l 665 6 q 478 -21 576 1 l 468 -15 q 483 201 483 81 l 478 203 q 363 68 429 133 q 236 -21 296 3 q 115 64 160 -21 q 69 244 69 149 m 181 307 q 205 166 181 239 q 275 93 229 93 q 393 163 324 93 q 483 288 463 232 q 474 554 483 494 q 331 588 400 588 q 226 554 263 588 q 181 307 181 449 z "},"á":{"ha":714,"x_min":69,"x_max":665,"o":"m 69 244 q 147 509 69 389 q 356 674 225 629 q 550 644 449 674 q 582 718 569 674 l 611 710 q 581 268 581 585 q 590 46 581 126 q 665 35 624 35 l 665 6 q 478 -21 576 1 l 468 -15 q 483 201 483 81 l 478 203 q 363 68 429 133 q 236 -21 296 3 q 115 64 160 -21 q 69 244 69 149 m 181 307 q 205 166 181 239 q 275 93 229 93 q 393 163 324 93 q 483 288 463 232 q 474 554 483 494 q 331 588 400 588 q 226 554 263 588 q 181 307 181 449 m 499 964 q 528 965 513 965 q 558 963 544 965 q 580 923 568 951 q 593 881 592 894 l 331 729 l 315 754 q 416 847 367 789 q 499 964 465 906 z "},"â":{"ha":714,"x_min":69,"x_max":665,"o":"m 385 850 l 199 725 l 181 749 q 371 982 297 847 l 399 982 q 589 763 475 854 l 571 739 l 385 850 m 69 244 q 147 509 69 389 q 356 674 225 629 q 550 644 449 674 q 582 718 569 674 l 611 710 q 581 268 581 585 q 590 46 581 126 q 665 35 624 35 l 665 6 q 478 -21 576 1 l 468 -15 q 483 201 483 81 l 478 203 q 363 68 429 133 q 236 -21 296 3 q 115 64 160 -21 q 69 244 69 149 m 181 307 q 205 166 181 239 q 275 93 229 93 q 393 163 324 93 q 483 288 463 232 q 474 554 483 494 q 331 588 400 588 q 226 554 263 588 q 181 307 181 449 z "},"ã":{"ha":714,"x_min":69,"x_max":665,"o":"m 69 244 q 147 509 69 389 q 356 674 225 629 q 550 644 449 674 q 582 718 569 674 l 611 710 q 581 268 581 585 q 590 46 581 126 q 665 35 624 35 l 665 6 q 478 -21 576 1 l 468 -15 q 483 201 483 81 l 478 203 q 363 68 429 133 q 236 -21 296 3 q 115 64 160 -21 q 69 244 69 149 m 181 307 q 205 166 181 239 q 275 93 229 93 q 393 163 324 93 q 483 288 463 232 q 474 554 483 494 q 331 588 400 588 q 226 554 263 588 q 181 307 181 449 m 358 921 q 513 878 440 878 q 614 911 586 878 l 639 896 q 494 782 561 811 q 394 803 465 782 q 293 825 322 825 q 206 792 233 825 l 181 807 q 358 921 258 892 z "},"ä":{"ha":714,"x_min":69,"x_max":665,"o":"m 69 244 q 147 509 69 389 q 356 674 225 629 q 550 644 449 674 q 582 718 569 674 l 611 710 q 581 268 581 585 q 590 46 581 126 q 665 35 624 35 l 665 6 q 478 -21 576 1 l 468 -15 q 483 201 483 81 l 478 203 q 363 68 429 133 q 236 -21 296 3 q 115 64 160 -21 q 69 244 69 149 m 181 307 q 205 166 181 239 q 275 93 229 93 q 393 163 324 93 q 483 288 463 232 q 474 554 483 494 q 331 588 400 588 q 226 554 263 588 q 181 307 181 449 m 331 861 q 297 815 321 843 q 256 776 272 788 q 215 815 239 788 q 181 861 190 843 q 213 899 189 878 q 256 931 236 921 q 297 898 274 919 q 331 861 321 876 m 588 861 q 553 815 578 843 q 513 776 529 788 q 472 815 496 788 q 438 861 447 843 q 469 899 446 878 q 513 931 493 921 q 554 898 531 919 q 588 861 578 876 z "},"å":{"ha":714,"x_min":69,"x_max":665,"o":"m 69 244 q 147 509 69 389 q 356 674 225 629 q 550 644 449 674 q 582 718 569 674 l 611 710 q 581 268 581 585 q 590 46 581 126 q 665 35 624 35 l 665 6 q 478 -21 576 1 l 468 -15 q 483 201 483 81 l 478 203 q 363 68 429 133 q 236 -21 296 3 q 115 64 160 -21 q 69 244 69 149 m 181 307 q 205 166 181 239 q 275 93 229 93 q 393 163 324 93 q 483 288 463 232 q 474 554 483 494 q 331 588 400 588 q 226 554 263 588 q 181 307 181 449 m 407 729 q 311 756 350 729 q 272 834 272 782 q 313 927 272 886 q 414 981 354 968 q 540 878 540 981 q 503 785 540 824 q 407 729 467 747 m 475 851 q 475 869 475 851 q 453 910 475 888 q 399 932 432 932 q 353 919 367 932 q 338 860 338 897 q 360 801 338 824 q 413 778 382 778 q 460 790 444 778 q 475 851 475 814 z "},"æ":{"ha":974,"x_min":75,"x_max":964,"o":"m 75 217 q 169 513 75 383 q 419 674 264 642 q 621 613 519 660 q 742 674 676 656 q 872 637 835 674 q 910 507 910 600 q 904 454 910 478 q 926 451 915 451 q 963 457 938 451 l 964 429 q 574 289 750 392 q 722 79 579 79 q 893 153 810 79 l 908 139 q 706 -21 829 31 q 467 168 522 -21 q 343 53 417 108 q 206 -21 269 -3 q 107 60 139 -10 q 75 217 75 131 m 193 251 q 209 137 193 189 q 264 85 225 85 q 365 128 303 85 q 464 218 428 171 q 461 264 461 238 q 539 522 461 406 l 539 528 q 339 596 447 596 q 276 574 303 596 q 193 251 193 436 m 799 440 q 779 555 797 522 q 707 588 761 588 q 613 554 653 588 q 572 331 575 474 q 799 440 688 404 z "},"ç":{"ha":538,"x_min":69,"x_max":518,"o":"m 331 79 q 251 100 283 79 q 181 340 181 146 q 221 554 181 469 q 313 588 257 588 q 425 571 368 588 q 428 486 428 540 l 458 486 q 518 632 464 565 q 518 651 518 632 q 350 674 435 674 q 147 524 225 640 q 69 269 69 407 q 128 56 69 132 q 307 -21 186 -21 q 503 139 422 26 l 489 153 q 331 79 407 79 m 285 -247 q 321 -240 310 -247 q 333 -197 333 -222 q 218 -135 333 -135 l 210 -129 l 263 19 l 303 22 l 269 -64 l 275 -68 q 378 -97 339 -68 q 418 -185 418 -126 q 362 -253 399 -222 q 285 -299 325 -285 q 163 -269 224 -299 q 185 -215 176 -243 l 190 -212 q 285 -247 235 -247 z "},"è":{"ha":592,"x_min":69,"x_max":572,"o":"m 331 79 q 501 153 418 79 l 517 139 q 314 -21 438 31 q 131 56 192 -21 q 69 268 69 132 q 146 522 69 404 q 350 674 222 639 q 481 637 443 674 q 518 507 518 600 q 504 417 518 454 q 572 406 533 406 l 571 376 q 553 376 563 376 q 181 331 397 376 q 253 100 181 146 q 331 79 283 79 m 407 424 q 390 551 407 515 q 317 588 372 588 q 221 554 261 588 q 181 367 183 476 q 407 424 294 404 m 160 963 q 190 965 174 965 q 219 964 206 965 q 302 847 253 906 q 403 754 351 789 l 388 729 l 125 881 q 138 923 126 894 q 160 963 150 951 z "},"é":{"ha":592,"x_min":69,"x_max":572,"o":"m 331 79 q 501 153 418 79 l 517 139 q 314 -21 438 31 q 131 56 192 -21 q 69 268 69 132 q 146 522 69 404 q 350 674 222 639 q 481 637 443 674 q 518 507 518 600 q 504 417 518 454 q 572 406 533 406 l 571 376 q 553 376 563 376 q 181 331 397 376 q 253 100 181 146 q 331 79 283 79 m 407 424 q 390 551 407 515 q 317 588 372 588 q 221 554 261 588 q 181 367 183 476 q 407 424 294 404 m 463 964 q 492 965 476 965 q 522 963 508 965 q 544 923 532 951 q 557 881 556 894 l 294 729 l 279 754 q 380 847 331 789 q 463 964 429 906 z "},"ê":{"ha":592,"x_min":69,"x_max":572,"o":"m 331 79 q 501 153 418 79 l 517 139 q 314 -21 438 31 q 131 56 192 -21 q 69 268 69 132 q 146 522 69 404 q 350 674 222 639 q 481 637 443 674 q 518 507 518 600 q 504 417 518 454 q 572 406 533 406 l 571 376 q 553 376 563 376 q 181 331 397 376 q 253 100 181 146 q 331 79 283 79 m 407 424 q 390 551 407 515 q 317 588 372 588 q 221 554 261 588 q 181 367 183 476 q 407 424 294 404 m 356 850 l 169 725 l 151 749 q 342 982 268 847 l 369 982 q 560 749 443 847 l 542 725 l 356 850 z "},"ë":{"ha":592,"x_min":69,"x_max":572,"o":"m 331 79 q 501 153 418 79 l 517 139 q 314 -21 438 31 q 131 56 192 -21 q 69 268 69 132 q 146 522 69 404 q 350 674 222 639 q 481 637 443 674 q 518 507 518 600 q 504 417 518 454 q 572 406 533 406 l 571 376 q 553 376 563 376 q 181 331 397 376 q 253 100 181 146 q 331 79 283 79 m 407 424 q 390 551 407 515 q 317 588 372 588 q 221 554 261 588 q 181 367 183 476 q 407 424 294 404 m 301 861 q 267 815 292 843 q 226 776 243 788 q 185 815 210 788 q 151 861 161 843 q 183 899 160 878 q 226 931 207 921 q 268 898 244 919 q 301 861 292 876 m 558 861 q 524 815 549 843 q 483 776 500 788 q 442 815 467 788 q 408 861 418 843 q 440 899 417 878 q 483 931 464 921 q 525 898 501 919 q 558 861 549 876 z "},"ì":{"ha":399,"x_min":42,"x_max":361,"o":"m 264 381 l 264 264 q 274 42 264 114 q 361 15 313 33 l 358 -11 q 211 0 281 0 q 71 -8 142 0 l 67 18 q 149 46 108 36 q 161 264 161 140 l 161 381 q 150 606 161 493 q 75 617 114 617 l 75 646 q 272 674 182 653 l 282 668 q 264 381 264 561 m 76 963 q 106 965 90 965 q 136 964 122 965 q 219 847 169 906 q 319 754 268 789 l 304 729 l 42 881 q 55 923 43 894 q 76 963 67 951 z "},"í":{"ha":399,"x_min":67,"x_max":394,"o":"m 264 381 l 264 264 q 274 42 264 114 q 361 15 313 33 l 358 -11 q 211 0 281 0 q 71 -8 142 0 l 67 18 q 149 46 108 36 q 161 264 161 140 l 161 381 q 150 606 161 493 q 75 617 114 617 l 75 646 q 272 674 182 653 l 282 668 q 264 381 264 561 m 300 964 q 330 965 314 965 q 360 963 346 965 q 381 923 369 951 q 394 881 393 894 l 132 729 l 117 754 q 217 847 168 789 q 300 964 267 906 z "},"î":{"ha":399,"x_min":-1,"x_max":407,"o":"m 264 381 l 264 264 q 274 42 264 114 q 361 15 313 33 l 358 -11 q 211 0 281 0 q 71 -8 142 0 l 67 18 q 149 46 108 36 q 161 264 161 140 l 161 381 q 150 606 161 493 q 75 617 114 617 l 75 646 q 272 674 182 653 l 282 668 q 264 381 264 561 m 203 850 l 17 725 l -1 749 q 189 982 115 847 l 217 982 q 407 749 290 847 l 389 725 l 203 850 z "},"ï":{"ha":399,"x_min":10,"x_max":397,"o":"m 160 875 q 126 829 150 857 q 85 790 101 801 q 44 829 68 801 q 10 875 19 857 q 42 913 18 892 q 85 944 65 935 q 126 912 103 933 q 160 875 150 890 m 397 875 q 363 829 388 857 q 322 790 339 801 q 281 829 306 801 q 247 875 257 857 q 279 913 256 892 q 322 944 303 935 q 364 912 340 933 q 397 875 388 890 m 264 381 l 264 264 q 274 42 264 114 q 361 15 313 33 l 358 -11 q 211 0 281 0 q 71 -8 142 0 l 67 18 q 149 46 108 36 q 161 264 161 140 l 161 381 q 150 606 161 493 q 75 617 114 617 l 75 646 q 272 674 182 653 l 282 668 q 264 381 264 561 z "},"ð":{"ha":654,"x_min":63,"x_max":596,"o":"m 596 378 q 510 106 596 214 q 269 -21 425 -1 q 117 70 171 -4 q 63 260 63 144 q 142 465 63 376 q 350 582 222 554 q 463 492 417 567 l 469 492 q 329 744 419 635 l 299 726 q 164 632 213 676 l 157 636 q 143 679 146 674 l 300 776 q 71 956 211 872 l 90 988 q 360 814 242 911 l 428 857 q 525 921 503 903 q 557 890 536 906 l 561 885 l 415 794 l 396 783 q 596 378 596 597 m 485 321 q 475 404 485 367 q 310 522 415 500 q 210 460 244 522 q 175 294 175 397 q 221 123 175 190 q 351 56 267 56 q 425 75 394 56 q 485 321 485 158 z "},"ñ":{"ha":760,"x_min":53,"x_max":711,"o":"m 535 404 q 471 560 535 560 q 343 492 417 560 q 244 365 269 424 q 260 42 244 164 q 347 15 297 33 l 344 -11 q 197 0 267 0 q 57 -8 128 0 l 53 18 q 135 46 94 36 q 147 264 147 140 l 147 381 q 138 607 147 508 q 63 618 104 618 l 63 647 q 250 674 151 651 l 260 668 q 244 451 244 572 l 250 450 q 373 584 297 515 q 510 674 449 653 q 619 597 594 674 q 636 464 636 543 q 636 436 636 451 l 629 46 q 711 18 669 36 l 707 -8 q 594 0 640 0 q 506 -3 547 0 l 506 17 q 533 374 528 125 q 535 404 535 388 m 357 921 q 512 878 439 878 q 613 911 585 878 l 638 896 q 493 782 560 811 q 392 803 464 782 q 292 825 321 825 q 204 792 232 825 l 179 807 q 357 921 257 892 z "},"ò":{"ha":678,"x_min":63,"x_max":615,"o":"m 339 -21 q 140 60 218 -21 q 63 274 63 142 q 142 523 63 406 q 353 674 222 640 q 549 599 482 674 q 615 392 615 524 q 538 143 615 260 q 339 -21 460 26 m 315 588 q 219 554 257 588 q 174 353 174 467 q 225 152 174 239 q 363 65 276 65 q 460 100 421 65 q 504 306 504 185 q 458 508 504 428 q 315 588 411 588 m 192 963 q 222 965 206 965 q 251 964 238 965 q 334 847 285 906 q 435 754 383 789 l 419 729 l 157 881 q 170 923 158 894 q 192 963 182 951 z "},"ó":{"ha":678,"x_min":63,"x_max":615,"o":"m 339 -21 q 140 60 218 -21 q 63 274 63 142 q 142 523 63 406 q 353 674 222 640 q 549 599 482 674 q 615 392 615 524 q 538 143 615 260 q 339 -21 460 26 m 315 588 q 219 554 257 588 q 174 353 174 467 q 225 152 174 239 q 363 65 276 65 q 460 100 421 65 q 504 306 504 185 q 458 508 504 428 q 315 588 411 588 m 488 964 q 517 965 501 965 q 547 963 533 965 q 569 923 557 951 q 582 881 581 894 l 319 729 l 304 754 q 405 847 356 789 q 488 964 454 906 z "},"ô":{"ha":678,"x_min":63,"x_max":615,"o":"m 339 -21 q 140 60 218 -21 q 63 274 63 142 q 142 523 63 406 q 353 674 222 640 q 549 599 482 674 q 615 392 615 524 q 538 143 615 260 q 339 -21 460 26 m 315 588 q 219 554 257 588 q 174 353 174 467 q 225 152 174 239 q 363 65 276 65 q 460 100 421 65 q 504 306 504 185 q 458 508 504 428 q 315 588 411 588 m 360 850 l 174 725 l 156 749 q 346 982 272 847 l 374 982 q 564 749 447 847 l 546 725 l 360 850 z "},"õ":{"ha":678,"x_min":63,"x_max":615,"o":"m 339 -21 q 140 60 218 -21 q 63 274 63 142 q 142 523 63 406 q 353 674 222 640 q 549 599 482 674 q 615 392 615 524 q 538 143 615 260 q 339 -21 460 26 m 315 588 q 219 554 257 588 q 174 353 174 467 q 225 152 174 239 q 363 65 276 65 q 460 100 421 65 q 504 306 504 185 q 458 508 504 428 q 315 588 411 588 m 300 921 q 455 878 382 878 q 556 911 528 878 l 581 896 q 436 782 503 811 q 335 803 407 782 q 235 825 264 825 q 147 792 175 825 l 122 807 q 300 921 200 892 z "},"ö":{"ha":678,"x_min":63,"x_max":615,"o":"m 339 -21 q 140 60 218 -21 q 63 274 63 142 q 142 523 63 406 q 353 674 222 640 q 549 599 482 674 q 615 392 615 524 q 538 143 615 260 q 339 -21 460 26 m 315 588 q 219 554 257 588 q 174 353 174 467 q 225 152 174 239 q 363 65 276 65 q 460 100 421 65 q 504 306 504 185 q 458 508 504 428 q 315 588 411 588 m 307 861 q 273 815 297 843 q 232 776 249 788 q 191 815 215 788 q 157 861 167 843 q 189 899 165 878 q 232 931 213 921 q 274 898 250 919 q 307 861 297 876 m 564 861 q 530 815 554 843 q 489 776 506 788 q 448 815 472 788 q 414 861 424 843 q 446 899 422 878 q 489 931 469 921 q 531 898 507 919 q 564 861 554 876 z "},"÷":{"ha":764,"x_min":74,"x_max":689,"o":"m 422 578 q 432 568 422 578 q 442 535 442 558 q 422 491 442 511 q 381 471 403 471 q 338 491 358 471 q 318 535 318 511 q 338 578 318 558 q 381 597 358 597 q 422 578 403 597 m 422 199 q 432 189 422 199 q 442 156 442 179 q 422 112 442 132 q 381 92 403 92 q 338 112 358 92 q 318 155 318 132 q 338 198 318 178 q 381 218 358 218 q 422 199 403 218 m 86 389 q 474 376 322 376 q 681 381 626 376 l 689 372 l 676 308 l 85 308 l 74 318 l 86 389 z "},"ø":{"ha":678,"x_min":63,"x_max":615,"o":"m 63 264 q 142 523 63 406 q 353 674 222 640 q 438 664 394 674 q 467 761 447 693 q 514 771 493 764 l 519 767 q 472 651 517 761 q 615 389 615 593 q 538 143 615 260 q 339 -21 460 26 q 225 1 281 -21 l 185 -107 l 178 -107 q 146 -75 157 -96 l 189 21 q 63 264 63 103 m 460 100 q 504 326 504 185 q 431 542 504 468 l 264 104 q 364 65 307 65 q 460 100 421 65 m 403 564 q 312 588 367 588 q 219 554 257 588 q 174 343 174 467 q 236 136 174 219 l 403 564 z "},"ù":{"ha":753,"x_min":49,"x_max":700,"o":"m 218 249 q 282 93 218 93 q 410 161 336 93 q 508 288 483 229 q 493 611 508 489 q 406 638 456 619 l 408 664 q 556 653 486 653 q 696 661 625 653 l 700 635 q 618 607 658 617 q 606 389 606 513 l 606 272 q 615 46 606 144 q 690 35 649 35 l 690 6 q 503 -21 601 1 l 493 -18 q 508 201 508 78 l 503 203 q 380 69 456 138 q 243 -21 304 0 q 133 56 158 -21 q 117 189 117 110 q 117 217 117 201 l 124 607 q 49 618 90 618 l 49 647 q 236 674 138 651 l 246 668 q 219 279 224 533 q 218 249 218 265 m 218 963 q 248 965 232 965 q 278 964 264 965 q 360 847 311 906 q 461 754 410 789 l 446 729 l 183 881 q 197 923 185 894 q 218 963 208 951 z "},"ú":{"ha":753,"x_min":49,"x_max":700,"o":"m 218 249 q 282 93 218 93 q 410 161 336 93 q 508 288 483 229 q 493 611 508 489 q 406 638 456 619 l 408 664 q 556 653 486 653 q 696 661 625 653 l 700 635 q 618 607 658 617 q 606 389 606 513 l 606 272 q 615 46 606 144 q 690 35 649 35 l 690 6 q 503 -21 601 1 l 493 -18 q 508 201 508 78 l 503 203 q 380 69 456 138 q 243 -21 304 0 q 133 56 158 -21 q 117 189 117 110 q 117 217 117 201 l 124 607 q 49 618 90 618 l 49 647 q 236 674 138 651 l 246 668 q 219 279 224 533 q 218 249 218 265 m 532 964 q 562 965 546 965 q 592 963 578 965 q 613 923 601 951 q 626 881 625 894 l 364 729 l 349 754 q 449 847 400 789 q 532 964 499 906 z "},"û":{"ha":753,"x_min":49,"x_max":700,"o":"m 218 249 q 282 93 218 93 q 410 161 336 93 q 508 288 483 229 q 493 611 508 489 q 406 638 456 619 l 408 664 q 556 653 486 653 q 696 661 625 653 l 700 635 q 618 607 658 617 q 606 389 606 513 l 606 272 q 615 46 606 144 q 690 35 649 35 l 690 6 q 503 -21 601 1 l 493 -18 q 508 201 508 78 l 503 203 q 380 69 456 138 q 243 -21 304 0 q 133 56 158 -21 q 117 189 117 110 q 117 217 117 201 l 124 607 q 49 618 90 618 l 49 647 q 236 674 138 651 l 246 668 q 219 279 224 533 q 218 249 218 265 m 394 850 l 208 725 l 190 749 q 381 982 307 847 l 408 982 q 599 749 482 847 l 581 725 l 394 850 z "},"ü":{"ha":753,"x_min":49,"x_max":700,"o":"m 218 249 q 282 93 218 93 q 410 161 336 93 q 508 288 483 229 q 493 611 508 489 q 406 638 456 619 l 408 664 q 556 653 486 653 q 696 661 625 653 l 700 635 q 618 607 658 617 q 606 389 606 513 l 606 272 q 615 46 606 144 q 690 35 649 35 l 690 6 q 503 -21 601 1 l 493 -18 q 508 201 508 78 l 503 203 q 380 69 456 138 q 243 -21 304 0 q 133 56 158 -21 q 117 189 117 110 q 117 217 117 201 l 124 607 q 49 618 90 618 l 49 647 q 236 674 138 651 l 246 668 q 219 279 224 533 q 218 249 218 265 m 342 861 q 308 815 332 843 q 267 776 283 788 q 226 815 250 788 q 192 861 201 843 q 224 899 200 878 q 267 931 247 921 q 308 898 285 919 q 342 861 332 876 m 599 861 q 565 815 589 843 q 524 776 540 788 q 483 815 507 788 q 449 861 458 843 q 481 899 457 878 q 524 931 504 921 q 565 898 542 919 q 599 861 589 876 z "},"ý":{"ha":753,"x_min":69,"x_max":704,"o":"m 264 668 q 238 257 238 507 q 296 93 238 93 q 419 163 346 93 q 513 288 492 233 q 497 611 513 489 q 410 638 458 619 l 413 664 q 560 653 490 653 q 700 661 629 653 l 704 635 q 622 607 663 617 q 610 389 610 513 l 610 272 q 619 -47 610 51 q 508 -197 593 -124 q 340 -299 424 -269 q 107 -258 213 -299 l 107 -240 q 165 -85 158 -179 l 194 -85 q 197 -169 194 -139 q 375 -212 275 -212 q 465 -179 431 -212 q 505 -26 497 -94 q 513 201 513 43 l 507 203 q 392 70 465 140 q 260 -21 318 0 q 156 56 179 -21 q 138 189 138 110 q 138 217 138 201 l 144 607 q 69 618 111 618 l 69 647 q 254 674 157 651 l 264 668 m 540 964 q 570 965 554 965 q 600 963 586 965 q 622 923 610 951 q 635 881 633 894 l 372 729 l 357 754 q 458 847 408 789 q 540 964 507 906 z "},"þ":{"ha":725,"x_min":57,"x_max":656,"o":"m 656 408 q 578 144 656 264 q 369 -21 500 24 q 233 -7 294 -21 q 243 -231 233 -158 q 353 -267 306 -246 l 349 -294 q 202 -278 263 -278 q 63 -285 142 -278 l 57 -257 q 128 -232 99 -247 q 142 200 139 -132 l 144 579 q 144 728 144 622 q 135 918 144 833 q 60 929 101 929 l 60 958 q 256 988 143 963 l 265 982 q 239 579 239 817 l 239 447 l 244 447 q 361 583 293 517 q 489 674 429 650 q 610 589 565 674 q 656 408 656 504 m 544 346 q 520 487 544 414 q 450 560 496 560 q 332 490 401 560 q 242 365 263 421 q 251 99 242 158 q 394 65 325 65 q 499 99 463 65 q 544 346 544 204 z "},"ÿ":{"ha":753,"x_min":69,"x_max":704,"o":"m 264 668 q 238 257 238 507 q 296 93 238 93 q 419 163 346 93 q 513 288 492 233 q 497 611 513 489 q 410 638 458 619 l 413 664 q 560 653 490 653 q 700 661 629 653 l 704 635 q 622 607 663 617 q 610 389 610 513 l 610 272 q 619 -47 610 51 q 508 -197 593 -124 q 340 -299 424 -269 q 107 -258 213 -299 l 107 -240 q 165 -85 158 -179 l 194 -85 q 197 -169 194 -139 q 375 -212 275 -212 q 465 -179 431 -212 q 505 -26 497 -94 q 513 201 513 43 l 507 203 q 392 70 465 140 q 260 -21 318 0 q 156 56 179 -21 q 138 189 138 110 q 138 217 138 201 l 144 607 q 69 618 111 618 l 69 647 q 254 674 157 651 l 264 668 m 344 861 q 310 815 335 843 q 269 776 286 788 q 228 815 253 788 q 194 861 204 843 q 226 899 203 878 q 269 931 250 921 q 311 898 288 919 q 344 861 335 876 m 601 861 q 567 815 592 843 q 526 776 543 788 q 485 815 510 788 q 451 861 461 843 q 483 899 460 878 q 526 931 507 921 q 568 898 544 919 q 601 861 592 876 z "},"Ā":{"ha":832,"x_min":-75,"x_max":822,"o":"m 368 1147 q 518 1143 436 1143 q 663 1149 600 1143 l 674 1142 l 661 1078 l 306 1074 l 293 1082 l 306 1151 l 368 1147 m 136 919 q 467 904 294 904 q 797 919 639 904 l 803 885 q 669 856 740 865 q 651 452 651 722 q 669 49 651 182 q 822 22 743 42 l 818 -11 q 595 0 715 0 q 401 -11 475 0 l 396 24 q 529 53 458 43 q 544 349 540 144 q 385 357 472 357 q 239 349 299 357 q 206 131 206 213 q 265 14 206 49 l 260 -6 q 115 0 217 0 q -69 -11 13 0 l -75 24 q 58 53 -12 43 l 286 860 q 132 886 208 868 l 136 919 m 254 418 q 402 408 317 408 q 544 418 488 408 q 531 849 544 754 q 445 853 488 853 q 358 849 403 853 l 254 418 z "},"ā":{"ha":714,"x_min":69,"x_max":665,"o":"m 69 244 q 147 509 69 389 q 356 674 225 629 q 550 644 449 674 q 582 718 569 674 l 611 710 q 581 268 581 585 q 590 46 581 126 q 665 35 624 35 l 665 6 q 478 -21 576 1 l 468 -15 q 483 201 483 81 l 478 203 q 363 68 429 133 q 236 -21 296 3 q 115 64 160 -21 q 69 244 69 149 m 181 307 q 205 166 181 239 q 275 93 229 93 q 393 163 324 93 q 483 288 463 232 q 474 554 483 494 q 331 588 400 588 q 226 554 263 588 q 181 307 181 449 m 268 886 q 419 882 338 882 q 563 888 500 882 l 574 881 l 561 817 l 206 813 l 193 821 l 206 890 l 268 886 z "},"Ă":{"ha":832,"x_min":-75,"x_max":822,"o":"m 529 1090 q 678 1186 626 1090 l 703 1171 q 622 1065 674 1111 q 510 999 571 1019 q 367 1044 442 999 q 265 1151 292 1090 l 267 1164 q 365 1186 326 1167 l 371 1186 q 433 1115 390 1140 q 529 1090 476 1090 m 136 919 q 467 904 294 904 q 797 919 639 904 l 803 885 q 669 856 740 865 q 651 452 651 722 q 669 49 651 182 q 822 22 743 42 l 818 -11 q 595 0 715 0 q 401 -11 475 0 l 396 24 q 529 53 458 43 q 544 349 540 144 q 385 357 472 357 q 239 349 299 357 q 206 131 206 213 q 265 14 206 49 l 260 -6 q 115 0 217 0 q -69 -11 13 0 l -75 24 q 58 53 -12 43 l 286 860 q 132 886 208 868 l 136 919 m 254 418 q 402 408 317 408 q 544 418 488 408 q 531 849 544 754 q 445 853 488 853 q 358 849 403 853 l 254 418 z "},"ă":{"ha":714,"x_min":69,"x_max":665,"o":"m 69 244 q 147 509 69 389 q 356 674 225 629 q 550 644 449 674 q 582 718 569 674 l 611 710 q 581 268 581 585 q 590 46 581 126 q 665 35 624 35 l 665 6 q 478 -21 576 1 l 468 -15 q 483 201 483 81 l 478 203 q 363 68 429 133 q 236 -21 296 3 q 115 64 160 -21 q 69 244 69 149 m 181 307 q 205 166 181 239 q 275 93 229 93 q 393 163 324 93 q 483 288 463 232 q 474 554 483 494 q 331 588 400 588 q 226 554 263 588 q 181 307 181 449 m 431 853 q 579 949 528 853 l 604 933 q 524 828 575 874 q 411 761 472 782 q 268 807 343 761 q 167 914 193 853 l 168 926 q 267 949 228 929 l 272 949 q 335 878 292 903 q 431 853 378 853 z "},"Ą":{"ha":832,"x_min":-75,"x_max":822,"o":"m 136 919 q 467 904 294 904 q 797 919 639 904 l 803 885 q 669 856 740 865 q 651 452 651 722 q 669 49 651 182 q 822 22 743 42 l 818 -11 q 601 0 715 0 q 478 -40 533 0 q 422 -142 422 -81 q 514 -228 422 -228 q 565 -222 544 -228 l 565 -235 q 497 -299 522 -264 q 372 -267 414 -299 q 331 -157 331 -235 q 463 -4 354 -96 l 529 53 q 544 349 540 144 q 385 357 472 357 q 239 349 299 357 q 206 131 206 213 q 265 14 206 49 l 260 -6 q 115 0 217 0 q -69 -11 13 0 l -75 24 q 58 53 -12 43 l 286 860 q 132 886 208 868 l 136 919 m 254 418 q 402 408 317 408 q 544 418 488 408 q 531 849 544 754 q 445 853 488 853 q 358 849 403 853 l 254 418 z "},"ą":{"ha":714,"x_min":69,"x_max":665,"o":"m 69 244 q 147 509 69 389 q 356 674 225 629 q 550 644 449 674 q 582 718 569 674 l 611 710 q 581 268 581 585 q 590 46 581 126 q 665 35 624 35 l 665 6 q 456 -72 507 1 q 433 -142 433 -107 q 525 -228 433 -228 q 576 -222 556 -228 l 576 -235 q 508 -299 533 -264 q 383 -267 425 -299 q 342 -157 342 -235 q 468 -15 374 -78 q 483 201 483 81 l 478 203 q 363 68 429 133 q 236 -21 296 3 q 115 64 160 -21 q 69 244 69 149 m 181 307 q 205 166 181 239 q 275 93 229 93 q 393 163 324 93 q 483 288 463 232 q 474 554 483 494 q 331 588 400 588 q 226 554 263 588 q 181 307 181 449 z "},"Ć":{"ha":692,"x_min":58,"x_max":721,"o":"m 663 1107 l 376 1003 l 365 1031 q 583 1206 479 1081 q 642 1193 614 1203 q 656 1151 649 1181 q 663 1107 664 1121 m 422 89 q 649 197 535 89 l 668 179 q 393 -21 553 32 q 142 84 226 -21 q 58 374 58 189 q 160 719 58 560 q 435 925 263 878 q 721 899 575 925 l 719 868 q 653 856 683 868 q 607 664 618 774 l 572 664 q 560 793 560 719 q 403 828 494 828 q 253 778 313 828 q 182 471 182 657 q 301 119 182 193 q 422 89 351 89 z "},"ć":{"ha":538,"x_min":69,"x_max":557,"o":"m 331 79 q 489 153 407 79 l 503 139 q 307 -21 422 26 q 128 56 186 -21 q 69 269 69 132 q 147 524 69 407 q 350 674 225 640 q 518 651 435 674 l 518 632 q 458 486 464 565 l 428 486 q 425 571 428 540 q 313 588 368 588 q 221 554 257 588 q 181 340 181 469 q 251 100 181 146 q 331 79 283 79 m 463 964 q 492 965 476 965 q 522 963 508 965 q 544 923 532 951 q 557 881 556 894 l 294 729 l 279 754 q 380 847 331 789 q 463 964 429 906 z "},"Ĉ":{"ha":692,"x_min":58,"x_max":721,"o":"m 646 993 l 422 1097 l 199 993 l 185 1019 q 408 1229 313 1100 l 436 1229 q 660 1019 532 1100 l 646 993 m 422 89 q 649 197 535 89 l 668 179 q 393 -21 553 32 q 142 84 226 -21 q 58 374 58 189 q 160 719 58 560 q 435 925 263 878 q 721 899 575 925 l 719 868 q 653 856 683 868 q 607 664 618 774 l 572 664 q 560 793 560 719 q 403 828 494 828 q 253 778 313 828 q 182 471 182 657 q 301 119 182 193 q 422 89 351 89 z "},"ĉ":{"ha":538,"x_min":69,"x_max":540,"o":"m 331 79 q 489 153 407 79 l 503 139 q 307 -21 422 26 q 128 56 186 -21 q 69 269 69 132 q 147 524 69 407 q 350 674 225 640 q 518 651 435 674 l 518 632 q 458 486 464 565 l 428 486 q 425 571 428 540 q 313 588 368 588 q 221 554 257 588 q 181 340 181 469 q 251 100 181 146 q 331 79 283 79 m 336 850 l 150 725 l 132 749 q 322 982 249 847 l 350 982 q 540 749 424 847 l 522 725 l 336 850 z "},"Ċ":{"ha":692,"x_min":58,"x_max":721,"o":"m 422 89 q 649 197 535 89 l 668 179 q 393 -21 553 32 q 142 84 226 -21 q 58 374 58 189 q 160 719 58 560 q 435 925 263 878 q 721 899 575 925 l 719 868 q 653 856 683 868 q 607 664 618 774 l 572 664 q 560 793 560 719 q 403 828 494 828 q 253 778 313 828 q 182 471 182 657 q 301 119 182 193 q 422 89 351 89 m 497 1115 q 463 1069 488 1097 q 422 1031 439 1042 q 381 1069 406 1042 q 347 1115 357 1097 q 379 1153 356 1132 q 422 1185 403 1175 q 464 1152 440 1174 q 497 1115 488 1131 z "},"ċ":{"ha":538,"x_min":69,"x_max":518,"o":"m 331 79 q 489 153 407 79 l 503 139 q 307 -21 422 26 q 128 56 186 -21 q 69 269 69 132 q 147 524 69 407 q 350 674 225 640 q 518 651 435 674 l 518 632 q 458 486 464 565 l 428 486 q 425 571 428 540 q 313 588 368 588 q 221 554 257 588 q 181 340 181 469 q 251 100 181 146 q 331 79 283 79 m 411 861 q 377 815 401 843 q 336 776 353 788 q 295 815 319 788 q 261 861 271 843 q 293 899 269 878 q 336 931 317 921 q 378 898 354 919 q 411 861 401 876 z "},"Č":{"ha":692,"x_min":58,"x_max":721,"o":"m 422 1125 l 646 1229 l 660 1203 q 436 993 532 1122 l 408 993 q 185 1203 313 1122 l 199 1229 l 422 1125 m 422 89 q 649 197 535 89 l 668 179 q 393 -21 553 32 q 142 84 226 -21 q 58 374 58 189 q 160 719 58 560 q 435 925 263 878 q 721 899 575 925 l 719 868 q 653 856 683 868 q 607 664 618 774 l 572 664 q 560 793 560 719 q 403 828 494 828 q 253 778 313 828 q 182 471 182 657 q 301 119 182 193 q 422 89 351 89 z "},"č":{"ha":538,"x_min":69,"x_max":543,"o":"m 331 79 q 489 153 407 79 l 503 139 q 307 -21 422 26 q 128 56 186 -21 q 69 269 69 132 q 147 524 69 407 q 350 674 225 640 q 518 651 435 674 l 518 632 q 458 486 464 565 l 428 486 q 425 571 428 540 q 313 588 368 588 q 221 554 257 588 q 181 340 181 469 q 251 100 181 146 q 331 79 283 79 m 153 979 l 339 854 l 525 979 l 543 956 q 353 722 426 857 l 325 722 q 135 956 251 857 l 153 979 z "},"Ď":{"ha":860,"x_min":22,"x_max":801,"o":"m 428 1125 l 651 1229 l 665 1203 q 442 993 538 1122 l 414 993 q 190 1203 318 1122 l 204 1229 l 428 1125 m 22 901 l 422 914 q 705 818 608 914 q 801 533 801 722 q 700 186 801 343 q 425 -21 599 29 q 201 32 325 -21 q 169 -31 178 -4 l 140 -24 q 174 421 174 128 q 158 844 174 714 q 22 867 92 867 l 22 901 m 619 733 q 533 828 589 794 q 410 863 476 863 q 293 844 343 863 q 281 477 281 714 q 288 118 281 240 q 458 79 363 79 q 607 126 554 79 q 678 444 678 256 q 619 733 678 617 z "},"Ē":{"ha":713,"x_min":69,"x_max":703,"o":"m 551 786 q 391 825 485 825 q 240 778 297 825 q 239 740 239 758 q 476 518 239 518 l 469 467 l 453 467 q 272 423 343 467 q 200 282 200 379 q 267 131 200 185 q 424 78 333 78 q 565 111 514 78 q 575 172 575 131 q 561 229 575 214 l 563 239 q 632 297 597 260 q 659 283 649 296 q 669 254 669 271 q 590 90 669 169 q 415 -21 510 10 q 168 51 267 -21 q 69 257 69 124 q 150 417 69 353 q 333 481 231 481 l 333 486 q 176 539 239 492 q 113 669 113 586 q 245 829 163 758 q 422 925 328 900 q 618 899 522 925 q 676 940 647 913 l 703 922 q 590 657 600 810 l 556 657 q 551 786 556 724 m 307 1147 q 457 1143 375 1143 q 601 1149 539 1143 l 613 1142 l 600 1078 l 244 1074 l 232 1082 l 244 1151 l 307 1147 z "},"ē":{"ha":592,"x_min":69,"x_max":572,"o":"m 331 79 q 501 153 418 79 l 517 139 q 314 -21 438 31 q 131 56 192 -21 q 69 268 69 132 q 146 522 69 404 q 350 674 222 639 q 481 637 443 674 q 518 507 518 600 q 504 417 518 454 q 572 406 533 406 l 571 376 q 553 376 563 376 q 181 331 397 376 q 253 100 181 146 q 331 79 283 79 m 407 424 q 390 551 407 515 q 317 588 372 588 q 221 554 261 588 q 181 367 183 476 q 407 424 294 404 m 239 886 q 389 882 307 882 q 533 888 471 882 l 544 881 l 532 817 l 176 813 l 164 821 l 176 890 l 239 886 z "},"Ĕ":{"ha":713,"x_min":69,"x_max":703,"o":"m 551 786 q 391 825 485 825 q 240 778 297 825 q 239 740 239 758 q 476 518 239 518 l 469 467 l 453 467 q 272 423 343 467 q 200 282 200 379 q 267 131 200 185 q 424 78 333 78 q 565 111 514 78 q 575 172 575 131 q 561 229 575 214 l 563 239 q 632 297 597 260 q 659 283 649 296 q 669 254 669 271 q 590 90 669 169 q 415 -21 510 10 q 168 51 267 -21 q 69 257 69 124 q 150 417 69 353 q 333 481 231 481 l 333 486 q 176 539 239 492 q 113 669 113 586 q 245 829 163 758 q 422 925 328 900 q 618 899 522 925 q 676 940 647 913 l 703 922 q 590 657 600 810 l 556 657 q 551 786 556 724 m 468 1090 q 617 1186 565 1090 l 642 1171 q 561 1065 613 1111 q 449 999 510 1019 q 306 1044 381 999 q 204 1151 231 1090 l 206 1164 q 304 1186 265 1167 l 310 1186 q 372 1115 329 1140 q 468 1090 415 1090 z "},"ĕ":{"ha":592,"x_min":69,"x_max":575,"o":"m 331 79 q 501 153 418 79 l 517 139 q 314 -21 438 31 q 131 56 192 -21 q 69 268 69 132 q 146 522 69 404 q 350 674 222 639 q 481 637 443 674 q 518 507 518 600 q 504 417 518 454 q 572 406 533 406 l 571 376 q 553 376 563 376 q 181 331 397 376 q 253 100 181 146 q 331 79 283 79 m 407 424 q 390 551 407 515 q 317 588 372 588 q 221 554 261 588 q 181 367 183 476 q 407 424 294 404 m 401 853 q 550 949 499 853 l 575 933 q 494 828 546 874 q 382 761 443 782 q 239 807 314 761 q 138 914 164 853 l 139 926 q 238 949 199 929 l 243 949 q 306 878 263 903 q 401 853 349 853 z "},"Ė":{"ha":713,"x_min":69,"x_max":703,"o":"m 551 786 q 391 825 485 825 q 240 778 297 825 q 239 740 239 758 q 476 518 239 518 l 469 467 l 453 467 q 272 423 343 467 q 200 282 200 379 q 267 131 200 185 q 424 78 333 78 q 565 111 514 78 q 575 172 575 131 q 561 229 575 214 l 563 239 q 632 297 597 260 q 659 283 649 296 q 669 254 669 271 q 590 90 669 169 q 415 -21 510 10 q 168 51 267 -21 q 69 257 69 124 q 150 417 69 353 q 333 481 231 481 l 333 486 q 176 539 239 492 q 113 669 113 586 q 245 829 163 758 q 422 925 328 900 q 618 899 522 925 q 676 940 647 913 l 703 922 q 590 657 600 810 l 556 657 q 551 786 556 724 m 497 1115 q 463 1069 488 1097 q 422 1031 439 1042 q 381 1069 406 1042 q 347 1115 357 1097 q 379 1153 356 1132 q 422 1185 403 1175 q 464 1152 440 1174 q 497 1115 488 1131 z "},"Ę":{"ha":713,"x_min":69,"x_max":703,"o":"m 551 786 q 391 825 485 825 q 240 778 297 825 q 239 740 239 758 q 476 518 239 518 l 469 467 l 453 467 q 272 423 343 467 q 200 282 200 379 q 267 131 200 185 q 424 78 333 78 q 565 111 514 78 q 575 172 575 131 q 561 229 575 214 l 563 239 q 632 297 597 260 q 659 283 649 296 q 669 254 669 271 q 642 159 669 206 q 585 86 614 113 q 485 4 556 60 q 392 -82 414 -51 q 369 -142 369 -112 q 461 -228 369 -228 q 513 -222 492 -228 l 513 -235 q 444 -299 469 -264 q 319 -267 361 -299 q 278 -157 278 -235 q 396 -21 306 -86 q 162 56 254 -15 q 69 257 69 128 q 150 417 69 353 q 333 481 231 481 l 333 486 q 176 539 239 492 q 113 669 113 586 q 245 829 163 758 q 422 925 328 900 q 618 899 522 925 q 676 940 647 913 l 703 922 q 590 657 600 810 l 556 657 q 551 786 556 724 z "},"ę":{"ha":592,"x_min":69,"x_max":572,"o":"m 310 -21 q 130 57 190 -19 q 69 269 69 133 q 146 522 69 404 q 350 674 222 639 q 481 637 443 674 q 518 507 518 600 q 504 417 518 454 q 572 406 533 406 l 571 376 q 553 376 563 376 q 181 331 397 376 q 253 100 181 146 q 331 79 283 79 q 501 153 418 79 l 517 139 q 367 -8 471 71 q 308 -69 333 -33 q 283 -142 283 -104 q 375 -228 283 -228 q 426 -222 406 -228 l 426 -235 q 358 -299 383 -264 q 233 -267 275 -299 q 192 -157 192 -235 q 310 -21 221 -83 m 407 424 q 390 551 407 515 q 317 588 372 588 q 221 554 261 588 q 181 367 183 476 q 407 424 294 404 z "},"Ě":{"ha":713,"x_min":69,"x_max":703,"o":"m 551 786 q 391 825 485 825 q 240 778 297 825 q 239 740 239 758 q 476 518 239 518 l 469 467 l 453 467 q 272 423 343 467 q 200 282 200 379 q 267 131 200 185 q 424 78 333 78 q 565 111 514 78 q 575 172 575 131 q 561 229 575 214 l 563 239 q 632 297 597 260 q 659 283 649 296 q 669 254 669 271 q 590 90 669 169 q 415 -21 510 10 q 168 51 267 -21 q 69 257 69 124 q 150 417 69 353 q 333 481 231 481 l 333 486 q 176 539 239 492 q 113 669 113 586 q 245 829 163 758 q 422 925 328 900 q 618 899 522 925 q 676 940 647 913 l 703 922 q 590 657 600 810 l 556 657 q 551 786 556 724 m 421 1125 l 644 1229 l 658 1203 q 435 993 531 1122 l 407 993 q 183 1203 311 1122 l 197 1229 l 421 1125 z "},"ě":{"ha":592,"x_min":69,"x_max":572,"o":"m 331 79 q 501 153 418 79 l 517 139 q 314 -21 438 31 q 131 56 192 -21 q 69 268 69 132 q 146 522 69 404 q 350 674 222 639 q 481 637 443 674 q 518 507 518 600 q 504 417 518 454 q 572 406 533 406 l 571 376 q 553 376 563 376 q 181 331 397 376 q 253 100 181 146 q 331 79 283 79 m 407 424 q 390 551 407 515 q 317 588 372 588 q 221 554 261 588 q 181 367 183 476 q 407 424 294 404 m 169 979 l 356 854 l 542 979 l 560 956 q 369 722 443 857 l 342 722 q 151 956 268 857 l 169 979 z "},"Ĝ":{"ha":774,"x_min":58,"x_max":729,"o":"m 646 993 l 422 1097 l 199 993 l 185 1019 q 408 1229 313 1100 l 436 1229 q 660 1019 532 1100 l 646 993 m 300 119 q 424 89 349 89 q 560 129 499 89 l 560 244 q 554 338 560 276 q 428 365 506 351 l 432 394 q 493 390 464 390 q 717 458 615 390 l 729 433 q 679 383 697 408 q 651 -6 663 217 l 622 -6 q 589 93 608 54 q 393 -21 499 14 q 142 84 226 -21 q 58 374 58 189 q 160 719 58 560 q 435 925 263 878 q 725 899 579 925 l 724 868 q 657 856 689 868 q 611 663 619 767 l 576 663 q 564 792 564 719 q 406 828 499 828 q 253 778 313 828 q 182 471 182 657 q 300 119 182 192 z "},"ĝ":{"ha":699,"x_min":57,"x_max":661,"o":"m 74 257 q 149 515 74 399 q 353 674 224 631 q 547 644 446 674 q 654 671 608 657 l 661 646 q 596 606 635 625 q 578 248 578 438 q 588 -47 578 58 q 472 -198 557 -124 q 304 -299 388 -272 q 57 -256 175 -299 l 57 -229 q 213 3 83 -136 l 213 8 q 111 102 149 26 q 74 257 74 178 m 185 318 q 209 183 185 253 q 278 114 233 114 q 391 187 324 114 q 481 314 458 260 q 471 554 481 496 q 331 588 397 588 q 226 554 264 588 q 185 318 185 453 m 338 -212 q 433 -179 399 -212 q 473 -18 465 -96 q 481 236 481 60 l 475 238 q 339 72 438 158 q 264 3 300 39 q 167 -174 176 -85 q 338 -212 243 -212 m 365 850 l 179 725 l 161 749 q 351 982 278 847 l 379 982 q 569 749 453 847 l 551 725 l 365 850 z "},"Ğ":{"ha":774,"x_min":58,"x_max":729,"o":"m 300 119 q 424 89 349 89 q 560 129 499 89 l 560 244 q 554 338 560 276 q 428 365 506 351 l 432 394 q 493 390 464 390 q 717 458 615 390 l 729 433 q 679 383 697 408 q 651 -6 663 217 l 622 -6 q 589 93 608 54 q 393 -21 499 14 q 142 84 226 -21 q 58 374 58 189 q 160 719 58 560 q 435 925 263 878 q 725 899 579 925 l 724 868 q 657 856 689 868 q 611 663 619 767 l 576 663 q 564 792 564 719 q 406 828 499 828 q 253 778 313 828 q 182 471 182 657 q 300 119 182 192 m 468 1090 q 617 1186 565 1090 l 642 1171 q 561 1065 613 1111 q 449 999 510 1019 q 306 1044 381 999 q 204 1151 231 1090 l 206 1164 q 304 1186 265 1167 l 310 1186 q 372 1115 329 1140 q 468 1090 415 1090 z "},"ğ":{"ha":699,"x_min":57,"x_max":661,"o":"m 74 257 q 149 515 74 399 q 353 674 224 631 q 547 644 446 674 q 654 671 608 657 l 661 646 q 596 606 635 625 q 578 248 578 438 q 588 -47 578 58 q 472 -198 557 -124 q 304 -299 388 -272 q 57 -256 175 -299 l 57 -229 q 213 3 83 -136 l 213 8 q 111 102 149 26 q 74 257 74 178 m 185 318 q 209 183 185 253 q 278 114 233 114 q 391 187 324 114 q 481 314 458 260 q 471 554 481 496 q 331 588 397 588 q 226 554 264 588 q 185 318 185 453 m 338 -212 q 433 -179 399 -212 q 473 -18 465 -96 q 481 236 481 60 l 475 238 q 339 72 438 158 q 264 3 300 39 q 167 -174 176 -85 q 338 -212 243 -212 m 413 853 q 561 949 510 853 l 586 933 q 506 828 557 874 q 393 761 454 782 q 250 807 325 761 q 149 914 175 853 l 150 926 q 249 949 210 929 l 254 949 q 317 878 274 903 q 413 853 360 853 z "},"Ġ":{"ha":774,"x_min":58,"x_max":729,"o":"m 300 119 q 424 89 349 89 q 560 129 499 89 l 560 244 q 554 338 560 276 q 428 365 506 351 l 432 394 q 493 390 464 390 q 717 458 615 390 l 729 433 q 679 383 697 408 q 651 -6 663 217 l 622 -6 q 589 93 608 54 q 393 -21 499 14 q 142 84 226 -21 q 58 374 58 189 q 160 719 58 560 q 435 925 263 878 q 725 899 579 925 l 724 868 q 657 856 689 868 q 611 663 619 767 l 576 663 q 564 792 564 719 q 406 828 499 828 q 253 778 313 828 q 182 471 182 657 q 300 119 182 192 m 497 1115 q 463 1069 488 1097 q 422 1031 439 1042 q 381 1069 406 1042 q 347 1115 357 1097 q 379 1153 356 1132 q 422 1185 403 1175 q 464 1152 440 1174 q 497 1115 488 1131 z "},"ġ":{"ha":699,"x_min":57,"x_max":661,"o":"m 74 257 q 149 515 74 399 q 353 674 224 631 q 547 644 446 674 q 654 671 608 657 l 661 646 q 596 606 635 625 q 578 248 578 438 q 588 -47 578 58 q 472 -198 557 -124 q 304 -299 388 -272 q 57 -256 175 -299 l 57 -229 q 213 3 83 -136 l 213 8 q 111 102 149 26 q 74 257 74 178 m 185 318 q 209 183 185 253 q 278 114 233 114 q 391 187 324 114 q 481 314 458 260 q 471 554 481 496 q 331 588 397 588 q 226 554 264 588 q 185 318 185 453 m 338 -212 q 433 -179 399 -212 q 473 -18 465 -96 q 481 236 481 60 l 475 238 q 339 72 438 158 q 264 3 300 39 q 167 -174 176 -85 q 338 -212 243 -212 m 440 861 q 406 815 431 843 q 365 776 382 788 q 324 815 349 788 q 290 861 300 843 q 322 899 299 878 q 365 931 346 921 q 407 898 383 919 q 440 861 431 876 z "},"Ĥ":{"ha":983,"x_min":29,"x_max":974,"o":"m 724 993 l 500 1097 l 276 993 l 263 1019 q 486 1229 390 1100 l 514 1229 q 738 1019 610 1100 l 724 993 m 553 915 q 759 904 638 904 q 969 915 881 904 l 974 882 q 821 856 894 863 q 803 493 803 753 l 803 411 q 821 49 803 151 q 974 22 894 42 l 969 -11 q 759 0 881 0 q 553 -11 638 0 l 547 24 q 681 53 610 43 q 696 456 694 193 q 492 465 593 465 q 288 456 390 465 q 306 49 289 158 q 458 22 379 42 l 454 -11 q 231 0 351 0 q 38 -11 111 0 l 32 24 q 165 53 94 43 q 181 411 181 167 l 181 493 q 163 851 181 718 q 29 881 92 861 l 35 915 q 228 904 108 904 q 451 915 349 904 l 456 882 q 303 856 376 863 q 288 531 290 774 q 497 517 393 517 q 696 529 601 517 q 681 851 694 713 q 547 881 610 861 l 553 915 z "},"ĥ":{"ha":753,"x_min":4,"x_max":704,"o":"m 535 404 q 471 560 535 560 q 343 492 417 560 q 244 365 269 424 q 260 42 244 164 q 347 15 297 33 l 344 -11 q 197 0 267 0 q 57 -8 128 0 l 53 18 q 135 46 94 36 q 147 264 147 140 l 147 522 q 114 1019 147 888 l 143 1028 q 175 954 156 983 q 324 988 251 967 l 331 963 q 265 922 304 942 q 244 451 244 808 l 250 450 q 373 584 297 515 q 510 674 449 653 q 619 597 594 674 q 636 464 636 543 q 636 436 636 451 l 629 46 q 704 35 663 35 l 704 6 q 517 -21 615 1 l 507 -15 q 533 374 529 119 q 535 404 535 388 m 208 1172 l 22 1047 l 4 1071 q 194 1304 121 1169 l 222 1304 q 413 1071 296 1169 l 394 1047 l 208 1172 z "},"Ħ":{"ha":983,"x_min":29,"x_max":974,"o":"m 689 724 l 681 851 q 547 881 610 861 l 553 915 q 759 904 638 904 q 969 915 881 904 l 974 882 q 821 856 894 863 q 810 724 814 821 l 922 728 l 931 719 l 924 682 l 807 682 q 803 493 803 588 l 803 411 q 821 49 803 151 q 974 22 894 42 l 969 -11 q 759 0 881 0 q 553 -11 638 0 l 547 24 q 681 53 610 43 q 696 456 694 193 q 492 465 593 465 q 288 456 390 465 q 306 49 289 158 q 458 22 379 42 l 454 -11 q 231 0 351 0 q 38 -11 111 0 l 32 24 q 165 53 94 43 q 181 411 181 167 l 181 493 q 175 682 181 557 l 78 682 l 67 692 l 74 736 l 172 732 q 163 851 168 804 q 29 881 92 861 l 35 915 q 228 904 108 904 q 451 915 349 904 l 456 882 q 303 856 376 863 q 293 728 297 829 q 689 724 501 724 m 288 531 q 497 517 393 517 q 696 529 601 517 l 692 682 l 290 682 q 288 531 288 585 z "},"ħ":{"ha":753,"x_min":43,"x_max":704,"o":"m 535 404 q 471 560 535 560 q 343 492 417 560 q 244 365 269 424 q 260 42 244 164 q 347 15 297 33 l 344 -11 q 197 0 267 0 q 57 -8 128 0 l 53 18 q 135 46 94 36 q 147 264 147 140 l 147 522 q 144 765 147 696 q 47 756 99 763 l 43 761 q 53 806 51 789 l 142 808 q 114 1019 135 936 l 143 1028 q 175 954 156 983 q 324 988 251 967 l 331 963 q 265 922 304 942 q 253 813 257 881 l 418 818 q 535 825 507 822 q 547 782 540 797 l 547 775 l 378 772 l 250 768 q 244 451 244 664 l 250 450 q 373 584 297 515 q 510 674 449 653 q 619 597 594 674 q 636 464 636 543 q 636 436 636 451 l 629 46 q 704 35 663 35 l 704 6 q 517 -21 615 1 l 507 -15 q 533 374 529 119 q 535 404 535 388 z "},"Ĩ":{"ha":468,"x_min":13,"x_max":471,"o":"m 303 856 q 288 467 288 751 q 306 49 288 182 q 458 22 379 42 l 454 -11 q 231 0 351 0 q 38 -11 111 0 l 32 24 q 165 53 94 43 q 181 411 181 167 l 181 493 q 163 851 181 718 q 29 881 92 861 l 35 915 q 228 904 108 904 q 451 915 349 904 l 456 882 q 303 856 376 863 m 190 1163 q 345 1119 272 1119 q 446 1153 418 1119 l 471 1138 q 326 1024 393 1053 q 226 1045 297 1024 q 125 1067 154 1067 q 38 1033 65 1067 l 13 1049 q 190 1163 90 1133 z "},"ĩ":{"ha":399,"x_min":3,"x_max":403,"o":"m 303 878 q 379 911 351 878 l 403 896 q 276 782 350 818 q 189 803 254 782 q 101 825 124 825 q 28 792 53 825 l 3 807 q 158 921 67 889 q 303 878 225 878 m 264 381 l 264 264 q 274 42 264 114 q 361 15 313 33 l 358 -11 q 211 0 281 0 q 71 -8 142 0 l 67 18 q 149 46 108 36 q 161 264 161 140 l 161 381 q 150 606 161 493 q 75 617 114 617 l 75 646 q 272 674 182 653 l 282 668 q 264 381 264 561 z "},"Ī":{"ha":468,"x_min":29,"x_max":458,"o":"m 303 856 q 288 467 288 751 q 306 49 288 182 q 458 22 379 42 l 454 -11 q 231 0 351 0 q 38 -11 111 0 l 32 24 q 165 53 94 43 q 181 411 181 167 l 181 493 q 163 851 181 718 q 29 881 92 861 l 35 915 q 228 904 108 904 q 451 915 349 904 l 456 882 q 303 856 376 863 m 125 1147 q 276 1143 194 1143 q 419 1149 357 1143 l 431 1142 l 418 1078 l 63 1074 l 50 1082 l 63 1151 l 125 1147 z "},"ī":{"ha":399,"x_min":40,"x_max":365,"o":"m 115 886 q 237 882 174 882 q 354 888 300 882 l 365 881 l 353 817 l 53 813 l 40 821 l 53 890 l 115 886 m 264 381 l 264 264 q 274 42 264 114 q 361 15 313 33 l 358 -11 q 211 0 281 0 q 71 -8 142 0 l 67 18 q 149 46 108 36 q 161 264 161 140 l 161 381 q 150 606 161 493 q 75 617 114 617 l 75 646 q 272 674 182 653 l 282 668 q 264 381 264 561 z "},"Ĭ":{"ha":468,"x_min":22,"x_max":460,"o":"m 303 856 q 288 467 288 751 q 306 49 288 182 q 458 22 379 42 l 454 -11 q 231 0 351 0 q 38 -11 111 0 l 32 24 q 165 53 94 43 q 181 411 181 167 l 181 493 q 163 851 181 718 q 29 881 92 861 l 35 915 q 228 904 108 904 q 451 915 349 904 l 456 882 q 303 856 376 863 m 286 1090 q 435 1186 383 1090 l 460 1171 q 379 1065 431 1111 q 267 999 328 1019 q 124 1044 199 999 q 22 1151 49 1090 l 24 1164 q 122 1186 83 1167 l 128 1186 q 190 1115 147 1140 q 286 1090 233 1090 z "},"ĭ":{"ha":399,"x_min":8,"x_max":394,"o":"m 114 949 q 240 851 153 851 q 368 949 328 851 l 394 933 q 326 828 371 875 q 228 761 281 782 q 95 806 160 761 q 8 914 31 850 l 10 926 q 108 949 74 929 l 114 949 m 264 381 l 264 264 q 274 42 264 114 q 361 15 313 33 l 358 -11 q 211 0 281 0 q 71 -8 142 0 l 67 18 q 149 46 108 36 q 161 264 161 140 l 161 381 q 150 606 161 493 q 75 617 114 617 l 75 646 q 272 674 182 653 l 282 668 q 264 381 264 561 z "},"Į":{"ha":468,"x_min":29,"x_max":458,"o":"m 314 -1 q 201 0 292 0 q 38 -11 111 0 l 32 24 q 165 53 94 43 q 181 411 181 167 l 181 493 q 163 851 181 718 q 29 881 92 861 l 35 915 q 228 904 108 904 q 451 915 349 904 l 456 882 q 303 856 376 863 q 288 467 288 751 q 306 49 288 182 q 458 22 379 42 l 454 -11 q 381 -6 415 -6 q 310 -48 347 -6 q 272 -142 272 -90 q 364 -228 272 -228 q 415 -222 394 -228 l 415 -235 q 347 -299 372 -264 q 222 -267 264 -299 q 181 -157 181 -235 q 237 -70 199 -114 q 314 -1 275 -26 z "},"į":{"ha":399,"x_min":67,"x_max":361,"o":"m 213 0 q 71 -8 142 0 l 67 18 q 149 46 108 36 q 161 264 161 140 l 161 381 q 150 606 161 493 q 75 617 114 617 l 75 646 q 272 674 182 653 l 282 668 q 264 381 264 561 l 264 264 q 274 42 264 114 q 361 15 313 33 l 358 -11 q 299 -4 321 -4 q 216 -51 256 -4 q 176 -142 176 -97 q 268 -228 176 -228 q 319 -222 299 -228 l 319 -235 q 251 -299 275 -264 q 126 -267 168 -299 q 85 -157 85 -235 q 143 -70 103 -114 q 226 0 183 -26 l 213 0 m 289 861 q 255 815 279 843 q 214 776 231 788 q 173 815 197 788 q 139 861 149 843 q 171 899 147 878 q 214 931 194 921 q 256 898 232 919 q 289 861 279 876 z "},"İ":{"ha":468,"x_min":29,"x_max":458,"o":"m 303 856 q 288 467 288 751 q 306 49 288 182 q 458 22 379 42 l 454 -11 q 231 0 351 0 q 38 -11 111 0 l 32 24 q 165 53 94 43 q 181 411 181 167 l 181 493 q 163 851 181 718 q 29 881 92 861 l 35 915 q 228 904 108 904 q 451 915 349 904 l 456 882 q 303 856 376 863 m 315 1115 q 281 1069 306 1097 q 240 1031 257 1042 q 199 1069 224 1042 q 165 1115 175 1097 q 197 1153 174 1132 q 240 1185 221 1175 q 282 1152 258 1174 q 315 1115 306 1131 z "},"ı":{"ha":399,"x_min":67,"x_max":361,"o":"m 264 381 l 264 264 q 274 42 264 114 q 361 15 313 33 l 358 -11 q 211 0 281 0 q 71 -8 142 0 l 67 18 q 149 46 108 36 q 161 264 161 140 l 161 381 q 150 606 161 493 q 75 617 114 617 l 75 646 q 272 674 182 653 l 282 668 q 264 381 264 561 z "},"Ĳ":{"ha":936,"x_min":29,"x_max":907,"o":"m 303 856 q 288 467 288 751 q 306 49 288 182 q 458 22 379 42 l 454 -11 q 231 0 351 0 q 38 -11 111 0 l 32 24 q 165 53 94 43 q 181 411 181 167 l 181 493 q 163 851 181 718 q 29 881 92 861 l 35 915 q 228 904 108 904 q 451 915 349 904 l 456 882 q 303 856 376 863 m 485 915 q 708 904 588 904 q 901 915 828 904 l 907 881 q 774 851 844 861 q 756 493 756 718 l 756 411 q 767 46 756 154 q 481 -250 689 -129 l 457 -224 q 606 -33 563 -135 q 649 214 649 69 l 649 493 q 633 856 649 751 q 481 882 560 863 l 485 915 z "},"ĳ":{"ha":803,"x_min":67,"x_max":685,"o":"m 264 381 l 264 264 q 274 42 264 114 q 361 15 313 33 l 358 -11 q 211 0 281 0 q 71 -8 142 0 l 67 18 q 149 46 108 36 q 161 264 161 140 l 161 381 q 150 606 161 493 q 75 617 114 617 l 75 646 q 272 674 182 653 l 282 668 q 264 381 264 561 m 289 861 q 255 815 279 843 q 214 776 231 788 q 173 815 197 788 q 139 861 149 843 q 171 899 147 878 q 214 931 194 921 q 256 898 232 919 q 289 861 279 876 m 556 74 l 556 264 q 544 606 556 493 q 469 617 508 617 l 469 646 q 667 674 576 653 l 676 668 q 656 326 656 546 q 665 0 656 106 q 443 -299 621 -151 l 422 -278 q 556 74 556 -115 m 685 861 q 651 815 675 843 q 610 776 626 788 q 569 815 593 788 q 535 861 544 843 q 567 899 543 878 q 610 931 590 921 q 651 898 628 919 q 685 861 675 876 z "},"Ĵ":{"ha":468,"x_min":-11,"x_max":465,"o":"m 451 993 l 228 1097 l 4 993 l -10 1019 q 214 1229 118 1100 l 242 1229 q 465 1019 338 1100 l 451 993 m 17 915 q 240 904 119 904 q 433 915 360 904 l 439 881 q 306 851 376 861 q 288 493 288 718 l 288 411 q 299 46 288 154 q 13 -250 221 -129 l -11 -224 q 138 -33 94 -135 q 181 214 181 69 l 181 493 q 165 856 181 751 q 13 882 92 863 l 17 915 z "},"ĵ":{"ha":404,"x_min":-6,"x_max":403,"o":"m 199 850 l 13 725 l -6 749 q 185 982 111 847 l 213 982 q 403 749 286 847 l 385 725 l 199 850 m 157 74 l 157 264 q 146 606 157 493 q 71 617 110 617 l 71 646 q 268 674 178 653 l 278 668 q 257 326 257 546 q 267 0 257 106 q 44 -299 222 -151 l 24 -278 q 157 74 157 -115 z "},"ķ":{"ha":715,"x_min":60,"x_max":682,"o":"m 351 -11 q 204 0 274 0 q 64 -8 135 0 l 60 18 q 142 46 101 36 q 154 319 154 140 l 154 579 q 143 901 154 789 q 68 913 107 913 l 68 942 q 332 988 206 951 l 339 963 q 274 922 313 942 q 251 453 251 800 l 257 450 q 375 585 306 519 q 506 674 444 651 q 586 615 556 661 q 617 515 617 569 q 478 317 617 376 l 519 228 q 548 165 533 199 q 569 115 563 132 q 607 51 589 75 q 637 44 607 49 q 682 40 667 40 l 682 11 q 485 -17 586 7 l 472 -10 q 393 293 472 88 q 343 290 360 290 l 343 319 q 462 363 418 324 q 506 474 506 403 q 495 530 506 497 q 468 574 485 563 q 345 494 414 564 q 251 365 276 424 q 267 42 251 164 q 354 15 306 33 l 351 -11 m 457 -117 q 310 -299 450 -226 l 296 -281 q 363 -186 354 -237 q 307 -117 326 -153 q 339 -78 315 -100 q 382 -47 363 -57 q 424 -80 400 -58 q 457 -117 447 -101 z "},"ĸ":{"ha":703,"x_min":61,"x_max":701,"o":"m 353 -11 q 206 0 275 0 q 65 -8 136 0 l 61 18 q 143 46 103 36 q 156 264 156 140 l 156 381 q 144 606 156 493 q 69 617 108 617 l 69 646 q 267 674 176 653 l 276 668 q 258 381 258 561 l 258 343 l 264 342 q 390 523 303 421 q 546 674 476 625 q 668 651 608 674 l 668 632 q 608 458 615 565 l 578 458 q 575 543 578 513 q 528 557 557 557 q 379 428 485 557 l 510 221 q 626 46 585 99 q 701 35 651 35 l 701 6 q 517 -21 614 1 l 506 -15 q 421 163 506 32 l 311 338 q 258 257 271 281 q 268 42 258 113 q 356 15 307 33 l 353 -11 z "},"ĺ":{"ha":414,"x_min":8,"x_max":417,"o":"m 258 319 q 258 192 258 279 q 267 42 258 106 q 354 15 306 33 l 351 -11 q 204 0 274 0 q 64 -8 135 0 l 60 18 q 142 46 101 36 q 156 319 154 135 l 158 579 q 158 709 158 615 q 149 901 158 803 q 74 913 113 913 l 74 942 q 339 988 213 951 l 346 963 q 281 922 319 942 q 261 579 264 831 l 258 319 m 213 1172 l 26 1047 l 8 1071 q 199 1304 125 1169 l 226 1304 q 417 1071 300 1169 l 399 1047 l 213 1172 z "},"Ŀ":{"ha":633,"x_min":29,"x_max":663,"o":"m 654 -15 q 337 0 515 0 q 35 -14 158 0 l 29 21 q 163 53 83 39 q 178 411 178 167 l 178 493 q 163 851 178 736 q 29 881 92 861 l 35 915 q 228 904 108 904 q 451 915 349 904 l 456 882 q 303 856 372 863 q 285 447 285 733 q 299 58 285 161 q 422 51 344 51 q 556 76 500 51 q 582 232 572 128 l 617 232 q 663 13 622 85 l 654 -15 m 589 492 q 555 446 579 474 q 514 407 531 418 q 473 446 497 418 q 439 492 449 474 q 471 530 447 508 q 514 561 494 551 q 556 528 532 550 q 589 492 579 507 z "},"ŀ":{"ha":708,"x_min":60,"x_max":481,"o":"m 258 319 q 258 192 258 279 q 267 42 258 106 q 354 15 306 33 l 351 -11 q 204 0 274 0 q 64 -8 135 0 l 60 18 q 142 46 101 36 q 156 319 154 135 l 158 579 q 158 709 158 615 q 149 901 158 803 q 74 913 113 913 l 74 942 q 339 988 213 951 l 346 963 q 281 922 319 942 q 261 579 264 831 l 258 319 m 481 511 q 447 465 471 493 q 406 426 422 438 q 365 465 389 438 q 331 511 340 493 q 363 549 339 528 q 406 581 386 571 q 447 548 424 569 q 481 511 471 526 z "},"Ł":{"ha":633,"x_min":29,"x_max":663,"o":"m 654 -15 q 337 0 515 0 q 35 -14 158 0 l 29 21 q 163 53 83 39 q 178 411 178 167 l 178 428 q 46 351 94 388 l 40 356 q 31 400 33 393 l 178 475 l 178 493 q 163 851 178 736 q 29 881 92 861 l 35 915 q 228 904 108 904 q 451 915 349 904 l 456 882 q 303 856 372 863 q 285 529 288 758 l 374 575 q 476 631 453 617 q 506 597 488 614 l 508 592 l 285 481 q 299 58 285 158 q 422 51 344 51 q 556 76 500 51 q 582 232 572 128 l 617 232 q 663 13 622 85 l 654 -15 z "},"ł":{"ha":414,"x_min":31,"x_max":417,"o":"m 258 319 q 258 192 258 279 q 267 42 258 106 q 354 15 306 33 l 351 -11 q 204 0 274 0 q 64 -8 135 0 l 60 18 q 142 46 101 36 q 156 319 154 135 l 157 431 q 46 365 88 394 l 40 369 q 31 414 33 407 l 157 479 l 158 579 q 158 709 158 615 q 149 901 158 803 q 74 913 113 913 l 74 942 q 339 988 213 951 l 346 963 q 281 922 319 942 q 261 579 264 831 l 260 532 l 282 543 q 385 599 361 585 q 414 565 396 582 l 417 560 l 260 481 l 258 319 z "},"Ń":{"ha":981,"x_min":29,"x_max":956,"o":"m 769 1107 l 483 1003 l 472 1031 q 690 1206 586 1081 q 749 1193 721 1203 q 763 1151 756 1181 q 769 1107 771 1121 m 35 915 q 215 904 104 904 q 386 913 325 904 l 393 890 q 361 873 376 885 q 346 847 346 861 q 417 692 346 814 q 728 194 488 569 l 733 197 l 733 397 q 710 750 733 631 q 626 890 686 869 l 632 910 q 772 904 675 904 q 951 915 869 904 l 956 883 q 818 856 857 860 q 800 493 800 719 l 800 411 q 818 49 800 151 q 951 24 889 40 l 946 -11 q 798 0 872 0 q 678 -4 724 0 q 260 743 678 92 l 254 740 l 254 507 q 306 49 254 153 q 457 22 382 42 l 454 -11 q 231 0 351 0 q 38 -11 111 0 l 32 24 q 165 53 94 43 q 181 411 181 167 l 181 493 q 163 851 181 718 q 29 881 92 861 l 35 915 z "},"ń":{"ha":760,"x_min":53,"x_max":711,"o":"m 535 404 q 471 560 535 560 q 343 492 417 560 q 244 365 269 424 q 260 42 244 164 q 347 15 297 33 l 344 -11 q 197 0 267 0 q 57 -8 128 0 l 53 18 q 135 46 94 36 q 147 264 147 140 l 147 381 q 138 607 147 508 q 63 618 104 618 l 63 647 q 250 674 151 651 l 260 668 q 244 451 244 572 l 250 450 q 373 584 297 515 q 510 674 449 653 q 619 597 594 674 q 636 464 636 543 q 636 436 636 451 l 629 46 q 711 18 669 36 l 707 -8 q 594 0 640 0 q 506 -3 547 0 l 506 17 q 533 374 528 125 q 535 404 535 388 m 500 964 q 530 965 514 965 q 560 963 546 965 q 581 923 569 951 q 594 881 593 894 l 332 729 l 317 754 q 417 847 368 789 q 500 964 467 906 z "},"Ň":{"ha":981,"x_min":29,"x_max":956,"o":"m 500 1125 l 724 1229 l 738 1203 q 514 993 610 1122 l 486 993 q 263 1203 390 1122 l 276 1229 l 500 1125 m 35 915 q 215 904 104 904 q 386 913 325 904 l 393 890 q 361 873 376 885 q 346 847 346 861 q 417 692 346 814 q 728 194 488 569 l 733 197 l 733 397 q 710 750 733 631 q 626 890 686 869 l 632 910 q 772 904 675 904 q 951 915 869 904 l 956 883 q 818 856 857 860 q 800 493 800 719 l 800 411 q 818 49 800 151 q 951 24 889 40 l 946 -11 q 798 0 872 0 q 678 -4 724 0 q 260 743 678 92 l 254 740 l 254 507 q 306 49 254 153 q 457 22 382 42 l 454 -11 q 231 0 351 0 q 38 -11 111 0 l 32 24 q 165 53 94 43 q 181 411 181 167 l 181 493 q 163 851 181 718 q 29 881 92 861 l 35 915 z "},"ň":{"ha":760,"x_min":53,"x_max":711,"o":"m 535 404 q 471 560 535 560 q 343 492 417 560 q 244 365 269 424 q 260 42 244 164 q 347 15 297 33 l 344 -11 q 197 0 267 0 q 57 -8 128 0 l 53 18 q 135 46 94 36 q 147 264 147 140 l 147 381 q 138 607 147 508 q 63 618 104 618 l 63 647 q 250 674 151 651 l 260 668 q 244 451 244 572 l 250 450 q 373 584 297 515 q 510 674 449 653 q 619 597 594 674 q 636 464 636 543 q 636 436 636 451 l 629 46 q 711 18 669 36 l 707 -8 q 594 0 640 0 q 506 -3 547 0 l 506 17 q 533 374 528 125 q 535 404 535 388 m 203 979 l 389 854 l 575 979 l 593 956 q 403 722 476 857 l 375 722 q 185 956 301 857 l 203 979 z "},"Ō":{"ha":836,"x_min":58,"x_max":778,"o":"m 418 -21 q 157 87 256 -21 q 58 378 58 194 q 162 720 58 561 q 435 925 265 879 q 691 824 604 925 q 778 534 778 722 q 683 195 778 346 q 418 -21 588 44 m 383 825 q 253 778 306 825 q 182 471 182 653 q 299 140 182 254 q 445 79 361 79 q 585 128 529 79 q 654 431 654 256 q 599 703 654 593 q 383 825 538 825 m 331 1147 q 481 1143 399 1143 q 625 1149 563 1143 l 636 1142 l 624 1078 l 268 1074 l 256 1082 l 268 1151 l 331 1147 z "},"ō":{"ha":678,"x_min":63,"x_max":615,"o":"m 339 -21 q 140 60 218 -21 q 63 274 63 142 q 142 523 63 406 q 353 674 222 640 q 549 599 482 674 q 615 392 615 524 q 538 143 615 260 q 339 -21 460 26 m 315 588 q 219 554 257 588 q 174 353 174 467 q 225 152 174 239 q 363 65 276 65 q 460 100 421 65 q 504 306 504 185 q 458 508 504 428 q 315 588 411 588 m 244 886 q 394 882 313 882 q 539 888 476 882 l 550 881 l 538 817 l 182 813 l 169 821 l 182 890 l 244 886 z "},"Ŏ":{"ha":836,"x_min":58,"x_max":778,"o":"m 418 -21 q 157 87 256 -21 q 58 378 58 194 q 162 720 58 561 q 435 925 265 879 q 691 824 604 925 q 778 534 778 722 q 683 195 778 346 q 418 -21 588 44 m 383 825 q 253 778 306 825 q 182 471 182 653 q 299 140 182 254 q 445 79 361 79 q 585 128 529 79 q 654 431 654 256 q 599 703 654 593 q 383 825 538 825 m 492 1090 q 640 1186 589 1090 l 665 1171 q 585 1065 636 1111 q 472 999 533 1019 q 329 1044 404 999 q 228 1151 254 1090 l 229 1164 q 328 1186 289 1167 l 333 1186 q 396 1115 353 1140 q 492 1090 439 1090 z "},"ŏ":{"ha":678,"x_min":63,"x_max":615,"o":"m 339 -21 q 140 60 218 -21 q 63 274 63 142 q 142 523 63 406 q 353 674 222 640 q 549 599 482 674 q 615 392 615 524 q 538 143 615 260 q 339 -21 460 26 m 315 588 q 219 554 257 588 q 174 353 174 467 q 225 152 174 239 q 363 65 276 65 q 460 100 421 65 q 504 306 504 185 q 458 508 504 428 q 315 588 411 588 m 406 853 q 554 949 503 853 l 579 933 q 499 828 550 874 q 386 761 447 782 q 243 807 318 761 q 142 914 168 853 l 143 926 q 242 949 203 929 l 247 949 q 310 878 267 903 q 406 853 353 853 z "},"Ő":{"ha":836,"x_min":58,"x_max":793,"o":"m 418 -21 q 157 87 256 -21 q 58 378 58 194 q 162 720 58 561 q 435 925 265 879 q 691 824 604 925 q 778 534 778 722 q 683 195 778 346 q 418 -21 588 44 m 383 825 q 253 778 306 825 q 182 471 182 653 q 299 140 182 254 q 445 79 361 79 q 585 128 529 79 q 654 431 654 256 q 599 703 654 593 q 383 825 538 825 m 558 1121 l 293 1003 l 282 1031 q 500 1206 396 1081 q 538 1199 511 1204 q 558 1121 558 1161 m 793 1121 l 528 1003 l 517 1031 q 735 1206 631 1081 q 772 1199 746 1204 q 793 1121 793 1161 z "},"ő":{"ha":678,"x_min":63,"x_max":688,"o":"m 339 -21 q 140 60 218 -21 q 63 274 63 142 q 142 523 63 406 q 353 674 222 640 q 549 599 482 674 q 615 392 615 524 q 538 143 615 260 q 339 -21 460 26 m 315 588 q 219 554 257 588 q 174 353 174 467 q 225 152 174 239 q 363 65 276 65 q 460 100 421 65 q 504 306 504 185 q 458 508 504 428 q 315 588 411 588 m 607 964 q 630 965 618 965 q 653 963 642 965 q 688 894 678 932 l 439 729 l 424 754 q 524 847 475 789 q 607 964 574 906 m 383 964 q 406 965 394 965 q 429 963 418 965 q 464 894 454 932 l 215 729 l 200 754 q 301 847 251 789 q 383 964 350 906 z "},"Œ":{"ha":1146,"x_min":58,"x_max":1117,"o":"m 547 919 q 643 912 581 919 q 828 904 706 904 q 1111 919 950 904 l 1117 892 q 1035 672 1044 818 l 1000 672 q 988 824 988 732 q 849 853 928 853 q 732 846 769 853 q 697 507 708 774 q 804 497 742 497 q 956 557 928 497 l 983 551 q 971 445 971 507 q 979 324 971 383 l 947 318 q 919 442 926 371 q 805 446 867 446 q 696 439 743 446 l 696 379 q 747 142 696 206 q 887 89 792 89 q 1090 197 982 89 l 1110 179 q 856 -21 994 26 q 619 113 683 -21 l 614 113 q 353 -21 513 10 q 137 102 215 3 q 58 342 58 201 q 121 610 58 483 q 297 820 183 736 q 547 919 410 904 m 599 801 q 451 833 525 833 q 335 803 376 833 q 196 390 196 665 q 259 165 196 260 q 435 69 322 69 q 542 99 501 69 q 574 181 567 132 q 582 349 582 231 q 590 622 582 468 q 599 801 599 775 z "},"œ":{"ha":1017,"x_min":63,"x_max":997,"o":"m 339 -21 q 140 60 218 -21 q 63 274 63 142 q 142 523 63 406 q 353 674 222 640 q 578 538 518 674 l 583 538 q 775 674 661 642 q 906 637 868 674 q 943 507 943 600 q 929 417 943 454 q 997 406 958 406 l 996 376 q 978 376 988 376 q 606 331 822 376 q 678 100 606 146 q 756 79 708 79 q 926 153 843 79 l 942 139 q 739 -21 863 31 q 519 121 575 -21 l 514 121 q 339 -21 446 21 m 315 588 q 219 554 257 588 q 174 353 174 467 q 225 152 174 239 q 363 65 276 65 q 450 100 411 65 q 494 307 494 185 q 451 508 494 429 q 315 588 408 588 m 832 424 q 815 551 832 515 q 742 588 797 588 q 646 554 686 588 q 606 367 608 476 q 832 424 719 404 z "},"Ŕ":{"ha":860,"x_min":29,"x_max":885,"o":"m 49 901 l 449 914 q 660 868 589 914 q 731 700 731 822 q 557 464 731 531 l 751 53 q 885 24 822 43 l 879 -11 q 702 0 797 0 q 564 -6 607 0 l 558 14 q 582 93 582 38 q 451 447 582 204 q 371 454 417 454 l 375 485 l 392 485 q 546 534 492 485 q 600 678 600 583 q 558 817 600 772 q 425 863 515 863 q 319 844 369 863 q 307 435 307 714 q 322 53 307 157 q 456 24 393 43 l 450 -11 q 256 0 376 0 q 33 -11 136 0 l 29 22 q 182 49 108 42 q 200 448 200 182 q 185 844 200 714 q 49 867 118 867 l 49 901 m 676 1107 l 390 1003 l 379 1031 q 597 1206 493 1081 q 656 1193 628 1203 q 670 1151 663 1181 q 676 1107 678 1121 z "},"ŕ":{"ha":529,"x_min":53,"x_max":540,"o":"m 374 -11 q 219 0 303 0 q 57 -8 136 0 l 53 18 q 135 46 94 36 q 147 264 147 140 l 147 381 q 138 607 147 508 q 63 618 104 618 l 63 647 q 250 674 151 651 l 260 668 q 244 451 244 572 l 250 450 q 322 578 269 506 q 418 674 374 651 q 540 651 481 674 l 540 632 q 481 458 488 565 l 450 458 q 447 543 450 513 q 400 557 429 557 q 312 491 358 557 q 244 365 265 425 q 260 42 244 164 q 376 15 329 32 l 374 -11 m 428 964 q 458 965 442 965 q 488 963 474 965 q 509 923 497 951 q 522 881 521 894 l 260 729 l 244 754 q 345 847 296 789 q 428 964 394 906 z "},"Ŗ":{"ha":860,"x_min":29,"x_max":885,"o":"m 49 901 l 449 914 q 660 868 589 914 q 731 700 731 822 q 557 464 731 531 l 751 53 q 885 24 822 43 l 879 -11 q 702 0 797 0 q 564 -6 607 0 l 558 14 q 582 93 582 38 q 451 447 582 204 q 371 454 417 454 l 375 485 l 392 485 q 546 534 492 485 q 600 678 600 583 q 558 817 600 772 q 425 863 515 863 q 319 844 369 863 q 307 435 307 714 q 322 53 307 157 q 456 24 393 43 l 450 -11 q 256 0 376 0 q 33 -11 136 0 l 29 22 q 182 49 108 42 q 200 448 200 182 q 185 844 200 714 q 49 867 118 867 l 49 901 m 526 -117 q 379 -299 519 -226 l 365 -281 q 432 -186 424 -237 q 376 -117 396 -153 q 408 -78 385 -100 q 451 -47 432 -57 q 493 -80 469 -58 q 526 -117 517 -101 z "},"ŗ":{"ha":529,"x_min":53,"x_max":540,"o":"m 374 -11 q 219 0 303 0 q 57 -8 136 0 l 53 18 q 135 46 94 36 q 147 264 147 140 l 147 381 q 138 607 147 508 q 63 618 104 618 l 63 647 q 250 674 151 651 l 260 668 q 244 451 244 572 l 250 450 q 322 578 269 506 q 418 674 374 651 q 540 651 481 674 l 540 632 q 481 458 488 565 l 450 458 q 447 543 450 513 q 400 557 429 557 q 312 491 358 557 q 244 365 265 425 q 260 42 244 164 q 376 15 329 32 l 374 -11 m 285 -117 q 138 -299 278 -226 l 124 -281 q 190 -186 182 -237 q 135 -117 154 -153 q 167 -78 143 -100 q 210 -47 190 -57 q 251 -80 228 -58 q 285 -117 275 -101 z "},"Ř":{"ha":860,"x_min":29,"x_max":885,"o":"m 425 1125 l 649 1229 l 663 1203 q 439 993 535 1122 l 411 993 q 188 1203 315 1122 l 201 1229 l 425 1125 m 49 901 l 449 914 q 660 868 589 914 q 731 700 731 822 q 557 464 731 531 l 751 53 q 885 24 822 43 l 879 -11 q 702 0 797 0 q 564 -6 607 0 l 558 14 q 582 93 582 38 q 451 447 582 204 q 371 454 417 454 l 375 485 l 392 485 q 546 534 492 485 q 600 678 600 583 q 558 817 600 772 q 425 863 515 863 q 319 844 369 863 q 307 435 307 714 q 322 53 307 157 q 456 24 393 43 l 450 -11 q 256 0 376 0 q 33 -11 136 0 l 29 22 q 182 49 108 42 q 200 448 200 182 q 185 844 200 714 q 49 867 118 867 l 49 901 z "},"ř":{"ha":529,"x_min":53,"x_max":540,"o":"m 374 -11 q 219 0 303 0 q 57 -8 136 0 l 53 18 q 135 46 94 36 q 147 264 147 140 l 147 381 q 138 607 147 508 q 63 618 104 618 l 63 647 q 250 674 151 651 l 260 668 q 244 451 244 572 l 250 450 q 322 578 269 506 q 418 674 374 651 q 540 651 481 674 l 540 632 q 481 458 488 565 l 450 458 q 447 543 450 513 q 400 557 429 557 q 312 491 358 557 q 244 365 265 425 q 260 42 244 164 q 376 15 329 32 l 374 -11 m 132 979 l 318 854 l 504 979 l 522 956 q 332 722 406 857 l 304 722 q 114 956 231 857 l 132 979 z "},"Ś":{"ha":646,"x_min":15,"x_max":621,"o":"m 579 1107 l 293 1003 l 282 1031 q 500 1206 396 1081 q 558 1193 531 1203 q 573 1151 565 1181 q 579 1107 581 1121 m 158 181 l 161 125 l 161 121 q 319 89 240 89 q 445 126 399 89 q 492 233 492 163 q 432 327 492 275 q 300 421 372 379 q 168 516 228 463 q 108 614 108 569 q 198 802 108 711 q 394 925 288 893 q 621 901 514 925 l 621 874 q 540 668 549 807 l 506 668 q 499 797 506 742 q 366 825 439 825 q 247 794 293 825 q 201 707 201 764 q 261 614 201 665 q 392 522 321 563 q 524 428 464 481 q 583 331 583 375 q 494 125 583 229 q 299 -21 404 21 q 94 4 189 -21 q 36 -37 65 -10 l 15 -18 q 122 250 111 83 l 157 250 l 157 231 l 158 181 z "},"ś":{"ha":543,"x_min":39,"x_max":524,"o":"m 129 153 l 132 94 l 132 89 q 253 65 196 65 q 348 90 310 65 q 386 174 386 115 q 240 292 386 217 q 140 359 186 319 q 94 436 94 399 q 173 584 94 510 q 321 674 251 658 q 493 651 410 674 l 493 632 q 433 486 439 565 l 403 486 q 400 571 403 540 q 297 588 346 588 q 210 569 249 588 q 172 508 172 550 q 218 450 172 483 q 318 390 264 417 q 418 322 372 363 q 464 244 464 282 q 387 81 464 160 q 231 -21 310 3 q 39 8 131 -21 l 39 28 q 99 174 93 94 l 129 174 q 129 153 129 174 m 429 964 q 459 965 443 965 q 489 963 475 965 q 510 923 499 951 q 524 881 522 894 l 261 729 l 246 754 q 347 847 297 789 q 429 964 396 906 z "},"Ŝ":{"ha":646,"x_min":15,"x_max":621,"o":"m 603 993 l 379 1097 l 156 993 l 142 1019 q 365 1229 269 1100 l 393 1229 q 617 1019 489 1100 l 603 993 m 158 181 l 161 125 l 161 121 q 319 89 240 89 q 445 126 399 89 q 492 233 492 163 q 432 327 492 275 q 300 421 372 379 q 168 516 228 463 q 108 614 108 569 q 198 802 108 711 q 394 925 288 893 q 621 901 514 925 l 621 874 q 540 668 549 807 l 506 668 q 499 797 506 742 q 366 825 439 825 q 247 794 293 825 q 201 707 201 764 q 261 614 201 665 q 392 522 321 563 q 524 428 464 481 q 583 331 583 375 q 494 125 583 229 q 299 -21 404 21 q 94 4 189 -21 q 36 -37 65 -10 l 15 -18 q 122 250 111 83 l 157 250 l 157 231 l 158 181 z "},"ŝ":{"ha":543,"x_min":39,"x_max":525,"o":"m 129 153 l 132 94 l 132 89 q 253 65 196 65 q 348 90 310 65 q 386 174 386 115 q 240 292 386 217 q 140 359 186 319 q 94 436 94 399 q 173 584 94 510 q 321 674 251 658 q 493 651 410 674 l 493 632 q 433 486 439 565 l 403 486 q 400 571 403 540 q 297 588 346 588 q 210 569 249 588 q 172 508 172 550 q 218 450 172 483 q 318 390 264 417 q 418 322 372 363 q 464 244 464 282 q 387 81 464 160 q 231 -21 310 3 q 39 8 131 -21 l 39 28 q 99 174 93 94 l 129 174 q 129 153 129 174 m 321 850 l 135 725 l 117 749 q 307 982 233 847 l 335 982 q 525 749 408 847 l 507 725 l 321 850 z "},"Ş":{"ha":646,"x_min":15,"x_max":621,"o":"m 158 181 l 161 125 l 161 121 q 319 89 240 89 q 445 126 399 89 q 492 233 492 163 q 432 327 492 275 q 300 421 372 379 q 168 516 228 463 q 108 614 108 569 q 198 802 108 711 q 394 925 288 893 q 621 901 514 925 l 621 874 q 540 668 549 807 l 506 668 q 499 797 506 742 q 366 825 439 825 q 247 794 293 825 q 201 707 201 764 q 261 614 201 665 q 392 522 321 563 q 524 428 464 481 q 583 331 583 375 q 494 125 583 229 q 299 -21 404 21 q 94 4 189 -21 q 36 -37 65 -10 l 15 -18 q 122 250 111 83 l 157 250 l 157 231 l 158 181 m 297 -247 q 333 -240 322 -247 q 346 -197 346 -222 q 231 -135 346 -135 l 222 -129 l 275 19 l 315 22 l 282 -64 l 288 -68 q 391 -97 351 -68 q 431 -185 431 -126 q 374 -253 411 -222 q 297 -299 338 -285 q 175 -269 236 -299 q 197 -215 189 -243 l 203 -212 q 297 -247 247 -247 z "},"ş":{"ha":543,"x_min":39,"x_max":493,"o":"m 129 153 l 132 94 l 132 89 q 253 65 196 65 q 348 90 310 65 q 386 174 386 115 q 240 292 386 217 q 140 359 186 319 q 94 436 94 399 q 173 584 94 510 q 321 674 251 658 q 493 651 410 674 l 493 632 q 433 486 439 565 l 403 486 q 400 571 403 540 q 297 588 346 588 q 210 569 249 588 q 172 508 172 550 q 218 450 172 483 q 318 390 264 417 q 418 322 372 363 q 464 244 464 282 q 387 81 464 160 q 231 -21 310 3 q 39 8 131 -21 l 39 28 q 99 174 93 94 l 129 174 q 129 153 129 174 m 244 -247 q 281 -240 269 -247 q 293 -197 293 -222 q 178 -135 293 -135 l 169 -129 l 222 19 l 263 22 l 229 -64 l 235 -68 q 338 -97 299 -68 q 378 -185 378 -126 q 322 -253 358 -222 q 244 -299 285 -285 q 122 -269 183 -299 q 144 -215 136 -243 l 150 -212 q 244 -247 194 -247 z "},"Š":{"ha":646,"x_min":15,"x_max":621,"o":"m 379 1125 l 603 1229 l 617 1203 q 393 993 489 1122 l 365 993 q 142 1203 269 1122 l 156 1229 l 379 1125 m 158 181 l 161 125 l 161 121 q 319 89 240 89 q 445 126 399 89 q 492 233 492 163 q 432 327 492 275 q 300 421 372 379 q 168 516 228 463 q 108 614 108 569 q 198 802 108 711 q 394 925 288 893 q 621 901 514 925 l 621 874 q 540 668 549 807 l 506 668 q 499 797 506 742 q 366 825 439 825 q 247 794 293 825 q 201 707 201 764 q 261 614 201 665 q 392 522 321 563 q 524 428 464 481 q 583 331 583 375 q 494 125 583 229 q 299 -21 404 21 q 94 4 189 -21 q 36 -37 65 -10 l 15 -18 q 122 250 111 83 l 157 250 l 157 231 l 158 181 z "},"š":{"ha":543,"x_min":39,"x_max":524,"o":"m 129 153 l 132 94 l 132 89 q 253 65 196 65 q 348 90 310 65 q 386 174 386 115 q 240 292 386 217 q 140 359 186 319 q 94 436 94 399 q 173 584 94 510 q 321 674 251 658 q 493 651 410 674 l 493 632 q 433 486 439 565 l 403 486 q 400 571 403 540 q 297 588 346 588 q 210 569 249 588 q 172 508 172 550 q 218 450 172 483 q 318 390 264 417 q 418 322 372 363 q 464 244 464 282 q 387 81 464 160 q 231 -21 310 3 q 39 8 131 -21 l 39 28 q 99 174 93 94 l 129 174 q 129 153 129 174 m 133 979 l 319 854 l 506 979 l 524 956 q 333 722 407 857 l 306 722 q 115 956 232 857 l 133 979 z "},"Ţ":{"ha":721,"x_min":-18,"x_max":761,"o":"m 489 853 q 428 846 451 853 q 414 467 414 751 q 432 49 414 182 q 585 22 501 42 l 581 -11 q 358 0 478 0 q 164 -11 238 0 l 158 24 q 292 53 221 43 q 307 411 307 167 l 307 493 q 289 846 307 636 q 207 853 265 853 q 90 828 149 853 q 63 672 72 769 l 28 672 q -18 892 22 821 l -10 919 q 373 904 124 904 q 756 919 622 904 l 761 892 q 699 796 715 843 q 679 672 683 749 l 644 672 q 632 824 632 732 q 489 853 572 853 m 378 -247 q 414 -240 403 -247 q 426 -197 426 -222 q 311 -135 426 -135 l 303 -129 l 356 19 l 396 22 l 363 -64 l 368 -68 q 472 -97 432 -68 q 511 -185 511 -126 q 455 -253 492 -222 q 378 -299 418 -285 q 256 -269 317 -299 q 278 -215 269 -243 l 283 -212 q 378 -247 328 -247 z "},"ţ":{"ha":478,"x_min":61,"x_max":450,"o":"m 236 271 q 278 79 236 79 q 436 153 354 79 l 450 139 q 254 -21 369 26 q 153 51 175 -21 q 133 263 133 113 q 133 319 133 289 l 139 596 l 64 596 l 61 599 q 65 629 61 621 q 218 788 182 706 q 257 792 235 792 l 263 789 q 246 654 249 706 l 440 661 l 446 656 q 428 590 436 631 q 242 594 357 594 l 236 319 q 236 271 236 294 m 272 -247 q 308 -240 297 -247 q 321 -197 321 -222 q 206 -135 321 -135 l 197 -129 l 250 19 l 290 22 l 257 -64 l 263 -68 q 366 -97 326 -68 q 406 -185 406 -126 q 349 -253 386 -222 q 272 -299 313 -285 q 150 -269 211 -299 q 172 -215 164 -243 l 178 -212 q 272 -247 222 -247 z "},"Ť":{"ha":721,"x_min":-18,"x_max":761,"o":"m 367 1125 l 590 1229 l 604 1203 q 381 993 476 1122 l 353 993 q 129 1203 257 1122 l 143 1229 l 367 1125 m 489 853 q 428 846 451 853 q 414 467 414 751 q 432 49 414 182 q 585 22 501 42 l 581 -11 q 358 0 478 0 q 164 -11 238 0 l 158 24 q 292 53 221 43 q 307 411 307 167 l 307 493 q 289 846 307 636 q 207 853 265 853 q 90 828 149 853 q 63 672 72 769 l 28 672 q -18 892 22 821 l -10 919 q 373 904 124 904 q 756 919 622 904 l 761 892 q 699 796 715 843 q 679 672 683 749 l 644 672 q 632 824 632 732 q 489 853 572 853 z "},"Ŧ":{"ha":721,"x_min":-18,"x_max":761,"o":"m 489 853 q 428 846 451 853 q 414 515 414 757 l 468 518 q 585 525 556 522 q 597 482 590 497 l 597 475 l 414 472 q 432 49 414 179 q 585 22 501 42 l 581 -11 q 358 0 478 0 q 164 -11 238 0 l 158 24 q 292 53 221 43 q 307 411 307 167 l 307 469 l 292 469 q 128 457 192 467 l 124 463 q 133 507 132 490 l 307 513 q 289 846 306 614 q 207 853 265 853 q 90 828 149 853 q 63 672 72 769 l 28 672 q -18 892 22 821 l -10 919 q 373 904 124 904 q 756 919 622 904 l 761 892 q 699 796 715 843 q 679 672 683 749 l 644 672 q 632 824 632 732 q 489 853 572 853 z "},"ŧ":{"ha":478,"x_min":61,"x_max":450,"o":"m 236 271 q 278 79 236 79 q 436 153 354 79 l 450 139 q 254 -21 369 26 q 153 51 175 -21 q 133 263 133 113 q 133 319 133 289 l 135 375 q 65 368 94 374 l 61 374 q 71 418 69 401 l 135 419 l 139 596 l 64 596 l 61 599 q 65 629 61 621 q 218 788 182 706 q 257 792 235 792 l 263 789 q 246 654 249 706 l 440 661 l 446 656 q 428 590 436 631 q 242 594 357 594 l 238 424 l 310 426 q 428 433 400 431 q 440 390 433 406 l 440 383 l 238 381 l 236 319 q 236 271 236 294 z "},"Ũ":{"ha":924,"x_min":19,"x_max":914,"o":"m 274 763 q 254 458 254 588 q 258 287 254 328 q 275 207 263 246 q 308 143 288 168 q 456 89 356 89 q 629 156 556 89 q 636 517 636 336 q 621 856 636 697 q 488 885 550 865 l 493 915 q 699 904 578 904 q 910 915 821 904 l 914 886 q 761 860 835 867 q 743 493 743 757 l 743 411 q 761 49 743 151 q 914 22 835 42 l 910 -11 q 729 0 821 0 q 613 -1 638 0 l 608 18 q 626 117 621 33 q 424 -21 546 26 q 206 70 269 -21 q 143 335 143 161 q 153 586 143 414 q 163 790 163 758 q 153 851 163 822 q 19 881 82 861 l 25 915 q 202 904 107 904 q 340 910 297 904 l 346 890 q 274 763 283 856 m 417 1175 q 572 1132 499 1132 q 672 1165 644 1132 l 697 1150 q 553 1036 619 1065 q 452 1058 524 1036 q 351 1079 381 1079 q 264 1046 292 1079 l 239 1061 q 417 1175 317 1146 z "},"ũ":{"ha":753,"x_min":49,"x_max":700,"o":"m 218 249 q 282 93 218 93 q 410 161 336 93 q 508 288 483 229 q 493 611 508 489 q 406 638 456 619 l 408 664 q 556 653 486 653 q 696 661 625 653 l 700 635 q 618 607 658 617 q 606 389 606 513 l 606 272 q 615 46 606 144 q 690 35 649 35 l 690 6 q 503 -21 601 1 l 493 -18 q 508 201 508 78 l 503 203 q 380 69 456 138 q 243 -21 304 0 q 133 56 158 -21 q 117 189 117 110 q 117 217 117 201 l 124 607 q 49 618 90 618 l 49 647 q 236 674 138 651 l 246 668 q 219 279 224 533 q 218 249 218 265 m 343 921 q 498 878 425 878 q 599 911 571 878 l 624 896 q 479 782 546 811 q 378 803 450 782 q 278 825 307 825 q 190 792 218 825 l 165 807 q 343 921 243 892 z "},"Ū":{"ha":924,"x_min":19,"x_max":914,"o":"m 274 763 q 254 458 254 588 q 258 287 254 328 q 275 207 263 246 q 308 143 288 168 q 456 89 356 89 q 629 156 556 89 q 636 517 636 336 q 621 856 636 697 q 488 885 550 865 l 493 915 q 699 904 578 904 q 910 915 821 904 l 914 886 q 761 860 835 867 q 743 493 743 757 l 743 411 q 761 49 743 151 q 914 22 835 42 l 910 -11 q 729 0 821 0 q 613 -1 638 0 l 608 18 q 626 117 621 33 q 424 -21 546 26 q 206 70 269 -21 q 143 335 143 161 q 153 586 143 414 q 163 790 163 758 q 153 851 163 822 q 19 881 82 861 l 25 915 q 202 904 107 904 q 340 910 297 904 l 346 890 q 274 763 283 856 m 361 1147 q 511 1143 429 1143 q 656 1149 593 1143 l 667 1142 l 654 1078 l 299 1074 l 286 1082 l 299 1151 l 361 1147 z "},"ū":{"ha":753,"x_min":49,"x_max":700,"o":"m 218 249 q 282 93 218 93 q 410 161 336 93 q 508 288 483 229 q 493 611 508 489 q 406 638 456 619 l 408 664 q 556 653 486 653 q 696 661 625 653 l 700 635 q 618 607 658 617 q 606 389 606 513 l 606 272 q 615 46 606 144 q 690 35 649 35 l 690 6 q 503 -21 601 1 l 493 -18 q 508 201 508 78 l 503 203 q 380 69 456 138 q 243 -21 304 0 q 133 56 158 -21 q 117 189 117 110 q 117 217 117 201 l 124 607 q 49 618 90 618 l 49 647 q 236 674 138 651 l 246 668 q 219 279 224 533 q 218 249 218 265 m 279 886 q 429 882 347 882 q 574 888 511 882 l 585 881 l 572 817 l 217 813 l 204 821 l 217 890 l 279 886 z "},"Ŭ":{"ha":924,"x_min":19,"x_max":914,"o":"m 274 763 q 254 458 254 588 q 258 287 254 328 q 275 207 263 246 q 308 143 288 168 q 456 89 356 89 q 629 156 556 89 q 636 517 636 336 q 621 856 636 697 q 488 885 550 865 l 493 915 q 699 904 578 904 q 910 915 821 904 l 914 886 q 761 860 835 867 q 743 493 743 757 l 743 411 q 761 49 743 151 q 914 22 835 42 l 910 -11 q 729 0 821 0 q 613 -1 638 0 l 608 18 q 626 117 621 33 q 424 -21 546 26 q 206 70 269 -21 q 143 335 143 161 q 153 586 143 414 q 163 790 163 758 q 153 851 163 822 q 19 881 82 861 l 25 915 q 202 904 107 904 q 340 910 297 904 l 346 890 q 274 763 283 856 m 522 1090 q 671 1186 619 1090 l 696 1171 q 615 1065 667 1111 q 503 999 564 1019 q 360 1044 435 999 q 258 1151 285 1090 l 260 1164 q 358 1186 319 1167 l 364 1186 q 426 1115 383 1140 q 522 1090 469 1090 z "},"ŭ":{"ha":753,"x_min":49,"x_max":700,"o":"m 218 249 q 282 93 218 93 q 410 161 336 93 q 508 288 483 229 q 493 611 508 489 q 406 638 456 619 l 408 664 q 556 653 486 653 q 696 661 625 653 l 700 635 q 618 607 658 617 q 606 389 606 513 l 606 272 q 615 46 606 144 q 690 35 649 35 l 690 6 q 503 -21 601 1 l 493 -18 q 508 201 508 78 l 503 203 q 380 69 456 138 q 243 -21 304 0 q 133 56 158 -21 q 117 189 117 110 q 117 217 117 201 l 124 607 q 49 618 90 618 l 49 647 q 236 674 138 651 l 246 668 q 219 279 224 533 q 218 249 218 265 m 442 853 q 590 949 539 853 l 615 933 q 535 828 586 874 q 422 761 483 782 q 279 807 354 761 q 178 914 204 853 l 179 926 q 278 949 239 929 l 283 949 q 346 878 303 903 q 442 853 389 853 z "},"Ů":{"ha":924,"x_min":19,"x_max":914,"o":"m 274 763 q 254 458 254 588 q 258 287 254 328 q 275 207 263 246 q 308 143 288 168 q 456 89 356 89 q 629 156 556 89 q 636 517 636 336 q 621 856 636 697 q 488 885 550 865 l 493 915 q 699 904 578 904 q 910 915 821 904 l 914 886 q 761 860 835 867 q 743 493 743 757 l 743 411 q 761 49 743 151 q 914 22 835 42 l 910 -11 q 729 0 821 0 q 613 -1 638 0 l 608 18 q 626 117 621 33 q 424 -21 546 26 q 206 70 269 -21 q 143 335 143 161 q 153 586 143 414 q 163 790 163 758 q 153 851 163 822 q 19 881 82 861 l 25 915 q 202 904 107 904 q 340 910 297 904 l 346 890 q 274 763 283 856 m 465 978 q 369 1004 408 978 q 331 1083 331 1031 q 372 1176 331 1135 q 472 1229 413 1217 q 599 1126 599 1229 q 562 1034 599 1072 q 465 978 525 996 m 533 1099 q 533 1117 533 1099 q 512 1158 533 1136 q 458 1181 490 1181 q 411 1168 425 1181 q 396 1108 396 1144 q 418 1049 396 1072 q 472 1026 440 1026 q 518 1039 504 1026 q 533 1099 533 1061 z "},"ů":{"ha":753,"x_min":49,"x_max":700,"o":"m 218 249 q 282 93 218 93 q 410 161 336 93 q 508 288 483 229 q 493 611 508 489 q 406 638 456 619 l 408 664 q 556 653 486 653 q 696 661 625 653 l 700 635 q 618 607 658 617 q 606 389 606 513 l 606 272 q 615 46 606 144 q 690 35 649 35 l 690 6 q 503 -21 601 1 l 493 -18 q 508 201 508 78 l 503 203 q 380 69 456 138 q 243 -21 304 0 q 133 56 158 -21 q 117 189 117 110 q 117 217 117 201 l 124 607 q 49 618 90 618 l 49 647 q 236 674 138 651 l 246 668 q 219 279 224 533 q 218 249 218 265 m 394 729 q 299 756 338 729 q 260 834 260 782 q 301 927 260 886 q 401 981 342 968 q 528 878 528 981 q 491 785 528 824 q 394 729 454 747 m 463 851 q 463 869 463 851 q 441 910 463 888 q 388 932 419 932 q 340 919 356 932 q 325 860 325 897 q 347 801 325 824 q 401 778 369 778 q 447 790 433 778 q 463 851 463 814 z "},"Ű":{"ha":924,"x_min":19,"x_max":914,"o":"m 274 763 q 254 458 254 588 q 258 287 254 328 q 275 207 263 246 q 308 143 288 168 q 456 89 356 89 q 629 156 556 89 q 636 517 636 336 q 621 856 636 697 q 488 885 550 865 l 493 915 q 699 904 578 904 q 910 915 821 904 l 914 886 q 761 860 835 867 q 743 493 743 757 l 743 411 q 761 49 743 151 q 914 22 835 42 l 910 -11 q 729 0 821 0 q 613 -1 638 0 l 608 18 q 626 117 621 33 q 424 -21 546 26 q 206 70 269 -21 q 143 335 143 161 q 153 586 143 414 q 163 790 163 758 q 153 851 163 822 q 19 881 82 861 l 25 915 q 202 904 107 904 q 340 910 297 904 l 346 890 q 274 763 283 856 m 561 1121 l 296 1003 l 285 1031 q 503 1206 399 1081 q 540 1199 514 1204 q 561 1121 561 1161 m 796 1121 l 531 1003 l 519 1031 q 738 1206 633 1081 q 775 1199 749 1204 q 796 1121 796 1161 z "},"ű":{"ha":753,"x_min":49,"x_max":700,"o":"m 218 249 q 282 93 218 93 q 410 161 336 93 q 508 288 483 229 q 493 611 508 489 q 406 638 456 619 l 408 664 q 556 653 486 653 q 696 661 625 653 l 700 635 q 618 607 658 617 q 606 389 606 513 l 606 272 q 615 46 606 144 q 690 35 649 35 l 690 6 q 503 -21 601 1 l 493 -18 q 508 201 508 78 l 503 203 q 380 69 456 138 q 243 -21 304 0 q 133 56 158 -21 q 117 189 117 110 q 117 217 117 201 l 124 607 q 49 618 90 618 l 49 647 q 236 674 138 651 l 246 668 q 219 279 224 533 q 218 249 218 265 m 600 964 q 623 965 611 965 q 646 963 635 965 q 681 894 671 932 l 432 729 l 417 754 q 517 847 468 789 q 600 964 567 906 m 376 964 q 399 965 388 965 q 422 963 411 965 q 457 894 447 932 l 208 729 l 193 754 q 294 847 244 789 q 376 964 343 906 z "},"Ų":{"ha":924,"x_min":19,"x_max":914,"o":"m 274 763 q 254 458 254 588 q 258 287 254 328 q 275 207 263 246 q 308 143 288 168 q 456 89 356 89 q 629 156 556 89 q 636 517 636 336 q 621 856 636 697 q 488 885 550 865 l 493 915 q 699 904 578 904 q 910 915 821 904 l 914 886 q 761 860 835 867 q 743 493 743 757 l 743 411 q 761 49 743 151 q 914 22 835 42 l 910 -11 q 837 -6 871 -6 q 765 -48 803 -6 q 728 -142 728 -90 q 819 -228 728 -228 q 871 -222 850 -228 l 871 -235 q 803 -299 828 -264 q 678 -267 719 -299 q 636 -157 636 -235 q 692 -70 654 -114 q 769 -1 731 -26 q 692 0 747 0 q 613 -1 638 0 l 608 18 q 626 117 621 33 q 424 -21 546 26 q 206 70 269 -21 q 143 335 143 161 q 153 586 143 414 q 163 790 163 758 q 153 851 163 822 q 19 881 82 861 l 25 915 q 202 904 107 904 q 340 910 297 904 l 346 890 q 274 763 283 856 z "},"ų":{"ha":753,"x_min":49,"x_max":700,"o":"m 218 249 q 282 93 218 93 q 410 161 336 93 q 508 288 483 229 q 493 611 508 489 q 406 638 456 619 l 408 664 q 556 653 486 653 q 696 661 625 653 l 700 635 q 618 607 658 617 q 606 389 606 513 l 606 272 q 615 46 606 144 q 690 35 649 35 l 690 6 q 481 -72 532 1 q 458 -142 458 -107 q 550 -228 458 -228 q 601 -222 581 -228 l 601 -235 q 533 -299 558 -264 q 408 -267 450 -299 q 367 -157 367 -235 q 493 -15 399 -78 q 508 201 508 78 l 503 203 q 380 69 456 138 q 243 -21 304 0 q 133 56 158 -21 q 117 189 117 110 q 117 217 117 201 l 124 607 q 49 618 90 618 l 49 647 q 236 674 138 651 l 246 668 q 219 279 224 533 q 218 249 218 265 z "},"Ŵ":{"ha":1258,"x_min":-58,"x_max":1306,"o":"m 879 993 l 656 1097 l 432 993 l 418 1019 q 642 1229 546 1100 l 669 1229 q 893 1019 765 1100 l 879 993 m 518 -6 q 378 0 451 0 q 261 -6 304 0 l 256 14 q 288 31 272 19 q 303 57 303 43 q 118 735 303 158 q 75 851 93 811 q -58 883 -4 865 l -53 918 q 397 904 82 904 q 846 918 711 904 l 851 883 q 718 851 790 864 q 725 763 725 803 q 714 664 725 724 q 881 96 767 428 q 1016 490 983 356 q 1049 719 1049 624 q 979 890 1049 850 l 985 910 q 1123 904 1028 904 q 1300 915 1218 904 l 1306 881 q 1172 851 1243 861 q 1179 771 1179 803 q 1122 503 1179 654 q 913 47 1064 351 q 976 24 936 35 l 972 -6 q 832 0 906 0 q 715 -6 758 0 l 710 14 q 742 31 726 19 q 757 57 757 43 q 658 472 757 139 l 653 472 q 458 47 588 304 q 522 24 482 35 l 518 -6 m 426 96 q 562 490 529 356 q 594 719 594 624 q 560 842 594 814 q 417 871 525 871 q 228 846 310 871 q 299 508 240 732 q 426 96 358 285 z "},"ŵ":{"ha":1011,"x_min":25,"x_max":1011,"o":"m 956 549 q 885 267 956 418 q 715 11 814 117 q 638 -21 681 -7 q 522 261 574 -6 q 356 11 457 121 q 278 -21 321 -7 q 234 18 254 -15 q 185 162 214 51 q 135 415 157 272 q 100 606 113 558 q 25 617 67 617 l 25 646 q 222 674 118 650 l 232 668 q 221 581 221 629 q 240 412 221 533 q 282 198 260 290 q 317 85 304 106 q 343 64 329 64 q 451 258 417 161 q 485 454 485 354 q 460 606 485 554 q 385 617 426 617 l 385 646 q 588 640 467 640 q 1006 682 839 640 l 1011 657 q 944 618 993 643 q 956 549 956 582 m 738 615 q 581 588 625 615 q 600 412 581 533 q 642 198 619 290 q 676 85 664 106 q 703 64 689 64 q 810 258 776 161 q 844 475 844 354 q 815 603 844 544 q 738 615 775 615 m 522 850 l 336 725 l 318 749 q 508 982 435 847 l 536 982 q 726 749 610 847 l 708 725 l 522 850 z "},"Ŷ":{"ha":757,"x_min":-47,"x_max":839,"o":"m 633 993 l 410 1097 l 186 993 l 172 1019 q 396 1229 300 1100 l 424 1229 q 647 1019 519 1100 l 633 993 m 558 846 q 531 890 558 876 l 536 910 q 683 904 606 904 q 832 915 760 904 l 839 881 q 704 851 772 860 l 432 414 q 450 49 432 182 q 603 22 524 42 l 599 -11 q 376 0 496 0 q 182 -11 256 0 l 176 24 q 310 53 239 43 q 325 340 325 167 l 325 376 q 149 747 186 671 q 86 851 111 822 q -47 881 8 861 l -42 915 q 158 904 32 904 q 386 915 283 904 l 390 882 q 238 856 311 863 q 404 468 303 661 q 558 846 558 769 z "},"ŷ":{"ha":736,"x_min":53,"x_max":688,"o":"m 247 668 q 221 257 221 507 q 279 93 221 93 q 402 163 329 93 q 496 288 475 233 q 481 611 496 489 q 393 638 443 619 l 396 664 q 543 653 474 653 q 683 661 613 653 l 688 635 q 606 607 646 617 q 593 389 593 513 l 593 272 q 603 -47 593 51 q 492 -197 576 -124 q 324 -299 407 -269 q 90 -258 196 -299 l 90 -240 q 149 -85 142 -179 l 178 -85 q 181 -169 178 -139 q 358 -212 258 -212 q 449 -179 414 -212 q 488 -26 481 -94 q 496 201 496 43 l 490 203 q 375 70 449 140 q 243 -21 301 0 q 139 56 163 -21 q 121 189 121 110 q 121 217 121 201 l 128 607 q 53 618 94 618 l 53 647 q 238 674 140 651 l 247 668 m 378 850 l 192 725 l 174 749 q 364 982 290 847 l 392 982 q 582 749 465 847 l 564 725 l 378 850 z "},"Ÿ":{"ha":757,"x_min":-47,"x_max":839,"o":"m 558 846 q 531 890 558 876 l 536 910 q 683 904 606 904 q 832 915 760 904 l 839 881 q 704 851 772 860 l 432 414 q 450 49 432 182 q 603 22 524 42 l 599 -11 q 376 0 496 0 q 182 -11 256 0 l 176 24 q 310 53 239 43 q 325 340 325 167 l 325 376 q 149 747 186 671 q 86 851 111 822 q -47 881 8 861 l -42 915 q 158 904 32 904 q 386 915 283 904 l 390 882 q 238 856 311 863 q 404 468 303 661 q 558 846 558 769 m 357 1115 q 323 1069 347 1097 q 282 1031 299 1042 q 241 1069 265 1042 q 207 1115 217 1097 q 239 1153 215 1132 q 282 1185 263 1175 q 324 1152 300 1174 q 357 1115 347 1131 m 614 1115 q 580 1069 604 1097 q 539 1031 556 1042 q 498 1069 522 1042 q 464 1115 474 1097 q 496 1153 472 1132 q 539 1185 519 1175 q 581 1152 557 1174 q 614 1115 604 1131 z "},"Ź":{"ha":682,"x_min":-21,"x_max":697,"o":"m 576 1107 l 290 1003 l 279 1031 q 497 1206 393 1081 q 556 1193 528 1203 q 570 1151 563 1181 q 576 1107 578 1121 m 19 925 q 235 907 49 925 q 503 889 422 889 q 610 899 583 889 q 668 939 636 910 l 697 917 q 588 763 650 871 l 215 101 l 221 97 l 421 97 q 536 124 501 97 q 544 253 544 176 l 581 253 q 690 -7 590 96 l 664 -28 q 636 -3 653 -14 q 165 29 439 29 q 8 -24 53 29 l -21 0 q 104 164 49 69 l 499 815 l 494 819 l 307 819 q 158 793 219 819 q 124 667 143 714 l 90 672 q 93 773 93 725 q 81 871 93 821 q 15 894 58 883 l 19 925 z "},"ź":{"ha":572,"x_min":10,"x_max":565,"o":"m 536 175 q 521 76 521 121 q 531 -10 521 31 l 514 -21 q 117 43 300 43 q 33 -21 74 19 l 10 0 q 111 125 54 44 l 401 535 l 313 539 q 172 543 210 543 q 122 542 135 543 q 71 474 94 514 l 44 489 q 94 664 85 563 l 113 674 q 179 651 147 657 q 322 636 211 644 l 472 624 q 542 674 515 647 l 565 653 q 464 528 507 594 l 197 124 l 200 118 q 238 132 221 128 q 475 104 357 132 q 507 185 489 135 l 536 175 m 454 964 q 484 965 468 965 q 514 963 500 965 q 535 923 524 951 q 549 881 547 894 l 286 729 l 271 754 q 372 847 322 789 q 454 964 421 906 z "},"Ż":{"ha":682,"x_min":-21,"x_max":697,"o":"m 19 925 q 235 907 49 925 q 503 889 422 889 q 610 899 583 889 q 668 939 636 910 l 697 917 q 588 763 650 871 l 215 101 l 221 97 l 421 97 q 536 124 501 97 q 544 253 544 176 l 581 253 q 690 -7 590 96 l 664 -28 q 636 -3 653 -14 q 165 29 439 29 q 8 -24 53 29 l -21 0 q 104 164 49 69 l 499 815 l 494 819 l 307 819 q 158 793 219 819 q 124 667 143 714 l 90 672 q 93 773 93 725 q 81 871 93 821 q 15 894 58 883 l 19 925 m 468 1115 q 434 1069 458 1097 q 393 1031 410 1042 q 352 1069 376 1042 q 318 1115 328 1097 q 350 1153 326 1132 q 393 1185 374 1175 q 435 1152 411 1174 q 468 1115 458 1131 z "},"ż":{"ha":572,"x_min":10,"x_max":565,"o":"m 536 175 q 521 76 521 121 q 531 -10 521 31 l 514 -21 q 117 43 300 43 q 33 -21 74 19 l 10 0 q 111 125 54 44 l 401 535 l 313 539 q 172 543 210 543 q 122 542 135 543 q 71 474 94 514 l 44 489 q 94 664 85 563 l 113 674 q 179 651 147 657 q 322 636 211 644 l 472 624 q 542 674 515 647 l 565 653 q 464 528 507 594 l 197 124 l 200 118 q 238 132 221 128 q 475 104 357 132 q 507 185 489 135 l 536 175 m 400 861 q 366 815 390 843 q 325 776 342 788 q 284 815 308 788 q 250 861 260 843 q 282 899 258 878 q 325 931 306 921 q 367 898 343 919 q 400 861 390 876 z "},"Ž":{"ha":682,"x_min":-21,"x_max":697,"o":"m 392 1125 l 615 1229 l 629 1203 q 406 993 501 1122 l 378 993 q 154 1203 282 1122 l 168 1229 l 392 1125 m 19 925 q 235 907 49 925 q 503 889 422 889 q 610 899 583 889 q 668 939 636 910 l 697 917 q 588 763 650 871 l 215 101 l 221 97 l 421 97 q 536 124 501 97 q 544 253 544 176 l 581 253 q 690 -7 590 96 l 664 -28 q 636 -3 653 -14 q 165 29 439 29 q 8 -24 53 29 l -21 0 q 104 164 49 69 l 499 815 l 494 819 l 307 819 q 158 793 219 819 q 124 667 143 714 l 90 672 q 93 773 93 725 q 81 871 93 821 q 15 894 58 883 l 19 925 z "},"ž":{"ha":572,"x_min":10,"x_max":565,"o":"m 536 175 q 521 76 521 121 q 531 -10 521 31 l 514 -21 q 117 43 300 43 q 33 -21 74 19 l 10 0 q 111 125 54 44 l 401 535 l 313 539 q 172 543 210 543 q 122 542 135 543 q 71 474 94 514 l 44 489 q 94 664 85 563 l 113 674 q 179 651 147 657 q 322 636 211 644 l 472 624 q 542 674 515 647 l 565 653 q 464 528 507 594 l 197 124 l 200 118 q 238 132 221 128 q 475 104 357 132 q 507 185 489 135 l 536 175 m 138 979 l 324 854 l 510 979 l 528 956 q 338 722 411 857 l 310 722 q 119 956 236 857 l 138 979 z "},"ƒ":{"ha":625,"x_min":24,"x_max":639,"o":"m 67 -160 q 38 -149 50 -160 q 24 -122 25 -139 q 82 -53 61 -87 l 92 -51 q 149 -65 107 -65 q 210 -56 190 -65 q 249 182 249 50 l 247 356 l 172 356 l 169 358 q 174 389 169 381 q 247 413 192 396 q 336 614 261 521 q 514 747 411 707 q 639 725 575 747 l 639 706 q 579 546 586 640 l 549 546 q 546 631 549 600 q 467 647 518 647 q 381 614 415 647 q 351 414 351 536 l 549 421 l 554 415 q 536 350 544 390 q 350 354 465 354 q 358 107 350 197 q 240 -74 328 13 q 67 -160 153 -160 z "},"Ǽ":{"ha":1039,"x_min":-89,"x_max":1010,"o":"m 853 1107 l 567 1003 l 556 1031 q 774 1206 669 1081 q 832 1193 804 1203 q 847 1151 839 1181 q 853 1107 854 1121 m 186 919 q 595 904 374 904 q 1004 919 817 904 l 1010 892 q 928 672 938 818 l 893 672 q 881 824 881 732 q 742 853 821 853 q 625 846 664 853 q 590 507 601 774 q 697 497 635 497 q 849 557 821 497 l 876 551 q 864 445 864 507 q 872 324 864 383 l 840 318 q 813 442 819 371 q 699 446 761 446 q 589 439 636 446 l 589 379 q 622 172 589 247 q 778 89 658 89 q 983 197 878 89 l 1003 179 q 749 -21 888 26 q 535 74 594 -21 q 475 335 475 168 q 475 350 475 342 l 476 438 q 369 446 432 446 q 271 438 306 446 l 251 374 q 199 122 199 199 q 251 14 199 44 l 246 -6 q 101 0 203 0 q -83 -11 -1 0 l -89 24 q 44 53 -26 43 l 336 860 q 182 886 257 868 l 186 919 m 296 506 q 386 497 328 497 q 479 507 444 497 q 491 710 488 660 q 494 793 494 760 q 490 849 494 826 q 446 853 472 853 q 396 849 419 853 l 296 506 z "},"ǽ":{"ha":974,"x_min":75,"x_max":964,"o":"m 75 217 q 169 513 75 383 q 419 674 264 642 q 621 613 519 660 q 742 674 676 656 q 872 637 835 674 q 910 507 910 600 q 904 454 910 478 q 926 451 915 451 q 963 457 938 451 l 964 429 q 574 289 750 392 q 722 79 579 79 q 893 153 810 79 l 908 139 q 706 -21 829 31 q 467 168 522 -21 q 343 53 417 108 q 206 -21 269 -3 q 107 60 139 -10 q 75 217 75 131 m 193 251 q 209 137 193 189 q 264 85 225 85 q 365 128 303 85 q 464 218 428 171 q 461 264 461 238 q 539 522 461 406 l 539 528 q 339 596 447 596 q 276 574 303 596 q 193 251 193 436 m 799 440 q 779 555 797 522 q 707 588 761 588 q 613 554 653 588 q 572 331 575 474 q 799 440 688 404 m 722 964 q 752 965 736 965 q 782 963 768 965 q 803 923 792 951 q 817 881 815 894 l 554 729 l 539 754 q 640 847 590 789 q 722 964 689 906 z "},"Ǿ":{"ha":836,"x_min":58,"x_max":778,"o":"m 674 1107 l 388 1003 l 376 1031 q 594 1206 490 1081 q 653 1193 625 1203 q 667 1151 660 1181 q 674 1107 675 1121 m 58 368 q 162 720 58 561 q 435 925 265 879 q 550 910 496 925 l 585 1017 q 638 1026 617 1019 l 643 1022 q 592 896 624 978 q 778 538 778 814 q 683 195 778 346 q 418 -21 588 44 q 256 14 335 -21 l 206 -121 l 199 -121 q 163 -87 176 -108 l 217 36 q 100 172 142 86 q 58 368 58 258 m 301 135 q 447 79 364 79 q 585 128 529 79 q 654 431 654 256 q 544 772 654 676 l 301 135 m 511 796 q 381 825 457 825 q 253 778 306 825 q 182 468 182 653 q 271 168 182 283 l 511 796 z "},"ǿ":{"ha":678,"x_min":63,"x_max":615,"o":"m 63 264 q 142 523 63 406 q 353 674 222 640 q 438 664 394 674 q 467 761 447 693 q 514 771 493 764 l 519 767 q 472 651 517 761 q 615 389 615 593 q 538 143 615 260 q 339 -21 460 26 q 225 1 281 -21 l 185 -107 l 178 -107 q 146 -75 157 -96 l 189 21 q 63 264 63 103 m 460 100 q 504 326 504 185 q 431 542 504 468 l 264 104 q 364 65 307 65 q 460 100 421 65 m 403 564 q 312 588 367 588 q 219 554 257 588 q 174 343 174 467 q 236 136 174 219 l 403 564 m 488 964 q 517 965 501 965 q 547 963 533 965 q 569 923 557 951 q 582 881 581 894 l 319 729 l 304 754 q 405 847 356 789 q 488 964 454 906 z "},"ȷ":{"ha":404,"x_min":24,"x_max":278,"o":"m 157 74 l 157 264 q 146 606 157 493 q 71 617 110 617 l 71 646 q 268 674 178 653 l 278 668 q 257 326 257 546 q 267 0 257 106 q 44 -299 222 -151 l 24 -278 q 157 74 157 -115 z "},"ˆ":{"ha":408,"x_min":0,"x_max":408,"o":"m 204 850 l 18 725 l 0 749 q 190 982 117 847 l 218 982 q 408 749 292 847 l 390 725 l 204 850 z "},"ˇ":{"ha":408,"x_min":0,"x_max":408,"o":"m 18 979 l 204 854 l 390 979 l 408 956 q 218 722 292 857 l 190 722 q 0 956 117 857 l 18 979 z "},"˘":{"ha":707,"x_min":131,"x_max":568,"o":"m 394 853 q 543 949 492 853 l 568 933 q 488 828 539 874 q 375 761 436 782 q 232 807 307 761 q 131 914 157 853 l 132 926 q 231 949 192 929 l 236 949 q 299 878 256 903 q 394 853 342 853 z "},"˙":{"ha":428,"x_min":139,"x_max":289,"o":"m 289 861 q 255 815 279 843 q 214 776 231 788 q 173 815 197 788 q 139 861 149 843 q 171 899 147 878 q 214 931 194 921 q 256 898 232 919 q 289 861 279 876 z "},"˚":{"ha":268,"x_min":0,"x_max":268,"o":"m 135 729 q 39 756 78 729 q 0 834 0 782 q 41 927 0 886 q 142 981 82 968 q 268 878 268 981 q 231 785 268 824 q 135 729 194 747 m 203 851 q 203 869 203 851 q 181 910 203 888 q 127 932 160 932 q 81 919 94 932 q 65 860 65 897 q 88 801 65 824 q 141 778 110 778 q 188 790 172 778 q 203 851 203 814 z "},"˛":{"ha":513,"x_min":139,"x_max":374,"o":"m 231 -142 q 322 -228 231 -228 q 374 -222 353 -228 l 374 -235 q 306 -299 331 -264 q 181 -267 222 -299 q 139 -157 139 -235 q 212 -58 158 -107 q 321 17 265 -8 l 331 0 q 231 -142 231 -64 z "},"˜":{"ha":458,"x_min":0,"x_max":458,"o":"m 178 921 q 333 878 260 878 q 433 911 406 878 l 458 896 q 314 782 381 811 q 213 803 285 782 q 113 825 142 825 q 25 792 53 825 l 0 807 q 178 921 78 892 z "},"˝":{"ha":751,"x_min":132,"x_max":619,"o":"m 539 964 q 562 965 550 965 q 585 963 574 965 q 619 894 610 932 l 371 729 l 356 754 q 456 847 407 789 q 539 964 506 906 m 315 964 q 338 965 326 965 q 361 963 350 965 q 396 894 386 932 l 147 729 l 132 754 q 233 847 183 789 q 315 964 282 906 z "},"̇":{"ha":150,"x_min":0,"x_max":150,"o":"m 150 861 q 116 815 140 843 q 75 776 92 788 q 34 815 58 788 q 0 861 10 843 q 32 899 8 878 q 75 931 56 921 q 117 898 93 919 q 150 861 140 876 z "},"π":{"ha":689,"x_min":-67,"x_max":669,"o":"m 667 775 q 651 676 651 721 q 661 592 651 632 l 644 581 l 539 601 q 504 239 504 469 q 533 106 504 128 q 571 93 547 93 q 651 153 615 93 l 669 143 q 540 -21 625 29 q 393 163 393 -21 q 420 388 393 264 q 490 610 447 511 q 239 646 325 638 q 224 343 224 508 q 263 -114 224 54 l 258 -118 q 143 -146 208 -125 l 131 -136 q 147 92 140 -72 q 154 343 154 256 l 154 458 q 146 651 154 597 q 113 653 132 653 q -42 578 14 653 l -67 593 q 30 699 -36 650 q 157 756 96 749 q 606 704 415 717 q 638 785 619 735 l 667 775 z "},"–":{"ha":569,"x_min":-7,"x_max":579,"o":"m 4 411 q 347 399 176 399 q 571 403 517 399 l 579 394 l 568 340 l 4 340 l -7 350 l 4 411 z "},"—":{"ha":854,"x_min":-4,"x_max":860,"o":"m 7 411 q 520 399 243 399 q 851 403 797 399 l 860 394 l 849 340 l 7 340 l -4 350 l 7 411 z "},"‘":{"ha":296,"x_min":74,"x_max":246,"o":"m 74 668 q 121 810 74 738 q 232 925 168 882 l 246 911 q 193 826 217 876 q 168 738 169 775 q 224 668 204 704 q 192 630 215 651 q 149 599 168 608 q 107 631 131 610 q 74 668 83 653 z "},"’":{"ha":296,"x_min":50,"x_max":222,"o":"m 222 856 q 175 714 222 786 q 64 599 128 642 l 50 613 q 103 698 79 647 q 128 786 126 749 q 72 856 92 819 q 104 894 81 872 q 147 925 128 915 q 189 892 165 914 q 222 856 213 871 z "},"‚":{"ha":289,"x_min":50,"x_max":222,"o":"m 222 64 q 177 -71 222 -6 q 64 -175 132 -136 l 50 -160 q 128 -6 121 -92 q 72 64 92 28 q 104 102 81 81 q 147 133 128 124 q 189 101 165 122 q 222 64 213 79 z "},"“":{"ha":508,"x_min":74,"x_max":458,"o":"m 74 668 q 121 810 74 738 q 232 925 168 882 l 246 911 q 193 826 217 876 q 168 738 169 775 q 224 668 204 704 q 192 630 215 651 q 149 599 168 608 q 107 631 131 610 q 74 668 83 653 m 286 668 q 333 810 286 738 q 444 925 381 882 l 458 911 q 406 826 429 876 q 381 738 382 775 q 436 668 417 704 q 404 630 428 651 q 361 599 381 608 q 319 631 343 610 q 286 668 296 653 z "},"”":{"ha":508,"x_min":50,"x_max":435,"o":"m 435 856 q 388 714 435 786 q 276 599 340 642 l 263 613 q 315 698 292 647 q 340 786 339 749 q 285 856 304 819 q 317 894 293 872 q 360 925 340 915 q 401 892 378 914 q 435 856 425 871 m 222 856 q 175 714 222 786 q 64 599 128 642 l 50 613 q 103 698 79 647 q 128 786 126 749 q 72 856 92 819 q 104 894 81 872 q 147 925 128 915 q 189 892 165 914 q 222 856 213 871 z "},"„":{"ha":501,"x_min":50,"x_max":435,"o":"m 222 64 q 177 -71 222 -6 q 64 -175 132 -136 l 50 -160 q 128 -6 121 -92 q 72 64 92 28 q 104 102 81 81 q 147 133 128 124 q 189 101 165 122 q 222 64 213 79 m 435 64 q 390 -71 435 -6 q 276 -175 344 -136 l 263 -160 q 340 -6 333 -92 q 285 64 304 28 q 317 102 293 81 q 360 133 340 124 q 401 101 378 122 q 435 64 425 79 z "},"†":{"ha":525,"x_min":1,"x_max":524,"o":"m 456 606 l 467 560 l 463 556 q 281 618 392 601 q 351 439 283 519 l 351 433 q 281 115 285 351 l 276 -160 q 263 -161 269 -161 l 249 -160 l 244 115 q 174 433 240 351 l 174 439 q 244 618 242 522 q 63 556 133 601 l 58 560 l 69 606 q 1 636 6 629 q 69 667 8 650 l 58 713 l 63 717 q 243 654 131 671 q 182 864 233 785 l 186 868 l 232 857 q 263 925 250 918 q 293 857 275 918 l 339 868 l 343 864 q 282 654 292 785 q 463 717 392 671 l 467 713 l 456 667 q 524 636 517 650 q 456 606 519 629 z "},"‡":{"ha":525,"x_min":1,"x_max":524,"o":"m 456 606 l 467 560 l 463 556 q 281 618 392 601 q 297 493 282 539 q 351 413 313 447 l 351 407 q 312 395 338 404 q 285 382 286 386 q 311 369 286 378 q 351 357 336 360 l 351 351 q 297 270 313 317 q 281 144 282 224 q 463 207 388 158 l 467 203 l 456 157 q 524 126 519 133 q 456 96 517 113 l 467 50 l 463 46 q 282 107 385 93 q 343 -101 292 -22 l 339 -106 l 293 -94 q 263 -162 275 -156 q 232 -94 250 -156 l 186 -106 l 182 -101 q 243 107 233 -22 q 63 46 136 93 l 58 50 l 69 96 q 1 126 8 113 q 69 157 6 133 l 58 203 l 63 207 q 244 144 138 158 q 228 269 243 224 q 174 351 213 315 l 174 357 q 214 369 189 360 q 240 382 239 378 q 213 395 239 386 q 174 407 188 404 l 174 413 q 228 493 213 447 q 244 618 243 539 q 63 556 133 601 l 58 560 l 69 606 q 1 636 6 629 q 69 667 8 650 q 58 713 69 667 l 63 717 q 243 654 131 671 q 182 864 233 785 l 186 868 l 232 857 q 263 925 250 918 q 293 857 275 918 l 339 868 l 343 864 q 282 654 292 785 q 463 717 392 671 l 467 713 l 456 667 q 524 636 517 650 q 456 606 519 629 z "},"•":{"ha":485,"x_min":72,"x_max":413,"o":"m 413 400 l 413 381 q 257 196 306 292 l 229 196 q 72 379 179 294 l 72 399 q 125 442 94 415 q 161 474 156 468 q 178 493 167 481 q 197 515 190 506 q 229 565 210 532 l 257 565 q 274 538 265 551 q 289 515 282 524 q 308 493 296 506 q 325 474 319 481 q 346 455 331 468 q 365 438 361 442 q 389 419 369 435 q 413 400 408 404 z "},"…":{"ha":903,"x_min":72,"x_max":831,"o":"m 222 64 q 188 18 213 46 q 147 -21 164 -10 q 106 18 131 -10 q 72 64 82 46 q 104 102 81 81 q 147 133 128 124 q 189 101 165 122 q 222 64 213 79 m 526 64 q 492 18 517 46 q 451 -21 468 -10 q 410 18 435 -10 q 376 64 386 46 q 408 102 385 81 q 451 133 432 124 q 493 101 469 122 q 526 64 517 79 m 831 64 q 797 18 821 46 q 756 -21 772 -10 q 715 18 739 -10 q 681 64 690 46 q 713 102 689 81 q 756 133 736 124 q 797 101 774 122 q 831 64 821 79 z "},"‰":{"ha":1476,"x_min":47,"x_max":1429,"o":"m 1033 204 q 1114 391 1053 326 q 1237 456 1175 456 q 1354 397 1299 456 q 1429 231 1410 338 q 1350 44 1410 108 q 1228 -21 1290 -21 q 1110 38 1167 -21 q 1033 204 1053 97 m 1306 97 q 1319 125 1306 97 q 1332 218 1332 154 q 1306 340 1332 282 q 1233 414 1279 397 q 1161 339 1189 397 q 1133 218 1133 281 q 1161 97 1133 156 q 1233 22 1189 39 q 1306 97 1279 39 m 247 792 q 406 771 278 792 q 625 750 533 750 q 749 803 717 750 l 757 817 q 847 831 810 819 l 851 826 q 650 525 757 692 l 226 -139 l 219 -139 q 165 -94 183 -122 q 335 142 306 96 l 578 522 q 708 732 644 622 l 703 733 q 597 699 669 699 q 361 749 525 699 l 357 744 q 443 567 422 683 q 364 380 424 444 q 242 315 304 315 q 124 374 181 315 q 47 540 67 433 q 128 727 67 663 q 247 792 189 792 m 590 204 q 671 391 610 326 q 794 456 732 456 q 911 397 856 456 q 986 231 967 338 q 907 44 967 108 q 785 -21 847 -21 q 667 38 724 -21 q 590 204 610 97 m 319 433 q 333 461 319 433 q 346 554 346 490 q 319 676 346 618 q 247 750 293 733 q 175 675 203 733 q 147 554 147 617 q 175 433 147 492 q 247 358 203 375 q 319 433 293 375 m 863 97 q 876 125 863 97 q 889 218 889 154 q 863 340 889 282 q 790 414 836 397 q 718 339 746 397 q 690 218 690 281 q 718 97 690 156 q 790 22 746 39 q 863 97 836 39 z "},"‹":{"ha":343,"x_min":29,"x_max":304,"o":"m 154 393 l 304 174 l 276 154 q 29 374 147 303 l 29 401 q 276 610 161 474 l 303 592 l 154 393 z "},"›":{"ha":343,"x_min":39,"x_max":314,"o":"m 39 174 l 189 393 l 43 592 l 67 610 q 314 401 182 474 l 314 374 q 67 154 196 303 l 39 174 z "},"⁄":{"ha":764,"x_min":-14,"x_max":775,"o":"m 33 -58 l 26 -57 q -14 -1 3 -37 q 160 222 115 163 l 513 710 q 696 978 594 824 q 769 968 726 971 l 775 964 q 586 708 731 908 l 33 -58 z "},"⁰":{"ha":578,"x_min":51,"x_max":526,"o":"m 51 738 q 147 959 74 882 q 295 1036 221 1036 q 435 966 369 1036 q 526 768 500 896 q 431 547 501 624 q 285 471 360 471 q 142 541 210 471 q 51 738 75 611 m 290 997 q 201 905 235 978 q 168 753 168 832 q 201 602 168 675 q 290 511 235 529 q 378 602 346 529 q 411 754 411 675 q 378 906 411 833 q 290 997 346 978 z "},"⁴":{"ha":504,"x_min":4,"x_max":475,"o":"m 364 836 l 364 688 q 456 732 440 688 l 475 726 q 468 665 468 692 q 468 625 468 638 l 463 622 q 365 625 429 625 q 372 528 365 563 q 435 506 390 518 l 431 481 q 307 489 375 489 q 193 478 239 489 l 190 501 q 265 525 228 518 q 272 625 272 565 l 10 625 l 4 642 q 269 1011 194 864 q 368 1035 319 1017 l 376 1032 q 364 836 364 965 m 268 931 q 122 697 222 833 q 272 689 183 689 l 275 931 l 268 931 z "},"⁵":{"ha":471,"x_min":58,"x_max":418,"o":"m 125 639 q 126 581 125 601 q 243 543 193 543 q 307 560 293 543 q 319 644 319 593 q 288 733 319 696 q 204 771 256 771 q 122 754 153 771 l 111 763 l 119 932 q 121 985 121 960 q 118 1032 121 1011 l 144 1036 q 154 1011 149 1024 q 369 1035 290 1017 l 381 1026 q 371 965 371 999 q 378 893 371 932 l 354 886 q 332 943 346 917 q 197 936 260 936 l 171 946 l 167 942 l 154 804 q 218 839 183 828 q 366 788 314 839 q 418 642 418 738 q 347 540 400 590 q 239 471 294 490 q 58 507 140 471 l 58 524 q 100 639 90 568 l 125 639 z "},"⁶":{"ha":465,"x_min":67,"x_max":436,"o":"m 167 688 q 263 538 167 538 q 325 557 304 538 q 339 636 339 585 q 310 725 339 688 q 222 763 281 763 q 193 758 208 763 l 193 769 q 243 817 222 793 q 389 772 342 817 q 436 632 436 728 q 354 535 414 585 q 242 471 294 486 q 112 520 157 471 q 67 669 67 569 q 147 879 67 769 q 336 1036 226 989 l 350 1015 q 215 872 264 957 q 167 688 167 786 z "},"⁷":{"ha":399,"x_min":64,"x_max":393,"o":"m 282 936 q 220 936 263 936 q 113 943 178 936 q 90 885 99 919 l 67 893 q 74 963 74 931 q 64 1026 74 996 l 76 1035 q 351 1010 201 1010 q 369 1036 361 1021 l 393 1024 q 296 831 342 940 q 221 525 222 665 q 290 506 246 521 l 288 479 q 187 489 240 489 q 81 475 133 489 l 75 501 q 119 519 101 510 q 250 851 131 660 l 307 943 l 304 946 q 282 936 293 940 z "},"⁸":{"ha":510,"x_min":75,"x_max":435,"o":"m 275 1036 q 374 1013 333 1036 q 415 949 415 989 q 383 869 415 910 q 313 801 350 829 q 402 733 369 768 q 435 643 435 697 q 358 540 413 589 q 246 472 304 490 q 127 511 179 472 q 75 610 75 550 q 110 697 75 650 q 186 771 144 743 q 96 913 96 833 q 177 988 121 949 q 275 1036 233 1026 m 322 558 q 336 617 336 588 q 314 674 336 646 q 271 717 292 701 q 214 754 250 732 q 161 633 161 713 q 194 566 161 594 q 266 538 226 538 q 322 558 306 538 m 194 924 q 282 818 194 868 q 329 918 329 865 q 254 971 329 971 q 200 953 218 971 q 194 924 194 939 z "},"⁹":{"ha":465,"x_min":29,"x_max":399,"o":"m 299 819 q 203 969 299 969 q 140 950 161 969 q 126 871 126 922 q 156 782 126 819 q 243 744 185 744 q 272 749 258 744 l 272 738 q 222 690 243 714 q 76 735 124 690 q 29 875 29 779 q 111 972 51 922 q 224 1036 171 1021 q 353 987 308 1036 q 399 838 399 938 q 319 628 399 738 q 129 471 239 518 l 115 492 q 250 635 201 550 q 299 819 299 721 z "},"€":{"ha":633,"x_min":40,"x_max":586,"o":"m 217 289 q 260 134 224 189 q 380 79 296 79 q 560 167 464 79 l 574 153 q 357 -22 490 32 q 169 61 231 -22 q 104 283 107 144 l 44 276 l 40 282 q 50 326 49 310 l 104 328 q 114 394 106 350 q 44 388 74 393 l 40 393 q 50 438 49 421 l 124 440 q 228 634 156 551 q 404 747 301 717 q 586 725 503 747 l 586 706 q 526 549 535 639 l 496 549 q 492 638 496 604 q 372 657 433 657 q 268 619 311 657 q 218 443 232 542 l 396 450 q 513 457 485 454 q 525 414 518 429 l 525 407 l 356 404 l 214 400 l 214 376 l 214 354 q 214 332 213 332 l 396 339 q 513 346 483 343 q 525 303 518 318 l 525 296 l 356 293 l 217 289 z "},"™":{"ha":997,"x_min":-10,"x_max":972,"o":"m 322 857 q 266 871 293 871 q 228 867 239 871 q 222 695 222 822 q 232 481 222 568 q 299 468 261 476 l 296 446 q 187 453 243 453 q 86 447 131 453 l 83 467 q 139 482 107 475 q 147 658 147 540 l 147 700 q 140 867 147 819 q 105 871 132 871 q 47 860 78 871 q 36 786 43 844 l 15 786 q -10 896 13 858 l -4 913 q 192 904 63 904 q 388 913 321 904 l 392 896 q 349 786 353 861 l 329 786 q 322 857 322 814 m 607 500 q 533 854 607 599 l 529 854 l 510 706 q 497 536 497 593 q 521 464 497 479 l 517 449 q 432 453 471 453 q 349 446 393 453 l 346 467 q 414 482 365 474 l 493 876 q 418 890 461 881 l 419 911 q 534 904 479 904 q 622 908 589 904 l 624 894 q 606 875 606 890 q 650 656 606 821 l 668 589 l 672 590 q 749 872 675 613 q 725 894 749 888 l 726 908 q 824 904 760 904 q 929 911 888 904 l 933 890 q 878 876 913 883 q 874 818 874 858 q 885 650 874 778 q 907 479 897 522 q 972 467 942 475 l 969 446 q 857 453 911 453 q 763 447 803 453 l 760 467 q 815 482 775 472 q 800 851 815 668 l 794 853 q 703 525 711 590 q 617 472 636 493 l 606 478 q 607 500 607 486 z "},"Ω":{"ha":974,"x_min":36,"x_max":938,"o":"m 868 533 q 811 298 868 419 q 665 99 754 176 l 665 92 l 676 92 q 840 117 785 92 q 857 232 851 168 l 892 232 q 938 13 897 85 l 929 -15 q 705 0 808 0 q 572 -1 601 0 l 571 57 q 698 235 657 122 q 739 476 739 349 q 683 731 739 622 q 606 816 656 785 q 494 847 556 847 q 383 825 432 847 q 279 673 313 767 q 246 464 246 579 q 287 235 246 349 q 414 57 328 122 l 413 -1 q 274 0 383 0 q 44 -15 165 0 l 36 13 q 82 232 76 85 l 117 232 q 133 117 122 168 q 308 92 189 92 l 318 92 l 318 99 q 172 283 226 174 q 117 506 117 392 q 241 796 117 681 q 538 925 365 911 q 783 807 699 911 q 868 533 868 703 z "},"∂":{"ha":654,"x_min":25,"x_max":596,"o":"m 440 870 q 480 821 440 870 q 558 643 519 772 q 596 364 596 514 q 510 106 596 214 q 269 -21 425 -1 q 117 70 171 -4 q 63 260 63 144 q 142 465 63 376 q 350 582 222 554 q 463 492 417 567 l 469 492 q 199 925 400 925 q 126 907 153 925 q 119 847 119 883 q 133 796 119 811 l 132 786 q 63 728 97 765 q 35 742 46 729 q 25 771 25 754 q 90 912 25 854 q 253 988 154 969 q 440 870 360 968 m 485 321 q 475 404 485 367 q 310 522 415 500 q 210 460 244 522 q 175 294 175 397 q 221 123 175 190 q 351 56 267 56 q 425 75 394 56 q 485 321 485 158 z "},"∆":{"ha":764,"x_min":-32,"x_max":767,"o":"m 767 64 l 754 0 l -21 0 l -32 10 q 347 904 206 475 l 413 925 q 767 64 547 514 m 82 89 q 405 74 192 74 q 649 82 618 74 l 369 764 l 363 763 l 82 89 z "},"∏":{"ha":957,"x_min":29,"x_max":947,"o":"m 35 925 q 489 904 226 904 q 943 925 751 904 l 947 892 q 794 856 892 874 q 776 438 776 753 l 776 356 q 794 -62 776 40 q 947 -89 868 -69 l 943 -122 q 745 -111 854 -111 q 540 -119 636 -111 l 535 -85 q 654 -58 574 -72 q 669 391 669 54 q 656 822 669 728 q 476 853 604 853 q 301 846 347 853 q 288 411 288 751 q 306 -62 288 71 q 444 -86 372 -69 l 440 -119 q 228 -111 344 -111 q 38 -122 111 -111 l 32 -87 q 165 -58 94 -68 q 181 356 181 57 l 181 438 q 163 851 181 646 q 29 890 142 856 l 35 925 z "},"∑":{"ha":749,"x_min":-50,"x_max":710,"o":"m 451 0 q 567 26 532 0 q 593 182 583 85 l 628 182 q 710 -128 633 -8 l 683 -149 l 656 -124 q 144 -92 450 -92 q -33 -129 31 -92 l -49 -115 l 300 404 l 74 758 q -50 903 14 850 l -32 922 q 149 889 42 889 q 460 907 256 889 q 696 925 664 925 l 700 894 q 635 871 657 883 q 622 775 622 821 q 625 676 622 729 l 592 671 q 557 797 572 718 q 408 824 496 824 l 188 825 l 182 821 l 392 456 l 392 450 l 135 6 l 139 0 l 451 0 z "},"−":{"ha":764,"x_min":74,"x_max":689,"o":"m 86 389 q 474 376 322 376 q 681 381 626 376 l 689 372 l 676 308 l 85 308 l 74 318 l 86 389 z "},"√":{"ha":764,"x_min":-7,"x_max":683,"o":"m 200 674 l 210 674 q 290 442 224 624 q 425 93 356 261 l 431 92 l 546 667 q 599 967 586 865 q 678 986 643 972 l 683 983 q 613 681 654 886 l 476 6 l 383 -22 l 140 576 q 1 558 67 576 l -7 588 q 200 674 126 624 z "},"∞":{"ha":764,"x_min":51,"x_max":711,"o":"m 176 176 q 83 221 114 176 q 51 336 51 265 q 117 455 68 393 q 215 538 167 517 q 396 414 310 538 q 586 538 503 538 q 680 493 649 538 q 711 378 711 449 q 645 259 694 321 q 547 176 596 197 q 449 208 490 176 q 367 300 407 240 q 176 176 260 176 m 417 389 q 488 295 456 326 q 553 264 519 264 q 604 272 588 264 q 633 351 633 296 q 553 460 633 460 q 417 389 481 460 m 346 325 q 275 419 307 388 q 209 450 243 450 q 158 442 175 450 q 129 363 129 418 q 210 254 129 254 q 346 325 282 254 z "},"∫":{"ha":507,"x_min":-10,"x_max":517,"o":"m 474 988 q 503 977 490 988 q 517 950 515 967 q 458 881 479 915 l 449 879 q 392 893 433 893 q 331 883 350 893 q 292 675 292 786 q 292 653 292 664 l 318 36 q 220 -192 303 -86 q 33 -299 138 -299 q 4 -288 17 -299 q -10 -261 -8 -278 q 49 -192 28 -226 l 58 -190 q 115 -204 74 -204 q 176 -194 157 -204 q 215 19 215 -99 q 215 35 215 26 l 189 653 q 287 881 204 775 q 474 988 369 988 z "},"≈":{"ha":819,"x_min":69,"x_max":750,"o":"m 561 240 q 725 321 657 240 l 750 306 q 661 206 722 253 q 540 143 600 160 q 388 189 494 143 q 235 235 281 235 q 94 160 143 235 l 69 175 q 166 281 100 232 q 293 338 232 331 q 426 269 353 297 q 561 240 500 240 m 561 490 q 725 571 657 490 l 750 556 q 661 456 722 503 q 540 393 600 410 q 388 439 494 393 q 235 485 281 485 q 94 410 143 485 l 69 425 q 166 531 100 482 q 293 588 232 581 q 426 519 353 547 q 561 490 500 490 z "},"≠":{"ha":764,"x_min":74,"x_max":689,"o":"m 563 483 q 681 488 626 483 l 689 479 l 676 415 l 488 415 l 381 285 q 534 283 442 283 q 681 288 626 283 l 689 279 l 676 215 l 324 215 l 190 51 l 175 50 l 132 101 q 233 215 201 176 l 85 215 l 74 225 l 86 296 q 293 286 154 292 l 397 415 l 85 415 l 74 425 l 86 496 q 450 483 264 486 q 558 626 476 518 l 569 629 l 626 585 l 543 483 l 563 483 z "},"≤":{"ha":764,"x_min":69,"x_max":706,"o":"m 676 111 q 81 324 381 246 l 101 414 q 363 498 188 436 q 676 628 539 560 l 706 560 l 699 546 l 196 371 l 196 365 l 699 189 l 706 175 l 676 111 m 82 81 q 470 68 318 68 q 676 72 622 68 l 685 64 l 672 0 l 81 0 l 69 10 l 82 81 z "},"≥":{"ha":764,"x_min":69,"x_max":706,"o":"m 694 324 q 99 111 394 246 l 69 175 l 76 189 l 579 365 l 579 371 l 76 546 l 69 560 l 99 628 q 412 498 236 560 q 674 414 588 436 l 694 324 m 99 72 q 306 68 153 68 q 693 81 458 68 l 706 10 l 694 0 l 103 0 l 90 64 l 99 72 z "},"◊":{"ha":764,"x_min":81,"x_max":683,"o":"m 415 -147 l 354 -160 q 228 119 308 -37 q 81 381 147 276 l 82 381 l 81 382 q 236 661 156 500 q 349 914 317 822 l 415 926 q 532 657 446 825 q 683 383 618 489 q 538 124 618 281 q 415 -147 458 -32 m 378 813 l 172 383 l 379 -54 l 386 -53 l 592 381 l 385 814 l 378 813 z "},"ﬀ":{"ha":1174,"x_min":65,"x_max":1125,"o":"m 956 404 q 892 560 956 560 q 764 492 838 560 q 665 365 690 424 q 681 42 665 164 q 768 15 718 33 l 765 -11 q 618 0 688 0 q 478 -8 549 0 l 474 18 q 556 46 515 36 q 568 264 568 139 l 568 522 q 560 858 568 751 q 433 888 515 888 q 271 838 351 888 q 247 654 247 765 l 444 661 l 450 656 q 432 590 440 629 q 246 594 361 594 l 246 319 q 263 -83 246 100 q 231 -81 243 -81 q 214 -81 219 -81 q 151 -278 174 -154 l 126 -276 q 143 319 143 24 l 143 596 l 68 596 l 65 599 q 69 629 65 621 q 143 653 100 642 q 251 872 164 786 q 475 988 339 958 q 610 957 533 982 q 744 988 674 967 l 751 963 q 686 922 725 942 q 665 451 665 808 l 671 450 q 794 584 718 515 q 931 674 869 653 q 1039 597 1015 674 q 1057 464 1057 543 q 1057 436 1057 451 l 1050 46 q 1125 35 1083 35 l 1125 6 q 938 -21 1036 1 l 928 -15 q 954 374 950 119 q 956 404 956 388 z "},"ﬁ":{"ha":808,"x_min":65,"x_max":771,"o":"m 699 861 q 665 815 689 843 q 624 776 640 788 q 583 815 607 788 q 549 861 558 843 q 581 899 557 878 q 624 931 604 921 q 665 898 642 919 q 699 861 689 876 m 674 381 l 674 264 q 683 42 674 114 q 771 15 722 33 l 768 -11 q 621 0 690 0 q 481 -8 551 0 l 476 18 q 558 46 518 36 q 571 314 571 139 q 563 574 571 489 q 432 592 535 589 l 246 594 l 246 319 q 263 -83 246 133 q 231 -81 243 -81 q 214 -81 219 -81 q 151 -278 172 -157 l 126 -276 q 143 319 143 24 l 143 596 l 68 596 l 65 599 q 69 629 65 621 q 143 653 88 636 q 232 854 157 761 q 410 988 307 947 q 521 965 467 985 l 521 946 q 461 786 468 881 l 431 786 q 428 871 431 840 q 356 885 406 885 q 276 854 307 885 q 247 653 247 776 l 450 653 q 682 674 603 653 l 692 668 q 674 381 674 561 z "},"ﬂ":{"ha":822,"x_min":65,"x_max":763,"o":"m 667 319 q 667 192 667 279 q 675 42 667 106 q 763 15 714 33 l 760 -11 q 613 0 682 0 q 472 -8 543 0 l 468 18 q 550 46 510 36 q 564 319 563 135 l 568 579 q 568 699 568 615 q 560 858 568 782 q 433 888 515 888 q 271 838 351 888 q 247 654 247 765 l 444 661 l 450 656 q 432 590 440 629 q 246 594 361 594 l 246 319 q 263 -83 246 100 q 231 -81 243 -81 q 214 -81 219 -81 q 151 -278 174 -154 l 126 -276 q 143 319 143 24 l 143 596 l 68 596 l 65 599 q 69 629 65 621 q 143 653 100 642 q 251 872 164 786 q 475 988 339 958 q 610 957 533 982 q 747 988 679 968 l 754 963 q 689 922 728 942 q 671 579 674 839 l 667 319 z "},"ﬆ":{"ha":979,"x_min":39,"x_max":951,"o":"m 129 153 l 132 94 l 132 89 q 253 65 196 65 q 348 90 310 65 q 386 174 386 115 q 240 292 386 217 q 140 359 186 319 q 94 436 94 399 q 173 584 94 510 q 321 674 251 658 l 346 674 q 308 790 318 721 q 419 931 346 875 q 583 988 493 988 q 756 815 756 988 q 754 789 756 803 l 746 654 l 942 661 l 947 656 q 929 590 938 631 q 743 594 858 594 l 738 319 q 738 271 738 294 q 779 79 738 79 q 938 153 856 79 l 951 139 q 756 -21 871 26 q 653 51 676 -21 q 635 263 635 113 q 635 319 635 289 l 640 596 l 565 596 l 563 599 q 567 629 563 621 q 640 653 597 642 l 651 779 q 653 800 653 790 q 531 910 653 910 q 420 873 465 910 q 375 779 375 836 q 386 683 375 722 q 438 661 394 668 l 493 651 l 493 632 q 433 486 439 565 l 403 486 q 400 571 403 540 q 297 588 346 588 q 210 569 249 588 q 172 508 172 550 q 218 450 172 483 q 318 390 264 417 q 418 322 372 363 q 464 244 464 282 q 387 81 464 160 q 231 -21 310 3 q 39 8 131 -21 l 39 28 q 99 174 93 94 l 129 174 l 129 153 z "}}}
